G04*
G04 #@! TF.GenerationSoftware,Altium Limited,Altium Designer,24.2.2 (26)*
G04*
G04 Layer_Color=16711935*
%FSLAX43Y43*%
%MOMM*%
G71*
G04*
G04 #@! TF.SameCoordinates,8CC7AA04-EDAA-4120-BC56-05CF8BE8917F*
G04*
G04*
G04 #@! TF.FilePolarity,Negative*
G04*
G01*
G75*
%ADD14R,1.100X0.800*%
%ADD15R,0.700X0.900*%
G04:AMPARAMS|DCode=17|XSize=1.9mm|YSize=1.15mm|CornerRadius=0.313mm|HoleSize=0mm|Usage=FLASHONLY|Rotation=180.000|XOffset=0mm|YOffset=0mm|HoleType=Round|Shape=RoundedRectangle|*
%AMROUNDEDRECTD17*
21,1,1.900,0.525,0,0,180.0*
21,1,1.275,1.150,0,0,180.0*
1,1,0.625,-0.638,0.263*
1,1,0.625,0.638,0.263*
1,1,0.625,0.638,-0.263*
1,1,0.625,-0.638,-0.263*
%
%ADD17ROUNDEDRECTD17*%
%ADD19C,1.700*%
%ADD20R,1.700X1.700*%
G04:AMPARAMS|DCode=21|XSize=1.8mm|YSize=4.1mm|CornerRadius=0.475mm|HoleSize=0mm|Usage=FLASHONLY|Rotation=270.000|XOffset=0mm|YOffset=0mm|HoleType=Round|Shape=RoundedRectangle|*
%AMROUNDEDRECTD21*
21,1,1.800,3.150,0,0,270.0*
21,1,0.850,4.100,0,0,270.0*
1,1,0.950,-1.575,-0.425*
1,1,0.950,-1.575,0.425*
1,1,0.950,1.575,0.425*
1,1,0.950,1.575,-0.425*
%
%ADD21ROUNDEDRECTD21*%
G04:AMPARAMS|DCode=22|XSize=4.1mm|YSize=3.1mm|CornerRadius=0.8mm|HoleSize=0mm|Usage=FLASHONLY|Rotation=0.000|XOffset=0mm|YOffset=0mm|HoleType=Round|Shape=RoundedRectangle|*
%AMROUNDEDRECTD22*
21,1,4.100,1.500,0,0,0.0*
21,1,2.500,3.100,0,0,0.0*
1,1,1.600,1.250,-0.750*
1,1,1.600,-1.250,-0.750*
1,1,1.600,-1.250,0.750*
1,1,1.600,1.250,0.750*
%
%ADD22ROUNDEDRECTD22*%
%ADD23C,1.624*%
%ADD24C,6.100*%
%ADD25C,2.000*%
%ADD26R,2.000X2.000*%
%ADD27C,0.100*%
%ADD28C,1.100*%
%ADD29O,1.100X1.900*%
%ADD68R,7.100X1.260*%
%ADD69R,1.012X5.100*%
%ADD70R,5.100X1.012*%
%ADD71R,0.800X1.300*%
%ADD72R,1.400X1.100*%
%ADD73R,0.400X1.250*%
%ADD74R,0.700X1.250*%
%ADD75R,0.800X1.100*%
%ADD76R,1.100X1.100*%
G04:AMPARAMS|DCode=77|XSize=1.05mm|YSize=0.95mm|CornerRadius=0.263mm|HoleSize=0mm|Usage=FLASHONLY|Rotation=180.000|XOffset=0mm|YOffset=0mm|HoleType=Round|Shape=RoundedRectangle|*
%AMROUNDEDRECTD77*
21,1,1.050,0.425,0,0,180.0*
21,1,0.525,0.950,0,0,180.0*
1,1,0.525,-0.263,0.213*
1,1,0.525,0.263,0.213*
1,1,0.525,0.263,-0.213*
1,1,0.525,-0.263,-0.213*
%
%ADD77ROUNDEDRECTD77*%
G04:AMPARAMS|DCode=78|XSize=1.05mm|YSize=0.95mm|CornerRadius=0.263mm|HoleSize=0mm|Usage=FLASHONLY|Rotation=270.000|XOffset=0mm|YOffset=0mm|HoleType=Round|Shape=RoundedRectangle|*
%AMROUNDEDRECTD78*
21,1,1.050,0.425,0,0,270.0*
21,1,0.525,0.950,0,0,270.0*
1,1,0.525,-0.213,-0.263*
1,1,0.525,-0.213,0.263*
1,1,0.525,0.213,0.263*
1,1,0.525,0.213,-0.263*
%
%ADD78ROUNDEDRECTD78*%
%ADD79R,1.400X1.200*%
%ADD80R,0.950X1.050*%
%ADD81R,1.600X0.600*%
%ADD82O,0.600X1.600*%
%ADD83R,0.600X1.600*%
%ADD84R,5.100X5.100*%
%ADD85R,1.000X0.400*%
%ADD86R,0.400X1.000*%
%ADD87O,0.400X1.000*%
G36*
X39010Y39249D02*
X39019Y39246D01*
X39028Y39242D01*
X39036Y39236D01*
X39042Y39228D01*
X39046Y39219D01*
X39049Y39210D01*
X39050Y39200D01*
Y38200D01*
X39049Y38190D01*
X39046Y38181D01*
X39042Y38172D01*
X39036Y38164D01*
X39028Y38158D01*
X39019Y38154D01*
X39010Y38151D01*
X39000Y38150D01*
X37800Y38150D01*
X37800Y38150D01*
X37790Y38151D01*
X37781Y38154D01*
X37772Y38158D01*
X37764Y38164D01*
X37264Y38664D01*
X37258Y38672D01*
X37254Y38681D01*
X37251Y38690D01*
X37250Y38700D01*
X37251Y38710D01*
X37254Y38719D01*
X37258Y38728D01*
X37264Y38736D01*
X37764Y39236D01*
X37772Y39242D01*
X37781Y39246D01*
X37783Y39247D01*
X37790Y39249D01*
X37795Y39250D01*
X37800Y39250D01*
X37800Y39250D01*
X39000Y39250D01*
X39010Y39249D01*
D02*
G37*
G36*
X37505Y39250D02*
X37510Y39249D01*
X37517Y39247D01*
X37519Y39246D01*
X37528Y39242D01*
X37536Y39236D01*
X37542Y39228D01*
X37546Y39219D01*
X37547Y39217D01*
X37549Y39210D01*
X37550Y39205D01*
X37550Y39200D01*
X37550Y39195D01*
X37549Y39190D01*
X37547Y39183D01*
X37546Y39181D01*
X37542Y39172D01*
X37536Y39164D01*
X37071Y38700D01*
X37536Y38236D01*
X37536Y38236D01*
X37538Y38232D01*
X37542Y38228D01*
X37546Y38219D01*
X37549Y38210D01*
X37549Y38209D01*
X37550Y38200D01*
X37549Y38190D01*
X37546Y38181D01*
X37542Y38172D01*
X37536Y38164D01*
X37528Y38158D01*
X37519Y38154D01*
X37510Y38151D01*
X37500Y38150D01*
X37500Y38150D01*
X36000D01*
X35990Y38151D01*
X35981Y38154D01*
X35972Y38158D01*
X35964Y38164D01*
X35958Y38172D01*
X35954Y38181D01*
X35951Y38190D01*
X35950Y38200D01*
Y39200D01*
X35951Y39210D01*
X35954Y39219D01*
X35958Y39228D01*
X35964Y39236D01*
X35972Y39242D01*
X35981Y39246D01*
X35990Y39249D01*
X36000Y39250D01*
X37500D01*
X37500Y39250D01*
X37505Y39250D01*
D02*
G37*
G36*
X37800Y37450D02*
X39000D01*
X39010Y37449D01*
X39019Y37446D01*
X39028Y37442D01*
X39036Y37436D01*
X39042Y37428D01*
X39046Y37419D01*
X39049Y37410D01*
X39050Y37400D01*
Y36400D01*
X39049Y36390D01*
X39046Y36381D01*
X39042Y36372D01*
X39036Y36364D01*
X39028Y36358D01*
X39019Y36354D01*
X39010Y36351D01*
X39000Y36350D01*
X37800Y36350D01*
X37800Y36350D01*
X37790Y36351D01*
X37781Y36354D01*
X37772Y36358D01*
X37768Y36362D01*
X37764Y36364D01*
X37764Y36364D01*
X37264Y36864D01*
X37258Y36872D01*
X37254Y36881D01*
X37251Y36890D01*
X37250Y36900D01*
X37251Y36910D01*
X37254Y36919D01*
X37258Y36928D01*
X37264Y36936D01*
X37764Y37436D01*
X37772Y37442D01*
X37781Y37446D01*
X37783Y37447D01*
X37790Y37449D01*
X37795Y37450D01*
X37800Y37450D01*
X37800Y37450D01*
D02*
G37*
G36*
X37505Y37450D02*
X37510Y37449D01*
X37517Y37447D01*
X37519Y37446D01*
X37528Y37442D01*
X37536Y37436D01*
X37542Y37428D01*
X37546Y37419D01*
X37547Y37417D01*
X37549Y37410D01*
X37550Y37405D01*
X37550Y37400D01*
X37550Y37395D01*
X37549Y37390D01*
X37547Y37383D01*
X37546Y37381D01*
X37542Y37372D01*
X37536Y37364D01*
X37071Y36900D01*
X37536Y36436D01*
X37542Y36428D01*
X37546Y36419D01*
X37549Y36410D01*
X37550Y36400D01*
X37549Y36390D01*
X37546Y36381D01*
X37542Y36372D01*
X37536Y36364D01*
X37528Y36358D01*
X37519Y36354D01*
X37510Y36351D01*
X37500Y36350D01*
X37500Y36350D01*
X36000D01*
X35990Y36351D01*
X35981Y36354D01*
X35972Y36358D01*
X35964Y36364D01*
X35958Y36372D01*
X35954Y36381D01*
X35951Y36390D01*
X35950Y36400D01*
X35950Y37400D01*
X35951Y37410D01*
X35954Y37419D01*
X35958Y37428D01*
X35964Y37436D01*
X35972Y37442D01*
X35981Y37446D01*
X35990Y37449D01*
X36000Y37450D01*
X37500Y37450D01*
X37500Y37450D01*
X37505Y37450D01*
D02*
G37*
G36*
X62910Y3349D02*
X62919Y3346D01*
X62928Y3342D01*
X62936Y3336D01*
X62942Y3328D01*
X62946Y3319D01*
X62949Y3310D01*
X62950Y3300D01*
Y2750D01*
X63250D01*
X63260Y2749D01*
X63269Y2746D01*
X63278Y2742D01*
X63286Y2736D01*
X63292Y2728D01*
X63296Y2719D01*
X63299Y2710D01*
X63300Y2700D01*
Y2000D01*
X63299Y1990D01*
X63296Y1981D01*
X63292Y1972D01*
X63286Y1964D01*
X63278Y1958D01*
X63269Y1954D01*
X63260Y1951D01*
X63250Y1950D01*
X62150D01*
X62140Y1951D01*
X62131Y1954D01*
X62122Y1958D01*
X62114Y1964D01*
X62108Y1972D01*
X62104Y1981D01*
X62101Y1990D01*
X62100Y2000D01*
Y3300D01*
X62101Y3310D01*
X62104Y3319D01*
X62108Y3328D01*
X62114Y3336D01*
X62122Y3342D01*
X62131Y3346D01*
X62140Y3349D01*
X62150Y3350D01*
X62900D01*
X62910Y3349D01*
D02*
G37*
G36*
X67460D02*
X67469Y3346D01*
X67478Y3342D01*
X67486Y3336D01*
X67492Y3328D01*
X67496Y3319D01*
X67499Y3310D01*
X67500Y3300D01*
Y2000D01*
X67499Y1990D01*
X67496Y1981D01*
X67492Y1972D01*
X67486Y1964D01*
X67478Y1958D01*
X67469Y1954D01*
X67460Y1951D01*
X67450Y1950D01*
X66350D01*
X66340Y1951D01*
X66331Y1954D01*
X66322Y1958D01*
X66314Y1964D01*
X66308Y1972D01*
X66304Y1981D01*
X66301Y1990D01*
X66300Y2000D01*
Y2700D01*
X66301Y2710D01*
X66304Y2719D01*
X66308Y2728D01*
X66314Y2736D01*
X66322Y2742D01*
X66331Y2746D01*
X66340Y2749D01*
X66350Y2750D01*
X66650D01*
Y3300D01*
X66651Y3310D01*
X66654Y3319D01*
X66658Y3328D01*
X66664Y3336D01*
X66672Y3342D01*
X66681Y3346D01*
X66690Y3349D01*
X66700Y3350D01*
X67450D01*
X67460Y3349D01*
D02*
G37*
G36*
X76760Y3299D02*
X76769Y3296D01*
X76778Y3292D01*
X76786Y3286D01*
X76792Y3278D01*
X76796Y3269D01*
X76799Y3260D01*
X76800Y3250D01*
Y2700D01*
X77100D01*
X77110Y2699D01*
X77119Y2696D01*
X77128Y2692D01*
X77136Y2686D01*
X77142Y2678D01*
X77146Y2669D01*
X77149Y2660D01*
X77150Y2650D01*
Y1950D01*
X77149Y1940D01*
X77146Y1931D01*
X77142Y1922D01*
X77136Y1914D01*
X77128Y1908D01*
X77119Y1904D01*
X77110Y1901D01*
X77100Y1900D01*
X76000D01*
X75990Y1901D01*
X75981Y1904D01*
X75972Y1908D01*
X75964Y1914D01*
X75958Y1922D01*
X75954Y1931D01*
X75951Y1940D01*
X75950Y1950D01*
Y3250D01*
X75951Y3260D01*
X75954Y3269D01*
X75958Y3278D01*
X75964Y3286D01*
X75972Y3292D01*
X75981Y3296D01*
X75990Y3299D01*
X76000Y3300D01*
X76750D01*
X76760Y3299D01*
D02*
G37*
G36*
X81310D02*
X81319Y3296D01*
X81328Y3292D01*
X81336Y3286D01*
X81342Y3278D01*
X81346Y3269D01*
X81349Y3260D01*
X81350Y3250D01*
Y1950D01*
X81349Y1940D01*
X81346Y1931D01*
X81342Y1922D01*
X81336Y1914D01*
X81328Y1908D01*
X81319Y1904D01*
X81310Y1901D01*
X81300Y1900D01*
X80200D01*
X80190Y1901D01*
X80181Y1904D01*
X80172Y1908D01*
X80164Y1914D01*
X80158Y1922D01*
X80154Y1931D01*
X80151Y1940D01*
X80150Y1950D01*
Y2650D01*
X80151Y2660D01*
X80154Y2669D01*
X80158Y2678D01*
X80164Y2686D01*
X80172Y2692D01*
X80181Y2696D01*
X80190Y2699D01*
X80200Y2700D01*
X80500D01*
Y3250D01*
X80501Y3260D01*
X80504Y3269D01*
X80508Y3278D01*
X80514Y3286D01*
X80522Y3292D01*
X80531Y3296D01*
X80540Y3299D01*
X80550Y3300D01*
X81300D01*
X81310Y3299D01*
D02*
G37*
D14*
X80400Y8500D02*
D03*
Y7000D02*
D03*
X66500Y8750D02*
D03*
Y7250D02*
D03*
X31000Y35400D02*
D03*
Y33900D02*
D03*
X32700Y35400D02*
D03*
Y33900D02*
D03*
X41300Y37050D02*
D03*
Y38550D02*
D03*
X50200Y18100D02*
D03*
Y16600D02*
D03*
Y20850D02*
D03*
Y22350D02*
D03*
X29700Y15750D02*
D03*
Y14250D02*
D03*
X27600Y15750D02*
D03*
Y14250D02*
D03*
D15*
X29950Y43400D02*
D03*
X32300D02*
D03*
D17*
X84500Y32800D02*
D03*
Y29750D02*
D03*
D19*
X50660Y42100D02*
D03*
Y39560D02*
D03*
X53200Y42100D02*
D03*
Y39560D02*
D03*
X50660Y44640D02*
D03*
X4000Y16400D02*
D03*
Y13900D02*
D03*
Y11400D02*
D03*
D20*
X53200Y44640D02*
D03*
X4000Y18900D02*
D03*
D21*
X10625Y28300D02*
D03*
Y30800D02*
D03*
Y32800D02*
D03*
Y35300D02*
D03*
D22*
X3575Y38150D02*
D03*
Y25450D02*
D03*
D23*
X15100Y36500D02*
D03*
Y34500D02*
D03*
D24*
X20500Y5200D02*
D03*
Y44000D02*
D03*
X88500Y5200D02*
D03*
Y44000D02*
D03*
X4000Y5200D02*
D03*
X4000Y44000D02*
D03*
D25*
X88000Y27040D02*
D03*
X88000Y29580D02*
D03*
Y24500D02*
D03*
Y21960D02*
D03*
Y19420D02*
D03*
Y16880D02*
D03*
D26*
Y32120D02*
D03*
D27*
X77800Y3250D02*
D03*
X79500D02*
D03*
X63950Y3300D02*
D03*
X65650D02*
D03*
X35360Y41775D02*
D03*
X41140D02*
D03*
D28*
X62000Y17750D02*
D03*
X62000Y21300D02*
D03*
X29500Y36400D02*
D03*
X34000Y36400D02*
D03*
X23700Y13700D02*
D03*
X26700Y10200D02*
D03*
D29*
X33930Y45455D02*
D03*
Y41275D02*
D03*
X42570Y45455D02*
D03*
Y41275D02*
D03*
D68*
X38250Y40701D02*
D03*
D69*
X37266Y24528D02*
D03*
X30472Y24689D02*
D03*
D70*
X33788Y21211D02*
D03*
X33950Y28006D02*
D03*
D71*
X80350Y4550D02*
D03*
X76950D02*
D03*
X66500Y4600D02*
D03*
X63100D02*
D03*
D72*
X78650Y4850D02*
D03*
X64800Y4900D02*
D03*
D73*
X39500Y40700D02*
D03*
X38500D02*
D03*
X38000D02*
D03*
X37000D02*
D03*
X40000D02*
D03*
X36500D02*
D03*
X39000D02*
D03*
X37500D02*
D03*
D74*
X35050D02*
D03*
X41450D02*
D03*
X40650D02*
D03*
X35850D02*
D03*
D75*
X28250Y39700D02*
D03*
X29750D02*
D03*
X43250Y32500D02*
D03*
X44750D02*
D03*
X11000Y22900D02*
D03*
X12500Y22900D02*
D03*
X11000Y21183D02*
D03*
X12500D02*
D03*
X11000Y19467D02*
D03*
X12500D02*
D03*
X11000Y17750D02*
D03*
X12500D02*
D03*
X11000Y16033D02*
D03*
X12500D02*
D03*
X11050Y12600D02*
D03*
X12550D02*
D03*
X11000Y14317D02*
D03*
X12500D02*
D03*
X11050Y10800D02*
D03*
X12550D02*
D03*
D76*
X36500Y38700D02*
D03*
X38500D02*
D03*
X36500Y36900D02*
D03*
X38500Y36900D02*
D03*
D77*
X35300Y34025D02*
D03*
Y35375D02*
D03*
X43250Y29325D02*
D03*
Y30675D02*
D03*
X26000Y29225D02*
D03*
Y30575D02*
D03*
X25850Y20250D02*
D03*
Y18900D02*
D03*
D78*
X44656Y27649D02*
D03*
X43306D02*
D03*
X38500Y16325D02*
D03*
X37150D02*
D03*
X45858Y21780D02*
D03*
X44508D02*
D03*
X28575Y34200D02*
D03*
X27225D02*
D03*
X28575Y32500D02*
D03*
X27225D02*
D03*
X25900Y26700D02*
D03*
X24550D02*
D03*
D79*
X43750Y25650D02*
D03*
Y23850D02*
D03*
X46050D02*
D03*
Y25650D02*
D03*
D80*
X37125Y14425D02*
D03*
X38475D02*
D03*
D81*
X28119Y28609D02*
D03*
X39619D02*
D03*
Y27809D02*
D03*
Y27009D02*
D03*
Y26209D02*
D03*
Y25409D02*
D03*
Y24609D02*
D03*
Y23809D02*
D03*
Y23009D02*
D03*
Y22209D02*
D03*
Y21409D02*
D03*
Y20609D02*
D03*
X28119D02*
D03*
Y21409D02*
D03*
Y22209D02*
D03*
Y23009D02*
D03*
Y23809D02*
D03*
X28119Y24609D02*
D03*
Y25409D02*
D03*
X28119Y26209D02*
D03*
Y27009D02*
D03*
X28119Y27809D02*
D03*
D82*
X29869Y30359D02*
D03*
D83*
X30669D02*
D03*
X31469D02*
D03*
X32269D02*
D03*
X33069D02*
D03*
X33869D02*
D03*
X34669D02*
D03*
X35469D02*
D03*
X36269D02*
D03*
X37069D02*
D03*
X37869D02*
D03*
X37869Y18859D02*
D03*
X37069D02*
D03*
X36269Y18859D02*
D03*
X35469D02*
D03*
X34669D02*
D03*
X33869D02*
D03*
X33069Y18859D02*
D03*
X32269D02*
D03*
X31469D02*
D03*
X30669D02*
D03*
X29869D02*
D03*
D84*
X33869Y24609D02*
D03*
D85*
X30469Y27109D02*
D03*
Y26609D02*
D03*
X30469Y26109D02*
D03*
Y25609D02*
D03*
Y25109D02*
D03*
Y24609D02*
D03*
X30469Y24109D02*
D03*
Y23609D02*
D03*
Y23109D02*
D03*
Y22609D02*
D03*
Y22109D02*
D03*
X37269Y22109D02*
D03*
Y22609D02*
D03*
Y23109D02*
D03*
Y23609D02*
D03*
Y24109D02*
D03*
Y24609D02*
D03*
Y25109D02*
D03*
Y25609D02*
D03*
Y26109D02*
D03*
Y26609D02*
D03*
Y27109D02*
D03*
D86*
X31369Y21209D02*
D03*
X31869D02*
D03*
X32369D02*
D03*
X32869D02*
D03*
X33369D02*
D03*
X33869D02*
D03*
X34369D02*
D03*
X34869D02*
D03*
X35369D02*
D03*
X35869Y21209D02*
D03*
X36369D02*
D03*
Y28009D02*
D03*
X35869D02*
D03*
X35369Y28009D02*
D03*
X34869D02*
D03*
X34369D02*
D03*
X33869D02*
D03*
X33369D02*
D03*
X32869D02*
D03*
X32369D02*
D03*
X31869D02*
D03*
D87*
X31369D02*
D03*
M02*
