G04*
G04 #@! TF.GenerationSoftware,Altium Limited,Altium Designer,24.2.2 (26)*
G04*
G04 Layer_Physical_Order=2*
G04 Layer_Color=16711680*
%FSLAX43Y43*%
%MOMM*%
G71*
G04*
G04 #@! TF.SameCoordinates,8CC7AA04-EDAA-4120-BC56-05CF8BE8917F*
G04*
G04*
G04 #@! TF.FilePolarity,Positive*
G04*
G01*
G75*
%ADD10C,0.250*%
%ADD30R,1.000X0.700*%
%ADD31R,0.600X0.800*%
G04:AMPARAMS|DCode=33|XSize=1.8mm|YSize=1.05mm|CornerRadius=0.263mm|HoleSize=0mm|Usage=FLASHONLY|Rotation=180.000|XOffset=0mm|YOffset=0mm|HoleType=Round|Shape=RoundedRectangle|*
%AMROUNDEDRECTD33*
21,1,1.800,0.525,0,0,180.0*
21,1,1.275,1.050,0,0,180.0*
1,1,0.525,-0.638,0.263*
1,1,0.525,0.638,0.263*
1,1,0.525,0.638,-0.263*
1,1,0.525,-0.638,-0.263*
%
%ADD33ROUNDEDRECTD33*%
%ADD35C,0.500*%
%ADD36C,1.600*%
%ADD37R,1.600X1.600*%
G04:AMPARAMS|DCode=38|XSize=1.7mm|YSize=4mm|CornerRadius=0.425mm|HoleSize=0mm|Usage=FLASHONLY|Rotation=270.000|XOffset=0mm|YOffset=0mm|HoleType=Round|Shape=RoundedRectangle|*
%AMROUNDEDRECTD38*
21,1,1.700,3.150,0,0,270.0*
21,1,0.850,4.000,0,0,270.0*
1,1,0.850,-1.575,-0.425*
1,1,0.850,-1.575,0.425*
1,1,0.850,1.575,0.425*
1,1,0.850,1.575,-0.425*
%
%ADD38ROUNDEDRECTD38*%
G04:AMPARAMS|DCode=39|XSize=4mm|YSize=3mm|CornerRadius=0.75mm|HoleSize=0mm|Usage=FLASHONLY|Rotation=0.000|XOffset=0mm|YOffset=0mm|HoleType=Round|Shape=RoundedRectangle|*
%AMROUNDEDRECTD39*
21,1,4.000,1.500,0,0,0.0*
21,1,2.500,3.000,0,0,0.0*
1,1,1.500,1.250,-0.750*
1,1,1.500,-1.250,-0.750*
1,1,1.500,-1.250,0.750*
1,1,1.500,1.250,0.750*
%
%ADD39ROUNDEDRECTD39*%
%ADD40C,1.524*%
%ADD41C,6.000*%
%ADD42C,1.900*%
%ADD43R,1.900X1.900*%
%ADD44C,1.000*%
%ADD45O,1.000X1.800*%
%ADD46C,0.600*%
%ADD47C,0.250*%
%AMCUSTOMSHAPE48*
4,1,6,-1.100,0.000,-1.100,1.300,-0.350,1.300,-0.350,0.700,0.000,0.700,0.000,0.000,-1.100,0.000,0.0*%
%ADD48CUSTOMSHAPE48*%

%AMCUSTOMSHAPE49*
4,1,6,1.100,0.000,1.100,1.300,0.350,1.300,0.350,0.700,0.000,0.700,0.000,0.000,1.100,0.000,0.0*%
%ADD49CUSTOMSHAPE49*%

%ADD50R,0.700X1.200*%
%ADD51R,1.300X1.000*%
%ADD52R,0.300X1.150*%
%ADD53R,0.600X1.150*%
%ADD54R,0.700X1.000*%
%ADD55R,1.000X1.000*%
G04:AMPARAMS|DCode=56|XSize=0.95mm|YSize=0.85mm|CornerRadius=0.213mm|HoleSize=0mm|Usage=FLASHONLY|Rotation=180.000|XOffset=0mm|YOffset=0mm|HoleType=Round|Shape=RoundedRectangle|*
%AMROUNDEDRECTD56*
21,1,0.950,0.425,0,0,180.0*
21,1,0.525,0.850,0,0,180.0*
1,1,0.425,-0.263,0.213*
1,1,0.425,0.263,0.213*
1,1,0.425,0.263,-0.213*
1,1,0.425,-0.263,-0.213*
%
%ADD56ROUNDEDRECTD56*%
G04:AMPARAMS|DCode=57|XSize=0.95mm|YSize=0.85mm|CornerRadius=0.213mm|HoleSize=0mm|Usage=FLASHONLY|Rotation=270.000|XOffset=0mm|YOffset=0mm|HoleType=Round|Shape=RoundedRectangle|*
%AMROUNDEDRECTD57*
21,1,0.950,0.425,0,0,270.0*
21,1,0.525,0.850,0,0,270.0*
1,1,0.425,-0.213,-0.263*
1,1,0.425,-0.213,0.263*
1,1,0.425,0.213,0.263*
1,1,0.425,0.213,-0.263*
%
%ADD57ROUNDEDRECTD57*%
%ADD58R,1.300X1.100*%
%ADD59R,0.850X0.950*%
%ADD60R,1.500X0.500*%
%ADD61O,0.500X1.500*%
%ADD62R,0.500X1.500*%
%ADD63R,5.000X5.000*%
%ADD64R,0.900X0.300*%
%ADD65R,0.300X0.900*%
%ADD66O,0.300X0.900*%
%ADD67C,0.300*%
G36*
X29653Y43003D02*
X29648Y43031D01*
X29633Y43056D01*
X29608Y43078D01*
X29573Y43097D01*
X29528Y43113D01*
X29473Y43126D01*
X29408Y43137D01*
X29333Y43144D01*
X29153Y43150D01*
Y43650D01*
X29248Y43651D01*
X29408Y43663D01*
X29473Y43674D01*
X29528Y43687D01*
X29573Y43703D01*
X29608Y43722D01*
X29633Y43744D01*
X29648Y43769D01*
X29653Y43797D01*
Y43003D01*
D02*
G37*
G36*
X49906Y41832D02*
X49892Y41859D01*
X49870Y41883D01*
X49839Y41905D01*
X49801Y41923D01*
X49754Y41939D01*
X49700Y41952D01*
X49637Y41962D01*
X49566Y41969D01*
X49400Y41975D01*
Y42225D01*
X49487Y42226D01*
X49637Y42238D01*
X49700Y42248D01*
X49754Y42261D01*
X49801Y42277D01*
X49839Y42295D01*
X49870Y42317D01*
X49892Y42341D01*
X49906Y42368D01*
Y41832D01*
D02*
G37*
G36*
X41000Y42900D02*
Y42339D01*
X40814Y42262D01*
X40653Y42101D01*
X40565Y41889D01*
Y41661D01*
X40598Y41581D01*
X40528Y41475D01*
X40225D01*
X39800Y41900D01*
X39069D01*
X39034Y41934D01*
X38927Y42006D01*
X38800Y42031D01*
X38146D01*
X38020Y42006D01*
X37912Y41934D01*
X37878Y41900D01*
X36700D01*
X36275Y41475D01*
X35972D01*
X35902Y41581D01*
X35935Y41661D01*
Y41889D01*
X35847Y42101D01*
X35686Y42262D01*
X35474Y42350D01*
X35246D01*
X35178Y42322D01*
X34900Y42600D01*
X31800D01*
Y42800D01*
X32135D01*
Y43400D01*
Y44000D01*
X31800D01*
Y44200D01*
X39700D01*
X41000Y42900D01*
D02*
G37*
G36*
X39100Y41474D02*
X39108Y41362D01*
X39112Y41334D01*
X39117Y41312D01*
X39123Y41294D01*
X39130Y41282D01*
X39138Y41274D01*
X39147Y41272D01*
X38853D01*
X38852Y41274D01*
X38852Y41282D01*
X38850Y41394D01*
X38850Y41522D01*
X39100D01*
X39100Y41474D01*
D02*
G37*
G36*
X38125D02*
X38136Y41294D01*
X38139Y41282D01*
X38143Y41274D01*
X38147Y41272D01*
X37853D01*
X37857Y41274D01*
X37861Y41282D01*
X37864Y41294D01*
X37867Y41312D01*
X37870Y41334D01*
X37874Y41432D01*
X37875Y41522D01*
X38125D01*
X38125Y41474D01*
D02*
G37*
G36*
X40601Y41416D02*
X40605Y41358D01*
X40609Y41334D01*
X40613Y41314D01*
X40619Y41298D01*
X40626Y41285D01*
X40634Y41276D01*
X40643Y41271D01*
X40653Y41269D01*
X40353Y41272D01*
X40352Y41274D01*
X40352Y41279D01*
X40351Y41300D01*
X40350Y41450D01*
X40600D01*
X40601Y41416D01*
D02*
G37*
G36*
X36147Y41272D02*
X35847Y41269D01*
X35857Y41271D01*
X35866Y41276D01*
X35874Y41285D01*
X35881Y41298D01*
X35887Y41314D01*
X35891Y41334D01*
X35895Y41358D01*
X35898Y41385D01*
X35900Y41450D01*
X36150D01*
X36147Y41272D01*
D02*
G37*
G36*
X53192Y41300D02*
X53071Y41296D01*
X52951Y41281D01*
X52833Y41255D01*
X52717Y41219D01*
X52602Y41172D01*
X52489Y41114D01*
X52377Y41045D01*
X52267Y40965D01*
X52158Y40875D01*
X52051Y40774D01*
X51874Y40951D01*
X51975Y41058D01*
X52065Y41167D01*
X52145Y41277D01*
X52214Y41389D01*
X52272Y41502D01*
X52319Y41617D01*
X52355Y41733D01*
X52381Y41851D01*
X52396Y41971D01*
X52400Y42092D01*
X53192Y41300D01*
D02*
G37*
G36*
X40143Y40126D02*
X40139Y40118D01*
X40136Y40106D01*
X40133Y40088D01*
X40130Y40066D01*
X40126Y39968D01*
X40125Y39878D01*
X39875D01*
X39875Y39926D01*
X39864Y40106D01*
X39861Y40118D01*
X39857Y40126D01*
X39853Y40128D01*
X40147D01*
X40143Y40126D01*
D02*
G37*
G36*
X39143D02*
X39139Y40118D01*
X39136Y40106D01*
X39133Y40088D01*
X39130Y40066D01*
X39126Y39968D01*
X39125Y39878D01*
X38875D01*
X38875Y39926D01*
X38864Y40106D01*
X38861Y40118D01*
X38857Y40126D01*
X38853Y40128D01*
X39147D01*
X39143Y40126D01*
D02*
G37*
G36*
X38643D02*
X38639Y40118D01*
X38636Y40106D01*
X38633Y40088D01*
X38630Y40066D01*
X38626Y39968D01*
X38625Y39878D01*
X38375D01*
X38375Y39926D01*
X38364Y40106D01*
X38361Y40118D01*
X38357Y40126D01*
X38353Y40128D01*
X38647D01*
X38643Y40126D01*
D02*
G37*
G36*
X37643D02*
X37639Y40118D01*
X37636Y40106D01*
X37633Y40088D01*
X37630Y40066D01*
X37626Y39968D01*
X37625Y39878D01*
X37375D01*
X37375Y39926D01*
X37364Y40106D01*
X37361Y40118D01*
X37357Y40126D01*
X37353Y40128D01*
X37647D01*
X37643Y40126D01*
D02*
G37*
G36*
X37138D02*
X37130Y40118D01*
X37123Y40106D01*
X37117Y40088D01*
X37112Y40066D01*
X37108Y40038D01*
X37102Y39968D01*
X37100Y39878D01*
X36850D01*
X36853Y40128D01*
X37147D01*
X37138Y40126D01*
D02*
G37*
G36*
X30096Y39926D02*
X30104Y39905D01*
X30117Y39886D01*
X30134Y39870D01*
X30157Y39856D01*
X30185Y39845D01*
X30218Y39836D01*
X30256Y39830D01*
X30299Y39826D01*
X30347Y39825D01*
Y39575D01*
X30299Y39574D01*
X30256Y39570D01*
X30218Y39564D01*
X30185Y39555D01*
X30157Y39544D01*
X30134Y39530D01*
X30117Y39514D01*
X30104Y39495D01*
X30096Y39474D01*
X30094Y39450D01*
Y39950D01*
X30096Y39926D01*
D02*
G37*
G36*
X50056Y39035D02*
X49983Y39111D01*
X49901Y39179D01*
X49812Y39239D01*
X49714Y39291D01*
X49608Y39335D01*
X49495Y39371D01*
X49373Y39399D01*
X49243Y39419D01*
X49106Y39431D01*
X48960Y39435D01*
Y39685D01*
X49106Y39689D01*
X49243Y39701D01*
X49373Y39721D01*
X49495Y39749D01*
X49608Y39785D01*
X49714Y39829D01*
X49812Y39881D01*
X49901Y39941D01*
X49983Y40009D01*
X50056Y40085D01*
Y39035D01*
D02*
G37*
G36*
X40854Y39024D02*
X40946Y38946D01*
X40987Y38918D01*
X41024Y38897D01*
X41058Y38883D01*
X41088Y38876D01*
X41114D01*
X41137Y38883D01*
X41157Y38897D01*
X40803Y38543D01*
X40817Y38563D01*
X40824Y38586D01*
Y38612D01*
X40817Y38642D01*
X40803Y38676D01*
X40782Y38713D01*
X40754Y38754D01*
X40718Y38798D01*
X40626Y38897D01*
X40803Y39074D01*
X40854Y39024D01*
D02*
G37*
G36*
X19854Y47745D02*
X19886Y47345D01*
X19704Y47316D01*
X19195Y47151D01*
X18718Y46908D01*
X18285Y46593D01*
X17907Y46215D01*
X17592Y45782D01*
X17349Y45305D01*
X17184Y44796D01*
X17100Y44268D01*
Y43732D01*
X17184Y43204D01*
X17349Y42695D01*
X17592Y42218D01*
X17907Y41785D01*
X18285Y41407D01*
X18718Y41092D01*
X19195Y40849D01*
X19704Y40684D01*
X20232Y40600D01*
X20768D01*
X21296Y40684D01*
X21805Y40849D01*
X22282Y41092D01*
X22715Y41407D01*
X23093Y41785D01*
X23408Y42218D01*
X23651Y42695D01*
X23816Y43204D01*
X23900Y43732D01*
Y44268D01*
X23816Y44796D01*
X23651Y45305D01*
X23408Y45782D01*
X23093Y46215D01*
X22715Y46593D01*
X22282Y46908D01*
X21805Y47151D01*
X21296Y47316D01*
X21114Y47345D01*
X21146Y47745D01*
X87854Y47745D01*
X87886Y47345D01*
X87704Y47316D01*
X87195Y47151D01*
X86718Y46908D01*
X86285Y46593D01*
X85907Y46215D01*
X85592Y45782D01*
X85349Y45305D01*
X85184Y44796D01*
X85100Y44268D01*
Y43732D01*
X85184Y43204D01*
X85349Y42695D01*
X85592Y42218D01*
X85907Y41785D01*
X86285Y41407D01*
X86718Y41092D01*
X87195Y40849D01*
X87704Y40684D01*
X88232Y40600D01*
X88768D01*
X89296Y40684D01*
X89805Y40849D01*
X90282Y41092D01*
X90715Y41407D01*
X91093Y41785D01*
X91408Y42218D01*
X91651Y42695D01*
X91816Y43204D01*
X91845Y43386D01*
X92245Y43354D01*
X92245Y5846D01*
X91845Y5814D01*
X91816Y5996D01*
X91651Y6505D01*
X91408Y6982D01*
X91093Y7415D01*
X90715Y7793D01*
X90282Y8108D01*
X89805Y8351D01*
X89296Y8516D01*
X88768Y8600D01*
X88232D01*
X87704Y8516D01*
X87195Y8351D01*
X86718Y8108D01*
X86285Y7793D01*
X85907Y7415D01*
X85592Y6982D01*
X85349Y6505D01*
X85184Y5996D01*
X85100Y5468D01*
Y4932D01*
X85184Y4404D01*
X85349Y3895D01*
X85592Y3418D01*
X85907Y2985D01*
X86285Y2607D01*
X86718Y2292D01*
X87195Y2049D01*
X87704Y1884D01*
X87886Y1855D01*
X87854Y1455D01*
X81931D01*
X81773Y1666D01*
X81689Y1855D01*
X81708Y1950D01*
Y3250D01*
X81677Y3406D01*
X81588Y3538D01*
X81456Y3627D01*
X81300Y3658D01*
X81100D01*
Y5550D01*
X80885D01*
Y6250D01*
X81300D01*
X81300Y7576D01*
X81524Y7761D01*
X81616Y7812D01*
X81700Y7829D01*
X81808Y7800D01*
X81992D01*
X82170Y7848D01*
X82330Y7940D01*
X82460Y8070D01*
X82552Y8230D01*
X82600Y8408D01*
Y8592D01*
X82552Y8770D01*
X82460Y8930D01*
X82330Y9060D01*
X82170Y9152D01*
X81992Y9200D01*
X81808D01*
X81700Y9171D01*
X81300Y9250D01*
X80935Y9335D01*
Y11178D01*
X81688Y11931D01*
X81691Y11933D01*
X81703Y11942D01*
X81715Y11948D01*
X81726Y11954D01*
X81738Y11958D01*
X81751Y11962D01*
X81765Y11964D01*
X81769Y11965D01*
X88000D01*
X88205Y12005D01*
X88379Y12122D01*
X91379Y15122D01*
X91495Y15295D01*
X91535Y15500D01*
Y28250D01*
X91495Y28455D01*
X91379Y28628D01*
X90049Y29958D01*
X89875Y30075D01*
X89670Y30115D01*
X89567D01*
X89561Y30115D01*
X89465Y30123D01*
X89384Y30134D01*
X89318Y30148D01*
X89269Y30163D01*
X89236Y30177D01*
X89218Y30187D01*
X89214Y30190D01*
X89200Y30213D01*
X89182Y30232D01*
X89080Y30409D01*
X89019Y30470D01*
X89185Y30870D01*
X89250D01*
Y31570D01*
X88000D01*
X86750D01*
Y31158D01*
X85450D01*
X85450Y31831D01*
X85454Y31904D01*
X85504Y32253D01*
X85573Y32357D01*
X85576Y32370D01*
X83424D01*
X83427Y32357D01*
X83496Y32253D01*
X83546Y31904D01*
X83550Y31831D01*
Y31774D01*
X83180Y31621D01*
X83013Y31788D01*
X82881Y31877D01*
X82725Y31908D01*
X82725Y31908D01*
X78250D01*
X78094Y31877D01*
X77962Y31788D01*
X77873Y31656D01*
X77842Y31500D01*
Y27750D01*
X77873Y27594D01*
X77962Y27462D01*
X78094Y27373D01*
X78250Y27342D01*
X80463D01*
X80616Y26973D01*
X74078Y20435D01*
X62974D01*
X62875Y20557D01*
X62771Y20835D01*
X62839Y20953D01*
X62900Y21182D01*
Y21418D01*
X62839Y21647D01*
X62720Y21853D01*
X62553Y22020D01*
X62347Y22139D01*
X62118Y22200D01*
X61882D01*
X61653Y22139D01*
X61447Y22020D01*
X61280Y21853D01*
X61161Y21647D01*
X61100Y21418D01*
Y21182D01*
X61161Y20953D01*
X61229Y20835D01*
X61125Y20557D01*
X61026Y20435D01*
X51100D01*
Y21200D01*
X51100Y21600D01*
X51100Y22000D01*
Y23100D01*
X51100D01*
X50900Y23308D01*
Y23492D01*
X50852Y23670D01*
X50760Y23830D01*
X50630Y23960D01*
X50470Y24052D01*
X50292Y24100D01*
X50108D01*
X49930Y24052D01*
X49770Y23960D01*
X49640Y23830D01*
X49548Y23670D01*
X49500Y23492D01*
Y23308D01*
X49300Y23100D01*
X49300D01*
Y22000D01*
X49300Y21600D01*
X49300Y21200D01*
Y20435D01*
X45240D01*
X45113Y20601D01*
X45162Y21076D01*
X45348Y21220D01*
X45484Y21129D01*
X45484Y21129D01*
X45558Y21114D01*
Y21780D01*
X45858D01*
Y22080D01*
X46483D01*
X46459Y22204D01*
X46368Y22340D01*
X46231Y22431D01*
X46223Y22841D01*
X46258Y22900D01*
X47100D01*
Y24700D01*
Y26600D01*
X45078D01*
X45029Y26998D01*
X45166Y27089D01*
X45257Y27226D01*
X45281Y27349D01*
X44656D01*
Y27949D01*
X45281D01*
X45257Y28073D01*
X45166Y28209D01*
X45082Y28627D01*
X45093Y28695D01*
X45142Y28764D01*
X45825D01*
X46040Y28807D01*
X46222Y28928D01*
X46897Y29603D01*
X47018Y29785D01*
X47061Y30000D01*
Y32250D01*
X47018Y32465D01*
X46897Y32647D01*
X46647Y32897D01*
X46465Y33018D01*
X46250Y33061D01*
X45500D01*
Y33400D01*
X44108D01*
X44022Y33521D01*
X43973Y33647D01*
X43957Y33800D01*
X49173Y39016D01*
X49195Y39014D01*
X49296Y38998D01*
X49387Y38977D01*
X49468Y38952D01*
X49539Y38922D01*
X49602Y38889D01*
X49657Y38852D01*
X49705Y38812D01*
X49763Y38751D01*
X49766Y38749D01*
X49768Y38747D01*
X49793Y38730D01*
X49923Y38600D01*
X50197Y38442D01*
X50502Y38360D01*
X50818D01*
X51123Y38442D01*
X51397Y38600D01*
X51620Y38823D01*
X51709Y38976D01*
X51780Y38999D01*
X52080D01*
X52151Y38976D01*
X52240Y38823D01*
X52463Y38600D01*
X52737Y38442D01*
X53042Y38360D01*
X53358D01*
X53663Y38442D01*
X53937Y38600D01*
X54160Y38823D01*
X54318Y39097D01*
X54400Y39402D01*
Y39718D01*
X54318Y40023D01*
X54160Y40297D01*
X53937Y40520D01*
X53784Y40609D01*
X53761Y40680D01*
Y40980D01*
X53784Y41051D01*
X53937Y41140D01*
X54160Y41363D01*
X54318Y41637D01*
X54400Y41942D01*
Y42258D01*
X54318Y42563D01*
X54160Y42837D01*
X53937Y43060D01*
X53799Y43140D01*
X53906Y43540D01*
X54300D01*
Y44240D01*
X53200D01*
Y44640D01*
X52800D01*
Y45740D01*
X52100D01*
Y45346D01*
X51700Y45239D01*
X51620Y45377D01*
X51397Y45600D01*
X51123Y45758D01*
X50818Y45840D01*
X50502D01*
X50197Y45758D01*
X49923Y45600D01*
X49700Y45377D01*
X49542Y45103D01*
X49460Y44798D01*
Y44482D01*
X49542Y44177D01*
X49700Y43903D01*
X49923Y43680D01*
X50076Y43591D01*
X50099Y43520D01*
Y43220D01*
X50076Y43149D01*
X49923Y43060D01*
X49700Y42837D01*
X49588Y42643D01*
X49485Y42635D01*
X49400D01*
X49195Y42595D01*
X49021Y42479D01*
X42578Y36035D01*
X39844D01*
X39783Y36110D01*
X39679Y36521D01*
X40200Y37043D01*
X40508Y36957D01*
X40600Y36892D01*
Y36500D01*
X41070D01*
Y37050D01*
X41300D01*
Y37280D01*
X42000D01*
X42000Y37483D01*
X42200Y37800D01*
X42200Y37917D01*
Y39300D01*
X41512D01*
X41463Y39372D01*
X41394Y39587D01*
X41573Y39925D01*
X41950D01*
X41950Y39925D01*
X42270Y40065D01*
Y41275D01*
Y42417D01*
X42167Y42374D01*
X42116Y42335D01*
X41899Y42272D01*
X41585Y42355D01*
X41420Y42451D01*
X41408Y42454D01*
Y42900D01*
X41408Y42900D01*
X41377Y43056D01*
X41288Y43188D01*
X39988Y44488D01*
X39856Y44577D01*
X39700Y44608D01*
X39700Y44608D01*
X35044D01*
X34957Y44669D01*
X34731Y45008D01*
X34737Y45055D01*
Y45155D01*
X33930D01*
X33123D01*
Y45055D01*
X33129Y45008D01*
X32903Y44669D01*
X32816Y44608D01*
X31800D01*
X31644Y44577D01*
X31512Y44488D01*
X31423Y44356D01*
X31392Y44200D01*
Y44000D01*
X31423Y43844D01*
X31512Y43712D01*
X31600Y43653D01*
Y43147D01*
X31512Y43088D01*
X31423Y42956D01*
X31392Y42800D01*
Y42600D01*
X31423Y42444D01*
X31512Y42312D01*
X31644Y42223D01*
X31800Y42192D01*
X32845D01*
X32986Y42050D01*
X33139Y41792D01*
X33123Y41675D01*
Y41575D01*
X33930D01*
Y40975D01*
X33123D01*
Y40875D01*
X33151Y40666D01*
X33163Y40635D01*
X32967Y40276D01*
X32912Y40235D01*
X30500D01*
Y40600D01*
X29117D01*
X29000Y40600D01*
X28683Y40400D01*
X28600Y40400D01*
X28480D01*
Y39700D01*
X28250D01*
Y39470D01*
X27906D01*
Y39450D01*
X27904Y39470D01*
X27700D01*
Y39035D01*
X27700Y39000D01*
X27615Y38635D01*
X24500D01*
X24295Y38595D01*
X24122Y38479D01*
X18278Y32635D01*
X15422D01*
X15119Y32938D01*
X15226Y33257D01*
X15278Y33345D01*
X15549Y33417D01*
X15813Y33570D01*
X15891Y33647D01*
X15914Y33661D01*
X15955Y33697D01*
X15985Y33717D01*
X16028Y33739D01*
X16086Y33762D01*
X16159Y33784D01*
X16246Y33804D01*
X16343Y33819D01*
X16597Y33840D01*
X16742Y33842D01*
X16752Y33844D01*
X18100D01*
X18270Y33867D01*
X18428Y33932D01*
X18564Y34036D01*
X27272Y42744D01*
X29131D01*
X29140Y42742D01*
X29250Y42739D01*
Y42600D01*
X29629D01*
X29653Y42595D01*
X29677Y42600D01*
X30650D01*
Y44200D01*
X29677D01*
X29653Y44205D01*
X29629Y44200D01*
X29250D01*
Y44061D01*
X29230Y44059D01*
X29147Y44058D01*
X29137Y44056D01*
X27000D01*
X26830Y44033D01*
X26672Y43968D01*
X26536Y43864D01*
X17828Y35156D01*
X16758D01*
X16749Y35158D01*
X16460Y35168D01*
X16348Y35180D01*
X16246Y35196D01*
X16159Y35216D01*
X16086Y35238D01*
X16028Y35261D01*
X15985Y35283D01*
X15955Y35303D01*
X15953Y35305D01*
X15911Y35377D01*
X15902Y35402D01*
X15892Y35450D01*
X15896Y35716D01*
X15928Y35826D01*
X15950Y35848D01*
X16090Y36090D01*
X16092Y36100D01*
X14108D01*
X14110Y36090D01*
X14250Y35848D01*
X14272Y35826D01*
X14366Y35501D01*
X14256Y35299D01*
X14170Y35213D01*
X14017Y34949D01*
X13938Y34653D01*
Y34347D01*
X14017Y34051D01*
X14170Y33787D01*
X14221Y33735D01*
X14056Y33335D01*
X13018D01*
X13004Y33440D01*
X12921Y33641D01*
X12792Y33808D01*
X12785Y33820D01*
X12784Y33822D01*
Y34278D01*
X12785Y34280D01*
X12792Y34292D01*
X12921Y34459D01*
X13004Y34660D01*
X13032Y34875D01*
Y35725D01*
X13004Y35940D01*
X12921Y36141D01*
X12788Y36313D01*
X12616Y36446D01*
X12415Y36529D01*
X12200Y36557D01*
X9050D01*
X8835Y36529D01*
X8634Y36446D01*
X8462Y36313D01*
X8329Y36141D01*
X8246Y35940D01*
X8218Y35725D01*
Y34875D01*
X8246Y34660D01*
X8329Y34459D01*
X8458Y34292D01*
X8465Y34280D01*
X8466Y34278D01*
Y33822D01*
X8465Y33820D01*
X8458Y33808D01*
X8329Y33641D01*
X8246Y33440D01*
X8218Y33225D01*
Y32375D01*
X8246Y32160D01*
X8329Y31959D01*
X8451Y31800D01*
X8329Y31641D01*
X8246Y31440D01*
X8218Y31225D01*
Y30375D01*
X8246Y30160D01*
X8329Y29959D01*
X8462Y29787D01*
X8536Y29730D01*
X8567Y29653D01*
X8581Y29401D01*
X8551Y29256D01*
X8533Y29242D01*
X8417Y29091D01*
X8344Y28914D01*
X8329Y28800D01*
X10625D01*
X12921D01*
X12906Y28914D01*
X12833Y29091D01*
X12717Y29242D01*
X12699Y29256D01*
X12669Y29401D01*
X12683Y29653D01*
X12714Y29730D01*
X12788Y29787D01*
X12921Y29959D01*
X13004Y30160D01*
X13018Y30265D01*
X14400D01*
X14605Y30305D01*
X14778Y30421D01*
X15422Y31065D01*
X18278D01*
X18311Y31049D01*
X18592Y30750D01*
X18592Y30750D01*
Y25944D01*
X17109D01*
X16904Y25903D01*
X16730Y25787D01*
X14506Y23563D01*
X14367Y23600D01*
X14183D01*
X14005Y23552D01*
X13845Y23460D01*
X13831Y23446D01*
X13819Y23444D01*
X13711Y23435D01*
X13250D01*
Y23800D01*
X11867D01*
X11750Y23800D01*
X11433Y23600D01*
X11350Y23600D01*
X11230D01*
Y22900D01*
X11000D01*
Y22670D01*
X10450D01*
Y22283D01*
X10450Y21883D01*
X10450Y21800D01*
Y21413D01*
X11000D01*
Y20953D01*
X10450D01*
Y20567D01*
X10450Y20483D01*
Y20167D01*
X10450Y20083D01*
Y19697D01*
X11000D01*
Y19237D01*
X10450D01*
Y18850D01*
X10450Y18767D01*
Y18450D01*
X10450Y18367D01*
Y17980D01*
X11000D01*
Y17520D01*
X10450D01*
X10450Y17250D01*
X10250Y16933D01*
Y16933D01*
X9967Y16650D01*
X9741D01*
X9537Y16610D01*
X9363Y16493D01*
X9005Y16135D01*
X5333D01*
X5298Y16175D01*
X5262Y16223D01*
X5234Y16266D01*
X5215Y16300D01*
X5206Y16321D01*
X5205Y16323D01*
X5205Y16333D01*
X5200Y16357D01*
Y16558D01*
X5118Y16863D01*
X4960Y17137D01*
X4797Y17300D01*
X4850Y17547D01*
X4942Y17700D01*
X5200D01*
Y20100D01*
X2800D01*
Y17700D01*
X3058D01*
X3150Y17547D01*
X3203Y17300D01*
X3040Y17137D01*
X2882Y16863D01*
X2800Y16558D01*
Y16242D01*
X2882Y15937D01*
X3040Y15663D01*
X3263Y15440D01*
X3383Y15371D01*
Y14929D01*
X3263Y14860D01*
X3040Y14637D01*
X2882Y14363D01*
X2800Y14058D01*
Y13742D01*
X2882Y13437D01*
X3040Y13163D01*
X3263Y12940D01*
X3481Y12814D01*
X3523Y12643D01*
X3495Y12379D01*
X3325Y12280D01*
X3120Y12075D01*
X2975Y11825D01*
X2968Y11800D01*
X4000D01*
X5032D01*
X5025Y11825D01*
X4880Y12075D01*
X4675Y12280D01*
X4505Y12379D01*
X4477Y12643D01*
X4519Y12814D01*
X4737Y12940D01*
X4960Y13163D01*
X5118Y13437D01*
X5200Y13742D01*
Y14058D01*
X5188Y14104D01*
X5188Y14112D01*
X5187Y14126D01*
X5433Y14465D01*
X8978D01*
X9457Y13986D01*
X9630Y13870D01*
X9835Y13830D01*
X10250D01*
Y13417D01*
X9975Y13130D01*
X9795Y13095D01*
X9622Y12979D01*
X8678Y12035D01*
X8440D01*
X8437Y12035D01*
X8360Y12043D01*
X8344Y12046D01*
X8330Y12060D01*
X8170Y12152D01*
X7992Y12200D01*
X7808D01*
X7630Y12152D01*
X7470Y12060D01*
X7340Y11930D01*
X7248Y11770D01*
X7200Y11592D01*
Y11408D01*
X7248Y11230D01*
X7340Y11070D01*
X7470Y10940D01*
X7630Y10848D01*
X7808Y10800D01*
X7992D01*
X8170Y10848D01*
X8330Y10940D01*
X8344Y10954D01*
X8356Y10956D01*
X8464Y10965D01*
X8900D01*
X9105Y11005D01*
X9278Y11122D01*
X9900Y11743D01*
X10010Y11731D01*
X10300Y11577D01*
X10300Y11300D01*
Y9900D01*
X10300D01*
X10365Y9500D01*
X10348Y9470D01*
X10300Y9292D01*
Y9108D01*
X10348Y8930D01*
X10440Y8770D01*
X10570Y8640D01*
X10730Y8548D01*
X10908Y8500D01*
X11092D01*
X11270Y8548D01*
X11430Y8640D01*
X11560Y8770D01*
X11652Y8930D01*
X11700Y9108D01*
Y9292D01*
X11652Y9470D01*
X11635Y9500D01*
X11751Y9783D01*
X11896Y9900D01*
X12200Y9900D01*
X13300D01*
Y11300D01*
X13300Y11700D01*
X13300D01*
Y11700D01*
X13300D01*
Y13500D01*
X13250D01*
Y14359D01*
X13253Y14361D01*
X13357Y14465D01*
X17678D01*
X21021Y11122D01*
X21195Y11005D01*
X21400Y10965D01*
X25649D01*
X25871Y10565D01*
X25861Y10547D01*
X25800Y10318D01*
Y10082D01*
X25861Y9853D01*
X25980Y9647D01*
X26147Y9480D01*
X26353Y9361D01*
X26582Y9300D01*
X26818D01*
X27047Y9361D01*
X27253Y9480D01*
X27420Y9647D01*
X27539Y9853D01*
X27600Y10082D01*
Y10318D01*
X27539Y10547D01*
X27529Y10565D01*
X27751Y10965D01*
X40300D01*
X40505Y11005D01*
X40679Y11122D01*
X43578Y14021D01*
X43695Y14195D01*
X43735Y14400D01*
Y18685D01*
X43960Y18778D01*
X44135Y18812D01*
X44295Y18705D01*
X44500Y18665D01*
X49300D01*
Y17750D01*
X49300Y17350D01*
X49300Y16950D01*
Y15850D01*
X49379D01*
X49500Y15692D01*
Y15508D01*
X49548Y15330D01*
X49640Y15170D01*
X49770Y15040D01*
X49930Y14948D01*
X50108Y14900D01*
X50292D01*
X50470Y14948D01*
X50630Y15040D01*
X50760Y15170D01*
X50852Y15330D01*
X50900Y15508D01*
Y15692D01*
X51021Y15850D01*
X51100D01*
Y16950D01*
X51100Y17350D01*
X51100Y17750D01*
Y18665D01*
X61053D01*
X61055Y18664D01*
X61072Y18657D01*
X61155Y18575D01*
X61195Y18488D01*
X61258Y18265D01*
X61161Y18097D01*
X61100Y17868D01*
Y17632D01*
X61161Y17403D01*
X61280Y17197D01*
X61447Y17030D01*
X61653Y16911D01*
X61882Y16850D01*
X62118D01*
X62347Y16911D01*
X62553Y17030D01*
X62720Y17197D01*
X62839Y17403D01*
X62900Y17632D01*
Y17868D01*
X62839Y18097D01*
X62742Y18265D01*
X62805Y18488D01*
X62845Y18575D01*
X62928Y18657D01*
X62945Y18664D01*
X62947Y18665D01*
X74900D01*
X75105Y18705D01*
X75279Y18822D01*
X80522Y24065D01*
X85980D01*
X86058Y24062D01*
X86194Y24048D01*
X86319Y24026D01*
X86433Y23995D01*
X86537Y23957D01*
X86631Y23912D01*
X86717Y23860D01*
X86796Y23801D01*
X86868Y23733D01*
X86914Y23680D01*
X86920Y23671D01*
X86942Y23648D01*
X86949Y23641D01*
X86952Y23638D01*
X87119Y23472D01*
X87148Y23230D01*
X87119Y22988D01*
X86920Y22789D01*
X86742Y22481D01*
X86650Y22138D01*
Y21782D01*
X86742Y21439D01*
X86920Y21131D01*
X87171Y20880D01*
X87200Y20863D01*
X87231Y20443D01*
X87208Y20396D01*
X87000Y20188D01*
X86874Y19970D01*
X88000D01*
X89126D01*
X89000Y20188D01*
X88792Y20396D01*
X88769Y20443D01*
X88800Y20863D01*
X88829Y20880D01*
X89080Y21131D01*
X89258Y21439D01*
X89350Y21782D01*
Y22138D01*
X89258Y22481D01*
X89080Y22789D01*
X88881Y22988D01*
X88852Y23230D01*
X88881Y23472D01*
X89080Y23671D01*
X89258Y23979D01*
X89350Y24322D01*
Y24678D01*
X89258Y25021D01*
X89080Y25329D01*
X88881Y25528D01*
X88852Y25770D01*
X88881Y26012D01*
X89080Y26211D01*
X89258Y26519D01*
X89350Y26862D01*
Y27218D01*
X89258Y27561D01*
X89080Y27869D01*
X88881Y28068D01*
X88852Y28310D01*
X88881Y28552D01*
X89080Y28751D01*
X89136Y28848D01*
X89462Y28917D01*
X89581Y28912D01*
X90465Y28028D01*
Y15722D01*
X87778Y13035D01*
X78450D01*
X78245Y12995D01*
X78072Y12878D01*
X76728Y11535D01*
X67700D01*
X67495Y11495D01*
X67322Y11378D01*
X66150Y10207D01*
X66034Y10033D01*
X65993Y9829D01*
Y9500D01*
X65600D01*
Y8400D01*
X65600Y8013D01*
X65536Y7966D01*
X65210Y7793D01*
X65194Y7796D01*
X65180Y7810D01*
X65020Y7902D01*
X64842Y7950D01*
X64658D01*
X64480Y7902D01*
X64320Y7810D01*
X64190Y7680D01*
X64098Y7520D01*
X64050Y7342D01*
Y7158D01*
X64098Y6980D01*
X64190Y6820D01*
X64320Y6690D01*
X64480Y6598D01*
X64658Y6550D01*
X64842D01*
X65020Y6598D01*
X65180Y6690D01*
X65194Y6704D01*
X65206Y6706D01*
X65600Y6500D01*
D01*
X65795Y6454D01*
X65916Y6172D01*
X65726Y5800D01*
X63750D01*
Y5759D01*
X63650Y5400D01*
X63330D01*
Y4600D01*
X63100D01*
Y4370D01*
X62550D01*
Y3849D01*
X62550D01*
X62550D01*
X62207Y3713D01*
X62188Y3708D01*
X62150D01*
X61994Y3677D01*
X61862Y3588D01*
X61773Y3456D01*
X61742Y3300D01*
Y2000D01*
X61771Y1855D01*
X61773Y1843D01*
X61581Y1455D01*
X21146Y1455D01*
X21114Y1855D01*
X21296Y1884D01*
X21805Y2049D01*
X22282Y2292D01*
X22715Y2607D01*
X23093Y2985D01*
X23408Y3418D01*
X23651Y3895D01*
X23816Y4404D01*
X23900Y4932D01*
Y5468D01*
X23816Y5996D01*
X23651Y6505D01*
X23408Y6982D01*
X23093Y7415D01*
X22715Y7793D01*
X22282Y8108D01*
X21805Y8351D01*
X21296Y8516D01*
X20768Y8600D01*
X20232D01*
X19704Y8516D01*
X19195Y8351D01*
X18718Y8108D01*
X18285Y7793D01*
X17907Y7415D01*
X17592Y6982D01*
X17349Y6505D01*
X17184Y5996D01*
X17100Y5468D01*
Y4932D01*
X17184Y4404D01*
X17349Y3895D01*
X17592Y3418D01*
X17907Y2985D01*
X18285Y2607D01*
X18718Y2292D01*
X19195Y2049D01*
X19704Y1884D01*
X19886Y1855D01*
X19854Y1455D01*
X4646Y1455D01*
X4614Y1855D01*
X4796Y1884D01*
X5305Y2049D01*
X5782Y2292D01*
X6215Y2607D01*
X6593Y2985D01*
X6908Y3418D01*
X7151Y3895D01*
X7316Y4404D01*
X7400Y4932D01*
Y5468D01*
X7316Y5996D01*
X7151Y6505D01*
X6908Y6982D01*
X6593Y7415D01*
X6215Y7793D01*
X5782Y8108D01*
X5305Y8351D01*
X4796Y8516D01*
X4268Y8600D01*
X3732D01*
X3204Y8516D01*
X2695Y8351D01*
X2218Y8108D01*
X1785Y7793D01*
X1407Y7415D01*
X1092Y6982D01*
X849Y6505D01*
X684Y5996D01*
X655Y5814D01*
X255Y5846D01*
X255Y43354D01*
X655Y43386D01*
X684Y43204D01*
X849Y42695D01*
X1092Y42218D01*
X1407Y41785D01*
X1785Y41407D01*
X2218Y41092D01*
X2695Y40849D01*
X3204Y40684D01*
X3732Y40600D01*
X4268D01*
X4796Y40684D01*
X5305Y40849D01*
X5782Y41092D01*
X6215Y41407D01*
X6593Y41785D01*
X6908Y42218D01*
X7151Y42695D01*
X7316Y43204D01*
X7400Y43732D01*
Y44268D01*
X7316Y44796D01*
X7151Y45305D01*
X6908Y45782D01*
X6593Y46215D01*
X6215Y46593D01*
X5782Y46908D01*
X5305Y47151D01*
X4796Y47316D01*
X4614Y47345D01*
X4646Y47745D01*
X19854D01*
D02*
G37*
G36*
X38625Y39500D02*
X38590Y39447D01*
X38625D01*
X38626Y39399D01*
X38630Y39357D01*
X38636Y39319D01*
X38645Y39287D01*
X38656Y39259D01*
X38670Y39237D01*
X38686Y39219D01*
X38705Y39207D01*
X38725Y39200D01*
X39000D01*
Y38200D01*
X37800Y38200D01*
X37300Y38700D01*
X37800Y39200D01*
X38275D01*
X38295Y39207D01*
X38314Y39219D01*
X38330Y39237D01*
X38344Y39259D01*
X38346Y39265D01*
X38335Y39285D01*
X38312Y39312D01*
X38285Y39335D01*
X38252Y39353D01*
X38215Y39365D01*
X38173Y39373D01*
X38125Y39375D01*
Y39625D01*
X38173Y39628D01*
X38215Y39635D01*
X38252Y39648D01*
X38285Y39665D01*
X38312Y39688D01*
X38335Y39715D01*
X38353Y39748D01*
X38365Y39785D01*
X38373Y39827D01*
X38375Y39875D01*
X38625Y39500D01*
D02*
G37*
G36*
X37000Y38700D02*
X37500Y38200D01*
X36000D01*
Y38484D01*
X35996Y38495D01*
X35983Y38514D01*
X35966Y38530D01*
X35943Y38544D01*
X35915Y38555D01*
X35882Y38564D01*
X35844Y38570D01*
X35801Y38574D01*
X35753Y38575D01*
Y38825D01*
X35801Y38826D01*
X35844Y38830D01*
X35882Y38836D01*
X35915Y38845D01*
X35943Y38856D01*
X35966Y38870D01*
X35983Y38886D01*
X35996Y38905D01*
X36000Y38916D01*
Y39200D01*
X37500D01*
X37000Y38700D01*
D02*
G37*
G36*
X30628Y38209D02*
X30619Y38208D01*
X30608Y38204D01*
X30592Y38195D01*
X30573Y38181D01*
X30551Y38164D01*
X30464Y38085D01*
X30388Y38012D01*
X30212Y38188D01*
X30251Y38228D01*
X30395Y38392D01*
X30404Y38408D01*
X30408Y38419D01*
X30409Y38428D01*
X30628Y38209D01*
D02*
G37*
G36*
X33002Y37025D02*
X32968Y36989D01*
X32938Y36951D01*
X32912Y36912D01*
X32889Y36872D01*
X32869Y36830D01*
X32853Y36787D01*
X32841Y36742D01*
X32832Y36695D01*
X32827Y36647D01*
X32825Y36598D01*
X32575D01*
X32573Y36647D01*
X32568Y36695D01*
X32559Y36742D01*
X32547Y36787D01*
X32531Y36830D01*
X32511Y36872D01*
X32488Y36912D01*
X32462Y36951D01*
X32432Y36989D01*
X32398Y37025D01*
X32523Y37254D01*
X32559Y37222D01*
X32594Y37197D01*
X32629Y37179D01*
X32665Y37169D01*
X32700Y37165D01*
X32735Y37169D01*
X32771Y37179D01*
X32806Y37197D01*
X32841Y37222D01*
X32877Y37254D01*
X33002Y37025D01*
D02*
G37*
G36*
X37000Y36900D02*
X37500Y36400D01*
X36000D01*
X36000Y37400D01*
X37500Y37400D01*
X37000Y36900D01*
D02*
G37*
G36*
X39000Y37116D02*
X39004Y37105D01*
X39017Y37086D01*
X39034Y37070D01*
X39057Y37056D01*
X39085Y37045D01*
X39118Y37036D01*
X39156Y37030D01*
X39199Y37026D01*
X39247Y37025D01*
Y36775D01*
X39199Y36774D01*
X39156Y36770D01*
X39118Y36764D01*
X39085Y36755D01*
X39057Y36744D01*
X39034Y36730D01*
X39017Y36714D01*
X39004Y36695D01*
X39000Y36684D01*
Y36400D01*
X37800Y36400D01*
X37300Y36900D01*
X37800Y37400D01*
X39000D01*
Y37116D01*
D02*
G37*
G36*
X31194Y36567D02*
X31179Y36542D01*
X31167Y36513D01*
X31156Y36479D01*
X31146Y36439D01*
X31139Y36395D01*
X31128Y36291D01*
X31126Y36232D01*
X31125Y36167D01*
X30875D01*
X30874Y36232D01*
X30861Y36395D01*
X30854Y36439D01*
X30844Y36479D01*
X30833Y36513D01*
X30821Y36542D01*
X30806Y36567D01*
X30790Y36586D01*
X31210D01*
X31194Y36567D01*
D02*
G37*
G36*
X37888Y35731D02*
X37935Y35592D01*
X36560Y34217D01*
X36158Y34381D01*
X36139Y34476D01*
X36004Y34679D01*
X35860Y34865D01*
X35951Y35002D01*
X35951Y35002D01*
X35966Y35075D01*
X35300D01*
Y35675D01*
X36029D01*
X36197Y35937D01*
X36269Y35992D01*
X37203D01*
X37500Y35992D01*
X37600Y36000D01*
X37888Y35731D01*
D02*
G37*
G36*
X32826Y35949D02*
X32830Y35906D01*
X32836Y35868D01*
X32845Y35835D01*
X32856Y35807D01*
X32870Y35784D01*
X32886Y35767D01*
X32905Y35754D01*
X32926Y35746D01*
X32950Y35744D01*
X32450D01*
X32474Y35746D01*
X32495Y35754D01*
X32514Y35767D01*
X32530Y35784D01*
X32544Y35807D01*
X32555Y35835D01*
X32564Y35868D01*
X32570Y35906D01*
X32574Y35949D01*
X32575Y35997D01*
X32825D01*
X32826Y35949D01*
D02*
G37*
G36*
X31126D02*
X31130Y35906D01*
X31136Y35868D01*
X31145Y35835D01*
X31156Y35807D01*
X31170Y35784D01*
X31186Y35767D01*
X31205Y35754D01*
X31226Y35746D01*
X31250Y35744D01*
X30750D01*
X30774Y35746D01*
X30795Y35754D01*
X30814Y35767D01*
X30830Y35784D01*
X30844Y35807D01*
X30855Y35835D01*
X30864Y35868D01*
X30870Y35906D01*
X30874Y35949D01*
X30875Y35997D01*
X31125D01*
X31126Y35949D01*
D02*
G37*
G36*
X29807Y35996D02*
X29769Y35943D01*
X29735Y35885D01*
X29706Y35821D01*
X29681Y35751D01*
X29661Y35675D01*
X29645Y35594D01*
X29634Y35507D01*
X29627Y35414D01*
X29625Y35316D01*
X29375D01*
X29373Y35414D01*
X29355Y35594D01*
X29339Y35675D01*
X29319Y35751D01*
X29294Y35821D01*
X29265Y35885D01*
X29231Y35943D01*
X29193Y35996D01*
X29150Y36043D01*
X29850D01*
X29807Y35996D01*
D02*
G37*
G36*
X34307Y35996D02*
X34269Y35943D01*
X34235Y35883D01*
X34206Y35818D01*
X34181Y35747D01*
X34161Y35670D01*
X34145Y35586D01*
X34134Y35497D01*
X34127Y35401D01*
X34125Y35300D01*
X33875D01*
X33873Y35401D01*
X33855Y35586D01*
X33839Y35670D01*
X33819Y35747D01*
X33794Y35818D01*
X33765Y35883D01*
X33731Y35943D01*
X33693Y35996D01*
X33650Y36043D01*
X34350D01*
X34307Y35996D01*
D02*
G37*
G36*
X28573Y36905D02*
X28802Y36500D01*
X28800Y36492D01*
Y36308D01*
X28848Y36130D01*
X28940Y35970D01*
X28991Y35919D01*
X28999Y35906D01*
X29034Y35867D01*
X29060Y35832D01*
X29083Y35791D01*
X29105Y35744D01*
X29124Y35690D01*
X29140Y35629D01*
X29153Y35564D01*
X29169Y35406D01*
Y35278D01*
X29149Y35240D01*
X28875Y34970D01*
Y34200D01*
X28275D01*
Y34866D01*
X28202Y34851D01*
X27900Y34792D01*
X27598Y34851D01*
X27438Y34883D01*
X27013D01*
X26852Y34851D01*
X26715Y34760D01*
X26633Y34637D01*
X26331Y34593D01*
X26125Y34583D01*
X26083Y34624D01*
X25899Y34700D01*
X25701D01*
X25517Y34624D01*
X25376Y34483D01*
X25300Y34299D01*
Y34101D01*
X25376Y33917D01*
X25517Y33776D01*
X25701Y33700D01*
X25899D01*
X26083Y33776D01*
X26125Y33817D01*
X26331Y33807D01*
X26633Y33763D01*
X26715Y33640D01*
X26734Y33628D01*
X26767Y33492D01*
Y33208D01*
X26734Y33072D01*
X26715Y33060D01*
X26703Y33042D01*
X26648Y33020D01*
X26311Y32946D01*
X26121Y32960D01*
X26024Y33000D01*
X25826D01*
X25642Y32924D01*
X25501Y32783D01*
X25425Y32599D01*
Y32401D01*
X25501Y32217D01*
X25642Y32076D01*
X25826Y32000D01*
X26024D01*
X26121Y32040D01*
X26311Y32054D01*
X26648Y31980D01*
X26703Y31958D01*
X26715Y31940D01*
X26852Y31849D01*
X27013Y31817D01*
X27438D01*
X27598Y31849D01*
X27900Y31908D01*
X28202Y31849D01*
X28275Y31834D01*
Y32500D01*
X28575D01*
Y32800D01*
X29201D01*
X29176Y32923D01*
X29085Y33060D01*
X29066Y33072D01*
X29033Y33208D01*
Y33492D01*
X29066Y33628D01*
X29085Y33640D01*
X29548Y33757D01*
X29681Y33751D01*
X29766Y33666D01*
X29873Y33594D01*
X30000Y33569D01*
X30300D01*
Y33350D01*
X30669D01*
Y33100D01*
X30694Y32973D01*
X30766Y32866D01*
X31138Y32494D01*
Y31309D01*
X30834D01*
Y31152D01*
X30838Y31146D01*
X30854Y31128D01*
X30872Y31116D01*
X30893Y31108D01*
X30916Y31106D01*
X30834D01*
Y30359D01*
X30504D01*
Y31106D01*
X30422D01*
X30445Y31108D01*
X30466Y31116D01*
X30484Y31128D01*
X30500Y31146D01*
X30504Y31152D01*
Y31309D01*
X30219D01*
X30219Y31309D01*
X29869Y31317D01*
X29694Y31282D01*
X29545Y31183D01*
X29445Y31034D01*
X29410Y30859D01*
Y29859D01*
X29445Y29683D01*
X29528Y29559D01*
X29510Y29469D01*
X29294Y29059D01*
X29069Y29059D01*
X29069Y29059D01*
X28794Y29059D01*
X27384D01*
X27381Y29059D01*
X27376Y29059D01*
X27372Y29059D01*
X27368Y29059D01*
X27310D01*
X26959Y29409D01*
X26852Y29481D01*
X26849Y29482D01*
X26812Y29506D01*
X26685Y29531D01*
X26614Y30010D01*
X26651Y30202D01*
X26683Y30362D01*
Y30788D01*
X26651Y30948D01*
X26560Y31085D01*
X26423Y31176D01*
X26263Y31208D01*
X25737D01*
X25577Y31176D01*
X25509Y31131D01*
X25214Y31192D01*
X25155Y31208D01*
X25135Y31217D01*
X25000Y31326D01*
Y31349D01*
X24924Y31533D01*
X24783Y31674D01*
X24599Y31750D01*
X24401D01*
X24217Y31674D01*
X24076Y31533D01*
X24000Y31349D01*
Y31151D01*
X24076Y30967D01*
X24217Y30826D01*
X24401Y30750D01*
X24475D01*
X24486Y30747D01*
X24493Y30746D01*
X24501Y30743D01*
X24517Y30735D01*
X24539Y30721D01*
X24563Y30705D01*
X24659Y30623D01*
X24941Y30341D01*
X25048Y30269D01*
X25175Y30244D01*
X25382Y29765D01*
X25349Y29598D01*
X25317Y29438D01*
Y29013D01*
X25349Y28852D01*
X25017Y28515D01*
X25001Y28507D01*
X24993Y28504D01*
X24986Y28503D01*
X24975Y28500D01*
X24901D01*
X24717Y28424D01*
X24576Y28283D01*
X24500Y28099D01*
Y27901D01*
X24507Y27883D01*
X24416Y27614D01*
X24325Y27462D01*
X24225Y27361D01*
X24177Y27351D01*
X24040Y27260D01*
X23831Y27149D01*
X23599Y27200D01*
X23401D01*
X23217Y27124D01*
X23076Y26983D01*
X23000Y26799D01*
Y26601D01*
X23076Y26417D01*
X23217Y26276D01*
X23304Y26240D01*
X23205Y25740D01*
X19000D01*
Y30750D01*
X25250Y37000D01*
X28461D01*
X28573Y36905D01*
D02*
G37*
G36*
X26033Y34394D02*
X26058Y34379D01*
X26087Y34367D01*
X26121Y34356D01*
X26161Y34346D01*
X26205Y34339D01*
X26309Y34328D01*
X26368Y34326D01*
X26433Y34325D01*
Y34075D01*
X26368Y34074D01*
X26205Y34061D01*
X26161Y34054D01*
X26121Y34044D01*
X26087Y34033D01*
X26058Y34021D01*
X26033Y34006D01*
X26014Y33990D01*
Y34410D01*
X26033Y34394D01*
D02*
G37*
G36*
X15705Y34980D02*
X15777Y34931D01*
X15859Y34889D01*
X15952Y34852D01*
X16056Y34821D01*
X16170Y34795D01*
X16295Y34776D01*
X16431Y34761D01*
X16734Y34750D01*
Y34250D01*
X16577Y34247D01*
X16295Y34224D01*
X16170Y34205D01*
X16056Y34179D01*
X15952Y34148D01*
X15859Y34111D01*
X15777Y34069D01*
X15705Y34020D01*
X15644Y33967D01*
Y35033D01*
X15705Y34980D01*
D02*
G37*
G36*
X26802Y33950D02*
X26799Y33974D01*
X26792Y33995D01*
X26779Y34014D01*
X26761Y34030D01*
X26739Y34044D01*
X26711Y34055D01*
X26678Y34064D01*
X26640Y34070D01*
X26597Y34074D01*
X26549Y34075D01*
Y34325D01*
X26597Y34326D01*
X26640Y34330D01*
X26678Y34336D01*
X26711Y34345D01*
X26739Y34356D01*
X26761Y34370D01*
X26779Y34386D01*
X26792Y34405D01*
X26799Y34426D01*
X26802Y34450D01*
Y33950D01*
D02*
G37*
G36*
X33196Y34126D02*
X33204Y34105D01*
X33217Y34086D01*
X33234Y34070D01*
X33257Y34056D01*
X33285Y34045D01*
X33318Y34036D01*
X33356Y34030D01*
X33399Y34026D01*
X33447Y34025D01*
Y33775D01*
X33399Y33774D01*
X33356Y33770D01*
X33318Y33764D01*
X33285Y33755D01*
X33257Y33744D01*
X33234Y33730D01*
X33217Y33714D01*
X33204Y33695D01*
X33196Y33674D01*
X33194Y33650D01*
Y34150D01*
X33196Y34126D01*
D02*
G37*
G36*
X30503Y33650D02*
X30501Y33674D01*
X30493Y33695D01*
X30481Y33714D01*
X30463Y33730D01*
X30441Y33744D01*
X30413Y33755D01*
X30381Y33764D01*
X30343Y33770D01*
X30301Y33774D01*
X30253Y33775D01*
Y34025D01*
X30301Y34026D01*
X30343Y34030D01*
X30381Y34036D01*
X30413Y34045D01*
X30441Y34056D01*
X30463Y34070D01*
X30481Y34086D01*
X30493Y34105D01*
X30501Y34126D01*
X30503Y34150D01*
Y33650D01*
D02*
G37*
G36*
X28775Y33727D02*
X28751Y33725D01*
X28730Y33718D01*
X28711Y33706D01*
X28695Y33689D01*
X28681Y33666D01*
X28670Y33638D01*
X28661Y33605D01*
X28655Y33567D01*
X28651Y33523D01*
X28650Y33474D01*
X28400D01*
X28399Y33525D01*
X28395Y33571D01*
X28389Y33611D01*
X28380Y33646D01*
X28369Y33676D01*
X28356Y33701D01*
X28340Y33720D01*
X28321Y33734D01*
X28300Y33743D01*
X28277Y33747D01*
X28775Y33727D01*
D02*
G37*
G36*
X35526Y33599D02*
X35505Y33592D01*
X35486Y33579D01*
X35470Y33562D01*
X35456Y33539D01*
X35445Y33511D01*
X35436Y33478D01*
X35430Y33440D01*
X35426Y33397D01*
X35425Y33349D01*
X35175D01*
X35174Y33397D01*
X35170Y33440D01*
X35164Y33478D01*
X35155Y33511D01*
X35144Y33539D01*
X35130Y33562D01*
X35114Y33579D01*
X35095Y33592D01*
X35074Y33599D01*
X35050Y33602D01*
X35550D01*
X35526Y33599D01*
D02*
G37*
G36*
X32926Y33554D02*
X32905Y33546D01*
X32886Y33533D01*
X32870Y33516D01*
X32856Y33493D01*
X32845Y33465D01*
X32836Y33432D01*
X32830Y33394D01*
X32826Y33351D01*
X32825Y33303D01*
X32575D01*
X32574Y33351D01*
X32570Y33394D01*
X32564Y33432D01*
X32555Y33465D01*
X32544Y33493D01*
X32530Y33516D01*
X32514Y33533D01*
X32495Y33546D01*
X32474Y33554D01*
X32450Y33556D01*
X32950D01*
X32926Y33554D01*
D02*
G37*
G36*
X31226D02*
X31205Y33546D01*
X31186Y33533D01*
X31170Y33516D01*
X31156Y33493D01*
X31145Y33465D01*
X31136Y33432D01*
X31130Y33394D01*
X31126Y33351D01*
X31125Y33303D01*
X30875D01*
X30874Y33351D01*
X30870Y33394D01*
X30864Y33432D01*
X30855Y33465D01*
X30844Y33493D01*
X30830Y33516D01*
X30814Y33533D01*
X30795Y33546D01*
X30774Y33554D01*
X30750Y33556D01*
X31250D01*
X31226Y33554D01*
D02*
G37*
G36*
X40633Y33394D02*
X40658Y33379D01*
X40687Y33367D01*
X40721Y33356D01*
X40761Y33346D01*
X40805Y33339D01*
X40909Y33328D01*
X40968Y33326D01*
X41033Y33325D01*
Y33075D01*
X40968Y33074D01*
X40805Y33061D01*
X40761Y33054D01*
X40721Y33044D01*
X40687Y33033D01*
X40658Y33021D01*
X40633Y33006D01*
X40614Y32990D01*
Y33410D01*
X40633Y33394D01*
D02*
G37*
G36*
X28651Y33177D02*
X28655Y33133D01*
X28661Y33095D01*
X28670Y33062D01*
X28681Y33034D01*
X28695Y33011D01*
X28711Y32994D01*
X28730Y32982D01*
X28751Y32975D01*
X28775Y32973D01*
X28277Y32953D01*
X28300Y32957D01*
X28321Y32966D01*
X28340Y32980D01*
X28356Y32999D01*
X28369Y33024D01*
X28380Y33054D01*
X28389Y33089D01*
X28395Y33129D01*
X28399Y33175D01*
X28400Y33226D01*
X28650D01*
X28651Y33177D01*
D02*
G37*
G36*
X26802Y32250D02*
X26799Y32274D01*
X26792Y32295D01*
X26779Y32314D01*
X26762Y32330D01*
X26739Y32344D01*
X26711Y32355D01*
X26678Y32364D01*
X26640Y32370D01*
X26597Y32374D01*
X26552Y32375D01*
X26493Y32374D01*
X26330Y32361D01*
X26286Y32354D01*
X26246Y32344D01*
X26212Y32333D01*
X26183Y32321D01*
X26158Y32306D01*
X26139Y32290D01*
Y32710D01*
X26158Y32694D01*
X26183Y32679D01*
X26212Y32667D01*
X26246Y32656D01*
X26286Y32646D01*
X26330Y32639D01*
X26434Y32628D01*
X26493Y32626D01*
X26552Y32625D01*
X26597Y32626D01*
X26640Y32630D01*
X26678Y32636D01*
X26711Y32645D01*
X26739Y32656D01*
X26762Y32670D01*
X26779Y32686D01*
X26792Y32705D01*
X26799Y32726D01*
X26802Y32750D01*
Y32250D01*
D02*
G37*
G36*
X12625Y33026D02*
X12633Y33005D01*
X12645Y32986D01*
X12663Y32970D01*
X12686Y32956D01*
X12714Y32945D01*
X12747Y32936D01*
X12784Y32930D01*
X12828Y32926D01*
X12876Y32925D01*
Y32675D01*
X12828Y32674D01*
X12784Y32670D01*
X12747Y32664D01*
X12714Y32655D01*
X12686Y32644D01*
X12663Y32630D01*
X12645Y32614D01*
X12633Y32595D01*
X12625Y32574D01*
X12623Y32550D01*
Y33050D01*
X12625Y33026D01*
D02*
G37*
G36*
X42906Y32250D02*
X42904Y32274D01*
X42896Y32295D01*
X42883Y32314D01*
X42866Y32330D01*
X42843Y32344D01*
X42815Y32355D01*
X42782Y32364D01*
X42744Y32370D01*
X42701Y32374D01*
X42653Y32375D01*
Y32625D01*
X42701Y32626D01*
X42744Y32630D01*
X42782Y32636D01*
X42815Y32645D01*
X42843Y32656D01*
X42866Y32670D01*
X42883Y32686D01*
X42896Y32705D01*
X42904Y32726D01*
X42906Y32750D01*
Y32250D01*
D02*
G37*
G36*
X45097Y32771D02*
X45106Y32746D01*
X45121Y32723D01*
X45142Y32704D01*
X45170Y32688D01*
X45203Y32674D01*
X45242Y32664D01*
X45288Y32656D01*
X45339Y32652D01*
X45397Y32650D01*
Y32350D01*
X45339Y32348D01*
X45288Y32344D01*
X45242Y32336D01*
X45203Y32326D01*
X45170Y32312D01*
X45142Y32296D01*
X45121Y32277D01*
X45106Y32254D01*
X45097Y32229D01*
X45094Y32200D01*
Y32800D01*
X45097Y32771D01*
D02*
G37*
G36*
X41711Y32768D02*
X41749Y32738D01*
X41788Y32712D01*
X41828Y32689D01*
X41870Y32669D01*
X41913Y32653D01*
X41958Y32641D01*
X42005Y32632D01*
X42053Y32627D01*
X42102Y32625D01*
X42175Y32375D01*
X42127Y32373D01*
X42085Y32365D01*
X42048Y32353D01*
X42015Y32335D01*
X41987Y32312D01*
X41965Y32285D01*
X41947Y32252D01*
X41935Y32215D01*
X41928Y32173D01*
X41925Y32125D01*
X41675Y32198D01*
X41673Y32247D01*
X41668Y32295D01*
X41659Y32342D01*
X41647Y32387D01*
X41631Y32430D01*
X41611Y32472D01*
X41588Y32512D01*
X41562Y32551D01*
X41532Y32589D01*
X41498Y32625D01*
X41675Y32802D01*
X41711Y32768D01*
D02*
G37*
G36*
X37995Y31308D02*
X37999Y31266D01*
X38005Y31228D01*
X38014Y31196D01*
X38025Y31168D01*
X38038Y31146D01*
X38054Y31128D01*
X38072Y31116D01*
X38093Y31108D01*
X38116Y31106D01*
X37622D01*
X37645Y31108D01*
X37666Y31116D01*
X37684Y31128D01*
X37700Y31146D01*
X37714Y31168D01*
X37725Y31196D01*
X37733Y31228D01*
X37739Y31266D01*
X37743Y31308D01*
X37744Y31356D01*
X37994D01*
X37995Y31308D01*
D02*
G37*
G36*
X37195D02*
X37199Y31266D01*
X37205Y31228D01*
X37214Y31196D01*
X37225Y31168D01*
X37238Y31146D01*
X37254Y31128D01*
X37272Y31116D01*
X37293Y31108D01*
X37316Y31106D01*
X36822D01*
X36845Y31108D01*
X36866Y31116D01*
X36884Y31128D01*
X36900Y31146D01*
X36914Y31168D01*
X36925Y31196D01*
X36933Y31228D01*
X36939Y31266D01*
X36943Y31308D01*
X36944Y31356D01*
X37194D01*
X37195Y31308D01*
D02*
G37*
G36*
X36395D02*
X36399Y31266D01*
X36405Y31228D01*
X36414Y31196D01*
X36425Y31168D01*
X36438Y31146D01*
X36454Y31128D01*
X36472Y31116D01*
X36493Y31108D01*
X36516Y31106D01*
X36022D01*
X36045Y31108D01*
X36066Y31116D01*
X36084Y31128D01*
X36100Y31146D01*
X36114Y31168D01*
X36125Y31196D01*
X36133Y31228D01*
X36139Y31266D01*
X36143Y31308D01*
X36144Y31356D01*
X36394D01*
X36395Y31308D01*
D02*
G37*
G36*
X35816Y32766D02*
X35938Y32680D01*
Y31309D01*
X34795D01*
X34795Y31308D01*
X34799Y31266D01*
X34805Y31228D01*
X34814Y31196D01*
X34825Y31168D01*
X34838Y31146D01*
X34854Y31128D01*
X34872Y31116D01*
X34893Y31108D01*
X34916Y31106D01*
X34422D01*
X34445Y31108D01*
X34466Y31116D01*
X34484Y31128D01*
X34500Y31146D01*
X34514Y31168D01*
X34525Y31196D01*
X34533Y31228D01*
X34539Y31266D01*
X34543Y31308D01*
X34544Y31356D01*
X34565D01*
X34377Y31809D01*
X35438Y32869D01*
X35816Y32766D01*
D02*
G37*
G36*
X33995Y31308D02*
X33999Y31266D01*
X34005Y31228D01*
X34014Y31196D01*
X34025Y31168D01*
X34038Y31146D01*
X34054Y31128D01*
X34072Y31116D01*
X34093Y31108D01*
X34116Y31106D01*
X33622D01*
X33645Y31108D01*
X33666Y31116D01*
X33684Y31128D01*
X33700Y31146D01*
X33714Y31168D01*
X33725Y31196D01*
X33733Y31228D01*
X33739Y31266D01*
X33743Y31308D01*
X33744Y31356D01*
X33994D01*
X33995Y31308D01*
D02*
G37*
G36*
X33218Y31776D02*
X33206Y31751D01*
X33195Y31720D01*
X33185Y31685D01*
X33177Y31645D01*
X33171Y31600D01*
X33162Y31495D01*
X33159Y31371D01*
X33038Y31356D01*
X33159D01*
X33160Y31308D01*
X33164Y31266D01*
X33170Y31228D01*
X33179Y31196D01*
X33190Y31168D01*
X33204Y31146D01*
X33220Y31128D01*
X33239Y31116D01*
X33260Y31108D01*
X33284Y31106D01*
X32822D01*
X32839Y31108D01*
X32853Y31116D01*
X32866Y31128D01*
X32878Y31146D01*
X32887Y31168D01*
X32895Y31196D01*
X32901Y31228D01*
X32905Y31266D01*
X32908Y31308D01*
X32909Y31348D01*
X32908Y31403D01*
X32894Y31566D01*
X32885Y31609D01*
X32875Y31647D01*
X32863Y31680D01*
X32849Y31708D01*
X32833Y31730D01*
X32815Y31747D01*
X33232Y31797D01*
X33218Y31776D01*
D02*
G37*
G36*
X32395Y31308D02*
X32399Y31266D01*
X32405Y31228D01*
X32414Y31196D01*
X32425Y31168D01*
X32438Y31146D01*
X32454Y31128D01*
X32472Y31116D01*
X32493Y31108D01*
X32516Y31106D01*
X32022D01*
X32045Y31108D01*
X32066Y31116D01*
X32084Y31128D01*
X32100Y31146D01*
X32114Y31168D01*
X32125Y31196D01*
X32133Y31228D01*
X32139Y31266D01*
X32143Y31308D01*
X32144Y31356D01*
X32394D01*
X32395Y31308D01*
D02*
G37*
G36*
X31595D02*
X31599Y31266D01*
X31605Y31228D01*
X31614Y31196D01*
X31625Y31168D01*
X31638Y31146D01*
X31654Y31128D01*
X31672Y31116D01*
X31693Y31108D01*
X31716Y31106D01*
X31222D01*
X31245Y31108D01*
X31266Y31116D01*
X31284Y31128D01*
X31300Y31146D01*
X31314Y31168D01*
X31325Y31196D01*
X31333Y31228D01*
X31339Y31266D01*
X31343Y31308D01*
X31344Y31356D01*
X31594D01*
X31595Y31308D01*
D02*
G37*
G36*
X24802Y31222D02*
X24809Y31195D01*
X24821Y31165D01*
X24837Y31133D01*
X24858Y31098D01*
X24884Y31062D01*
X24951Y30981D01*
X24991Y30937D01*
X25036Y30891D01*
X24859Y30714D01*
X24813Y30759D01*
X24688Y30866D01*
X24652Y30892D01*
X24617Y30913D01*
X24585Y30929D01*
X24555Y30941D01*
X24528Y30948D01*
X24503Y30950D01*
X24800Y31247D01*
X24802Y31222D01*
D02*
G37*
G36*
X12625Y31026D02*
X12633Y31005D01*
X12645Y30986D01*
X12663Y30970D01*
X12686Y30956D01*
X12714Y30945D01*
X12747Y30936D01*
X12784Y30930D01*
X12828Y30926D01*
X12876Y30925D01*
Y30675D01*
X12828Y30674D01*
X12784Y30670D01*
X12747Y30664D01*
X12714Y30655D01*
X12686Y30644D01*
X12663Y30630D01*
X12645Y30614D01*
X12633Y30595D01*
X12625Y30574D01*
X12623Y30550D01*
Y31050D01*
X12625Y31026D01*
D02*
G37*
G36*
X25534Y30326D02*
X25532Y30349D01*
X25524Y30370D01*
X25511Y30389D01*
X25493Y30405D01*
X25469Y30419D01*
X25441Y30430D01*
X25407Y30439D01*
X25368Y30445D01*
X25323Y30449D01*
X25274Y30450D01*
Y30700D01*
X25323Y30701D01*
X25368Y30705D01*
X25407Y30711D01*
X25441Y30720D01*
X25469Y30731D01*
X25493Y30745D01*
X25511Y30761D01*
X25524Y30780D01*
X25532Y30801D01*
X25534Y30824D01*
Y30326D01*
D02*
G37*
G36*
X45939Y30232D02*
X45593Y29886D01*
X45005D01*
X44967Y29887D01*
X44917Y29893D01*
X44770Y29977D01*
X44592Y30025D01*
X44408D01*
X44230Y29977D01*
X44086Y29894D01*
X44073Y29893D01*
X44054Y29912D01*
X43845Y30218D01*
X43901Y30302D01*
X43901Y30302D01*
X43916Y30375D01*
X43250D01*
Y30975D01*
X43916D01*
X43901Y31048D01*
X43810Y31185D01*
X43787Y31200D01*
X43811Y31278D01*
X44000Y31600D01*
X44000D01*
X44000Y31600D01*
X45500D01*
Y31939D01*
X45939D01*
Y30232D01*
D02*
G37*
G36*
X37913Y29615D02*
X37901Y29623D01*
X37885Y29626D01*
X37866Y29622D01*
X37844Y29611D01*
X37819Y29595D01*
X37790Y29572D01*
X37759Y29543D01*
X37688Y29466D01*
X37648Y29418D01*
X37464Y29588D01*
X37505Y29640D01*
X37594Y29768D01*
X37613Y29803D01*
X37627Y29833D01*
X37634Y29860D01*
X37637Y29882D01*
X37634Y29900D01*
X37625Y29913D01*
X37913Y29615D01*
D02*
G37*
G36*
X37113D02*
X37101Y29623D01*
X37085Y29626D01*
X37066Y29622D01*
X37044Y29611D01*
X37019Y29595D01*
X36990Y29572D01*
X36959Y29543D01*
X36888Y29466D01*
X36848Y29418D01*
X36664Y29588D01*
X36705Y29640D01*
X36794Y29768D01*
X36813Y29803D01*
X36827Y29833D01*
X36834Y29860D01*
X36837Y29882D01*
X36834Y29900D01*
X36825Y29913D01*
X37113Y29615D01*
D02*
G37*
G36*
X36362D02*
X36345Y29631D01*
X36325Y29639D01*
X36303Y29638D01*
X36280Y29629D01*
X36254Y29611D01*
X36227Y29584D01*
X36197Y29549D01*
X36166Y29506D01*
X36133Y29454D01*
X36097Y29393D01*
X35900Y29553D01*
X35939Y29625D01*
X35999Y29753D01*
X36020Y29808D01*
X36036Y29858D01*
X36045Y29903D01*
X36049Y29943D01*
X36047Y29976D01*
X36039Y30005D01*
X36025Y30028D01*
X36362Y29615D01*
D02*
G37*
G36*
X43707Y29595D02*
X43716Y29570D01*
X43732Y29548D01*
X43755Y29528D01*
X43784Y29512D01*
X43820Y29499D01*
X43861Y29488D01*
X43910Y29481D01*
X43962Y29477D01*
X44155Y29490D01*
X44193Y29497D01*
X44225Y29504D01*
X44251Y29513D01*
X44271Y29524D01*
X44286Y29535D01*
Y29115D01*
X44271Y29126D01*
X44251Y29137D01*
X44225Y29146D01*
X44193Y29153D01*
X44155Y29160D01*
X44062Y29170D01*
X43967Y29174D01*
X43965Y29174D01*
X43910Y29169D01*
X43861Y29162D01*
X43820Y29151D01*
X43784Y29138D01*
X43755Y29122D01*
X43732Y29102D01*
X43716Y29080D01*
X43707Y29055D01*
X43703Y29027D01*
Y29162D01*
X43427Y29148D01*
Y29502D01*
X43437Y29497D01*
X43456Y29492D01*
X43485Y29488D01*
X43571Y29482D01*
X43703Y29479D01*
Y29623D01*
X43707Y29595D01*
D02*
G37*
G36*
X30899Y29966D02*
X30892Y29941D01*
X30892Y29912D01*
X30897Y29878D01*
X30909Y29839D01*
X30928Y29796D01*
X30953Y29749D01*
X30985Y29697D01*
X31067Y29580D01*
X30880Y29412D01*
X30837Y29467D01*
X30759Y29554D01*
X30724Y29586D01*
X30692Y29610D01*
X30663Y29627D01*
X30636Y29635D01*
X30612Y29636D01*
X30591Y29629D01*
X30573Y29615D01*
X30913Y29987D01*
X30899Y29966D01*
D02*
G37*
G36*
X31699Y30005D02*
X31691Y29976D01*
X31689Y29943D01*
X31693Y29903D01*
X31703Y29858D01*
X31718Y29808D01*
X31739Y29753D01*
X31766Y29692D01*
X31838Y29553D01*
X31641Y29393D01*
X31606Y29454D01*
X31541Y29549D01*
X31512Y29584D01*
X31484Y29611D01*
X31459Y29629D01*
X31435Y29638D01*
X31413Y29639D01*
X31394Y29631D01*
X31376Y29615D01*
X31713Y30028D01*
X31699Y30005D01*
D02*
G37*
G36*
X32516Y29612D02*
X32526Y29611D01*
X32535Y29608D01*
X32543Y29604D01*
X32552Y29598D01*
X32559Y29590D01*
X32567Y29580D01*
X32574Y29569D01*
X32581Y29556D01*
X32587Y29541D01*
X32593Y29525D01*
X32379Y29374D01*
X32363Y29419D01*
X32346Y29460D01*
X32327Y29496D01*
X32308Y29527D01*
X32288Y29554D01*
X32267Y29576D01*
X32244Y29592D01*
X32221Y29605D01*
X32196Y29612D01*
X32171Y29615D01*
X32516Y29612D01*
D02*
G37*
G36*
X34422D02*
X34783Y29615D01*
X34758Y29612D01*
X34736Y29604D01*
X34716Y29592D01*
X34698Y29574D01*
X34682Y29551D01*
X34667Y29524D01*
X34655Y29491D01*
X34645Y29453D01*
X34637Y29411D01*
X34630Y29363D01*
X34380Y29376D01*
X34388Y29449D01*
X34422Y29638D01*
X34422Y29612D01*
D02*
G37*
G36*
X33316D02*
X33320Y29609D01*
X33323Y29602D01*
X33327Y29590D01*
X33331Y29574D01*
X33339Y29527D01*
X33358Y29376D01*
X33108Y29363D01*
X33102Y29411D01*
X33093Y29453D01*
X33083Y29491D01*
X33071Y29524D01*
X33057Y29551D01*
X33040Y29574D01*
X33022Y29592D01*
X33002Y29604D01*
X32980Y29612D01*
X32956Y29615D01*
X33316Y29612D01*
D02*
G37*
G36*
X34093Y29609D02*
X34072Y29602D01*
X34054Y29589D01*
X34038Y29572D01*
X34025Y29549D01*
X34014Y29522D01*
X34005Y29489D01*
X33999Y29452D01*
X33995Y29409D01*
X33994Y29362D01*
X33744D01*
X33743Y29409D01*
X33739Y29452D01*
X33733Y29489D01*
X33725Y29522D01*
X33714Y29549D01*
X33700Y29572D01*
X33684Y29589D01*
X33666Y29602D01*
X33645Y29609D01*
X33622Y29612D01*
X34116D01*
X34093Y29609D01*
D02*
G37*
G36*
X43188Y29078D02*
X43163Y29073D01*
X43139Y29066D01*
X43114Y29057D01*
X43089Y29046D01*
X43064Y29033D01*
X43040Y29018D01*
X43015Y29001D01*
X42997Y28987D01*
X43053Y28902D01*
X43037Y28919D01*
X43017Y28929D01*
X42994Y28932D01*
X42967Y28927D01*
X42935Y28915D01*
X42900Y28896D01*
X42861Y28869D01*
X42818Y28835D01*
X42771Y28793D01*
X42721Y28744D01*
X42541Y28918D01*
X42598Y28977D01*
X42690Y29083D01*
X42725Y29129D01*
X42752Y29172D01*
X42772Y29211D01*
X42784Y29246D01*
X42789Y29277D01*
X42787Y29304D01*
X42777Y29327D01*
X42849Y29217D01*
X42861Y29237D01*
X42874Y29261D01*
X42885Y29286D01*
X42894Y29311D01*
X42901Y29336D01*
X42905Y29360D01*
X43188Y29078D01*
D02*
G37*
G36*
X88886Y29944D02*
X88931Y29894D01*
X88987Y29850D01*
X89053Y29811D01*
X89129Y29779D01*
X89216Y29752D01*
X89314Y29732D01*
X89422Y29717D01*
X89541Y29708D01*
X89670Y29705D01*
Y29455D01*
X89541Y29452D01*
X89314Y29428D01*
X89216Y29408D01*
X89129Y29381D01*
X89053Y29349D01*
X88987Y29310D01*
X88931Y29266D01*
X88886Y29216D01*
X88852Y29160D01*
Y30000D01*
X88886Y29944D01*
D02*
G37*
G36*
X44729Y29524D02*
X44749Y29513D01*
X44775Y29504D01*
X44807Y29497D01*
X44845Y29490D01*
X44938Y29480D01*
X45053Y29476D01*
X45120Y29475D01*
Y29175D01*
X45053Y29174D01*
X44845Y29160D01*
X44807Y29153D01*
X44775Y29146D01*
X44749Y29137D01*
X44729Y29126D01*
X44714Y29115D01*
Y29535D01*
X44729Y29524D01*
D02*
G37*
G36*
X26475Y29393D02*
X26481Y29379D01*
X26492Y29366D01*
X26507Y29355D01*
X26526Y29346D01*
X26549Y29338D01*
X26577Y29333D01*
X26609Y29328D01*
X26645Y29326D01*
X26685Y29325D01*
Y29075D01*
X26644Y29074D01*
X26575Y29067D01*
X26547Y29062D01*
X26523Y29054D01*
X26504Y29045D01*
X26489Y29034D01*
X26478Y29021D01*
X26471Y29007D01*
X26469Y28991D01*
X26473Y29409D01*
X26475Y29393D01*
D02*
G37*
G36*
X27372Y28528D02*
X27370Y28539D01*
X27365Y28548D01*
X27356Y28557D01*
X27343Y28564D01*
X27327Y28571D01*
X27307Y28576D01*
X27283Y28580D01*
X27256Y28583D01*
X27190Y28585D01*
Y28835D01*
X27225Y28835D01*
X27343Y28842D01*
X27356Y28845D01*
X27365Y28848D01*
X27370Y28852D01*
X27372Y28856D01*
Y28528D01*
D02*
G37*
G36*
X34558Y28691D02*
X34553Y28646D01*
X34523Y28465D01*
X34520Y28458D01*
X34516Y28456D01*
X34222D01*
X34234Y28458D01*
X34245Y28465D01*
X34255Y28478D01*
X34264Y28495D01*
X34273Y28518D01*
X34282Y28545D01*
X34289Y28577D01*
X34302Y28657D01*
X34308Y28704D01*
X34558Y28691D01*
D02*
G37*
G36*
X33994Y28658D02*
X34005Y28478D01*
X34008Y28466D01*
X34012Y28458D01*
X34016Y28456D01*
X33722D01*
X33726Y28458D01*
X33730Y28466D01*
X33733Y28478D01*
X33736Y28496D01*
X33739Y28518D01*
X33743Y28616D01*
X33744Y28706D01*
X33994D01*
X33994Y28658D01*
D02*
G37*
G36*
X33436Y28657D02*
X33457Y28545D01*
X33465Y28518D01*
X33474Y28495D01*
X33483Y28478D01*
X33494Y28465D01*
X33505Y28458D01*
X33516Y28456D01*
X33222D01*
X33219Y28458D01*
X33215Y28465D01*
X33211Y28477D01*
X33207Y28493D01*
X33199Y28540D01*
X33180Y28691D01*
X33430Y28704D01*
X33436Y28657D01*
D02*
G37*
G36*
X32875Y28648D02*
X32906Y28572D01*
X32921Y28541D01*
X32937Y28515D01*
X32953Y28494D01*
X32968Y28477D01*
X32984Y28465D01*
X33000Y28458D01*
X33016Y28456D01*
X32722D01*
X32713Y28456D01*
X32704Y28459D01*
X32695Y28463D01*
X32687Y28469D01*
X32679Y28477D01*
X32671Y28487D01*
X32664Y28498D01*
X32658Y28511D01*
X32651Y28526D01*
X32646Y28542D01*
X32860Y28694D01*
X32875Y28648D01*
D02*
G37*
G36*
X28854Y28640D02*
X28852Y28624D01*
X28856Y28605D01*
X28866Y28583D01*
X28883Y28558D01*
X28906Y28530D01*
X28935Y28499D01*
X29012Y28427D01*
X29060Y28387D01*
X28889Y28203D01*
X28838Y28244D01*
X28709Y28334D01*
X28675Y28353D01*
X28644Y28366D01*
X28618Y28374D01*
X28596Y28376D01*
X28578Y28373D01*
X28564Y28365D01*
X28863Y28653D01*
X28854Y28640D01*
D02*
G37*
G36*
X36693Y28455D02*
X36645Y28405D01*
X36568Y28315D01*
X36540Y28275D01*
X36519Y28238D01*
X36504Y28204D01*
X36496Y28174D01*
X36495Y28147D01*
X36501Y28123D01*
X36513Y28102D01*
X36222Y28456D01*
X36246Y28457D01*
X36271Y28463D01*
X36298Y28471D01*
X36326Y28484D01*
X36354Y28500D01*
X36384Y28519D01*
X36416Y28542D01*
X36482Y28598D01*
X36516Y28632D01*
X36693Y28455D01*
D02*
G37*
G36*
X25536Y28359D02*
X25491Y28313D01*
X25384Y28188D01*
X25358Y28152D01*
X25337Y28117D01*
X25321Y28085D01*
X25309Y28055D01*
X25302Y28028D01*
X25300Y28003D01*
X25003Y28300D01*
X25028Y28302D01*
X25055Y28309D01*
X25085Y28321D01*
X25117Y28337D01*
X25152Y28358D01*
X25188Y28384D01*
X25269Y28451D01*
X25313Y28491D01*
X25359Y28536D01*
X25536Y28359D01*
D02*
G37*
G36*
X83550Y30675D02*
X85450D01*
Y30750D01*
X87272D01*
X87307Y30623D01*
X87232Y30580D01*
X87000Y30348D01*
X86874Y30130D01*
X88000D01*
Y29030D01*
X86874D01*
X87000Y28812D01*
X87232Y28580D01*
X87518Y28415D01*
X87660Y28377D01*
X87643Y28250D01*
X86500D01*
X86000Y27750D01*
X78250D01*
Y31500D01*
X82725D01*
X83550Y30675D01*
D02*
G37*
G36*
X40616Y27809D02*
X40568Y27807D01*
X40525Y27804D01*
X40487Y27797D01*
X40455Y27789D01*
X40427Y27777D01*
X40404Y27764D01*
X40386Y27747D01*
X40373Y27729D01*
X40366Y27707D01*
X40363Y27684D01*
X40366Y28056D01*
X40369Y28056D01*
X40376Y28057D01*
X40489Y28058D01*
X40616Y28059D01*
Y27809D01*
D02*
G37*
G36*
X39174Y27562D02*
X39160Y27571D01*
X39142Y27574D01*
X39119Y27572D01*
X39093Y27564D01*
X39063Y27551D01*
X39028Y27533D01*
X38989Y27509D01*
X38900Y27444D01*
X38849Y27403D01*
X38679Y27587D01*
X38726Y27627D01*
X38831Y27729D01*
X38854Y27757D01*
X38870Y27782D01*
X38880Y27804D01*
X38884Y27824D01*
X38881Y27840D01*
X38872Y27853D01*
X39174Y27562D01*
D02*
G37*
G36*
X27372D02*
X27370Y27585D01*
X27362Y27606D01*
X27350Y27624D01*
X27332Y27640D01*
X27310Y27653D01*
X27282Y27664D01*
X27250Y27673D01*
X27212Y27679D01*
X27170Y27682D01*
X27122Y27684D01*
Y27934D01*
X27170Y27935D01*
X27212Y27938D01*
X27250Y27945D01*
X27282Y27953D01*
X27310Y27964D01*
X27332Y27977D01*
X27350Y27993D01*
X27362Y28012D01*
X27370Y28032D01*
X27372Y28056D01*
Y27562D01*
D02*
G37*
G36*
X28854Y27840D02*
X28852Y27824D01*
X28856Y27805D01*
X28866Y27783D01*
X28883Y27758D01*
X28906Y27730D01*
X28935Y27699D01*
X29012Y27627D01*
X29060Y27587D01*
X28889Y27403D01*
X28838Y27444D01*
X28709Y27534D01*
X28675Y27553D01*
X28644Y27566D01*
X28618Y27574D01*
X28596Y27576D01*
X28578Y27573D01*
X28564Y27565D01*
X28863Y27853D01*
X28854Y27840D01*
D02*
G37*
G36*
X42922Y27271D02*
X42918Y27286D01*
X42910Y27299D01*
X42897Y27311D01*
X42879Y27321D01*
X42857Y27330D01*
X42829Y27337D01*
X42798Y27342D01*
X42761Y27346D01*
X42675Y27349D01*
Y27599D01*
X42716Y27600D01*
X42784Y27607D01*
X42812Y27612D01*
X42835Y27619D01*
X42853Y27628D01*
X42867Y27639D01*
X42877Y27651D01*
X42882Y27664D01*
X42883Y27679D01*
X42922Y27271D01*
D02*
G37*
G36*
X42145Y28767D02*
X42500Y28613D01*
Y27749D01*
X42440Y27709D01*
X42191Y27459D01*
X41840Y27193D01*
X41605Y27230D01*
X41406D01*
X41223Y27154D01*
X41082Y27013D01*
X41069Y26982D01*
X40616Y27072D01*
Y26884D01*
X40569Y26882D01*
X40526Y26879D01*
X40489Y26873D01*
X40456Y26864D01*
X40429Y26853D01*
X40406Y26840D01*
X40389Y26824D01*
X40376Y26806D01*
X40369Y26785D01*
X40366Y26762D01*
Y27256D01*
X40369Y27232D01*
X40376Y27212D01*
X40389Y27193D01*
X40406Y27177D01*
X40429Y27164D01*
X40456Y27153D01*
X40489Y27145D01*
X40526Y27138D01*
X40569Y27135D01*
X40569Y27135D01*
Y27602D01*
X40684D01*
X40810Y27627D01*
X40918Y27699D01*
X42000Y28781D01*
X42145Y28767D01*
D02*
G37*
G36*
X30072Y27384D02*
X30163Y27308D01*
X30203Y27280D01*
X30240Y27258D01*
X30273Y27244D01*
X30304Y27236D01*
X30331Y27235D01*
X30355Y27240D01*
X30376Y27252D01*
X30022Y26962D01*
X30020Y26986D01*
X30015Y27011D01*
X30006Y27037D01*
X29994Y27065D01*
X29978Y27094D01*
X29959Y27124D01*
X29936Y27155D01*
X29879Y27221D01*
X29846Y27256D01*
X30023Y27433D01*
X30072Y27384D01*
D02*
G37*
G36*
X43532Y27181D02*
X43510Y27173D01*
X43492Y27160D01*
X43476Y27142D01*
X43462Y27118D01*
X43451Y27090D01*
X43442Y27056D01*
X43436Y27017D01*
X43432Y26973D01*
X43431Y26923D01*
X43181D01*
X43180Y26973D01*
X43176Y27017D01*
X43170Y27056D01*
X43161Y27090D01*
X43150Y27118D01*
X43136Y27142D01*
X43120Y27160D01*
X43101Y27173D01*
X43080Y27181D01*
X43056Y27184D01*
X43555D01*
X43532Y27181D01*
D02*
G37*
G36*
X24127Y26825D02*
X24133Y26825D01*
Y26575D01*
X24127Y26575D01*
Y26450D01*
X24124Y26474D01*
X24117Y26495D01*
X24104Y26514D01*
X24087Y26530D01*
X24064Y26544D01*
X24036Y26555D01*
X24003Y26564D01*
X23981Y26567D01*
X23905Y26561D01*
X23861Y26554D01*
X23821Y26544D01*
X23787Y26533D01*
X23758Y26521D01*
X23733Y26506D01*
X23714Y26490D01*
Y26910D01*
X23733Y26894D01*
X23758Y26879D01*
X23787Y26867D01*
X23821Y26856D01*
X23861Y26846D01*
X23905Y26839D01*
X23975Y26832D01*
X24003Y26836D01*
X24036Y26845D01*
X24064Y26856D01*
X24087Y26870D01*
X24104Y26886D01*
X24117Y26905D01*
X24124Y26926D01*
X24127Y26950D01*
Y26825D01*
D02*
G37*
G36*
X39289Y26762D02*
X39265Y26776D01*
X39236Y26784D01*
X39202Y26786D01*
X39163Y26783D01*
X39118Y26774D01*
X39068Y26759D01*
X39012Y26738D01*
X38951Y26711D01*
X38814Y26640D01*
X38654Y26837D01*
X38714Y26872D01*
X38809Y26936D01*
X38844Y26966D01*
X38870Y26993D01*
X38887Y27019D01*
X38896Y27042D01*
X38897Y27064D01*
X38889Y27084D01*
X38872Y27102D01*
X39289Y26762D01*
D02*
G37*
G36*
X27372D02*
X27370Y26772D01*
X27362Y26782D01*
X27350Y26790D01*
X27332Y26797D01*
X27310Y26803D01*
X27282Y26808D01*
X27250Y26812D01*
X27170Y26817D01*
X27122Y26817D01*
Y27067D01*
X27170Y27068D01*
X27212Y27072D01*
X27250Y27078D01*
X27282Y27087D01*
X27310Y27098D01*
X27332Y27112D01*
X27350Y27128D01*
X27362Y27147D01*
X27370Y27168D01*
X27372Y27192D01*
Y26762D01*
D02*
G37*
G36*
X28847Y27084D02*
X28839Y27064D01*
X28840Y27043D01*
X28849Y27019D01*
X28867Y26994D01*
X28893Y26966D01*
X28928Y26937D01*
X28972Y26905D01*
X29024Y26872D01*
X29084Y26837D01*
X28924Y26640D01*
X28853Y26679D01*
X28725Y26738D01*
X28670Y26760D01*
X28619Y26775D01*
X28575Y26785D01*
X28535Y26788D01*
X28501Y26786D01*
X28473Y26778D01*
X28450Y26765D01*
X28863Y27102D01*
X28847Y27084D01*
D02*
G37*
G36*
X26326Y26926D02*
X26333Y26905D01*
X26346Y26886D01*
X26364Y26870D01*
X26386Y26856D01*
X26414Y26845D01*
X26447Y26836D01*
X26485Y26830D01*
X26528Y26826D01*
X26576Y26825D01*
Y26575D01*
X26528Y26574D01*
X26485Y26570D01*
X26447Y26564D01*
X26414Y26555D01*
X26386Y26544D01*
X26364Y26530D01*
X26346Y26514D01*
X26333Y26495D01*
X26326Y26474D01*
X26323Y26450D01*
Y26950D01*
X26326Y26926D01*
D02*
G37*
G36*
X87322Y26375D02*
X87212Y26478D01*
X87096Y26569D01*
X86973Y26650D01*
X86843Y26721D01*
X86706Y26780D01*
X86562Y26829D01*
X86412Y26866D01*
X86254Y26893D01*
X86090Y26910D01*
X85918Y26915D01*
Y27165D01*
X86090Y27170D01*
X86254Y27187D01*
X86412Y27214D01*
X86562Y27251D01*
X86706Y27300D01*
X86843Y27359D01*
X86973Y27430D01*
X87096Y27511D01*
X87212Y27602D01*
X87322Y27705D01*
Y26375D01*
D02*
G37*
G36*
X41503Y26430D02*
X41478Y26428D01*
X41451Y26421D01*
X41421Y26409D01*
X41389Y26393D01*
X41354Y26372D01*
X41318Y26346D01*
X41237Y26279D01*
X41193Y26239D01*
X41147Y26194D01*
X40970Y26371D01*
X41015Y26417D01*
X41122Y26542D01*
X41148Y26578D01*
X41169Y26613D01*
X41185Y26645D01*
X41197Y26675D01*
X41204Y26702D01*
X41206Y26727D01*
X41503Y26430D01*
D02*
G37*
G36*
X43913Y26384D02*
X43916Y26344D01*
X43922Y26309D01*
X43929Y26278D01*
X43939Y26253D01*
X43951Y26231D01*
X43964Y26215D01*
X43980Y26203D01*
X43998Y26196D01*
X44019Y26194D01*
X43556D01*
X43576Y26196D01*
X43594Y26203D01*
X43610Y26215D01*
X43624Y26231D01*
X43635Y26253D01*
X43645Y26278D01*
X43653Y26309D01*
X43658Y26344D01*
X43661Y26384D01*
X43662Y26429D01*
X43912D01*
X43913Y26384D01*
D02*
G37*
G36*
X40369Y26432D02*
X40376Y26412D01*
X40389Y26393D01*
X40406Y26377D01*
X40429Y26364D01*
X40456Y26353D01*
X40489Y26345D01*
X40526Y26338D01*
X40569Y26335D01*
X40616Y26334D01*
Y26084D01*
X40569Y26082D01*
X40526Y26079D01*
X40489Y26073D01*
X40456Y26064D01*
X40429Y26053D01*
X40406Y26040D01*
X40389Y26024D01*
X40376Y26006D01*
X40369Y25985D01*
X40366Y25962D01*
Y26456D01*
X40369Y26432D01*
D02*
G37*
G36*
X38872Y25962D02*
X38871Y25952D01*
X38869Y25943D01*
X38864Y25934D01*
X38858Y25926D01*
X38850Y25918D01*
X38841Y25911D01*
X38830Y25904D01*
X38817Y25897D01*
X38802Y25891D01*
X38785Y25885D01*
X38634Y26099D01*
X38679Y26115D01*
X38720Y26132D01*
X38756Y26150D01*
X38786Y26169D01*
X38813Y26189D01*
X38834Y26211D01*
X38851Y26233D01*
X38863Y26257D01*
X38870Y26281D01*
X38872Y26307D01*
Y25962D01*
D02*
G37*
G36*
X37954Y25618D02*
X37909Y25603D01*
X37833Y25572D01*
X37802Y25556D01*
X37776Y25541D01*
X37754Y25525D01*
X37737Y25509D01*
X37726Y25493D01*
X37718Y25478D01*
X37716Y25462D01*
Y25756D01*
X37717Y25765D01*
X37720Y25774D01*
X37724Y25783D01*
X37730Y25791D01*
X37738Y25799D01*
X37747Y25806D01*
X37759Y25813D01*
X37772Y25820D01*
X37787Y25826D01*
X37803Y25832D01*
X37954Y25618D01*
D02*
G37*
G36*
X27372Y25162D02*
X27370Y25185D01*
X27362Y25206D01*
X27350Y25224D01*
X27332Y25240D01*
X27310Y25253D01*
X27282Y25264D01*
X27250Y25273D01*
X27212Y25279D01*
X27170Y25282D01*
X27122Y25284D01*
Y25534D01*
X27170Y25535D01*
X27212Y25538D01*
X27250Y25545D01*
X27282Y25553D01*
X27310Y25564D01*
X27332Y25577D01*
X27350Y25593D01*
X27362Y25612D01*
X27370Y25632D01*
X27372Y25656D01*
Y25162D01*
D02*
G37*
G36*
X40369Y25632D02*
X40376Y25612D01*
X40389Y25593D01*
X40406Y25577D01*
X40429Y25564D01*
X40456Y25553D01*
X40489Y25545D01*
X40526Y25538D01*
X40569Y25535D01*
X40616Y25534D01*
Y25284D01*
X40569Y25282D01*
X40526Y25279D01*
X40489Y25273D01*
X40456Y25264D01*
X40429Y25253D01*
X40406Y25240D01*
X40389Y25224D01*
X40376Y25206D01*
X40369Y25185D01*
X40366Y25162D01*
Y25656D01*
X40369Y25632D01*
D02*
G37*
G36*
X28866Y25498D02*
X28873Y25476D01*
X28886Y25456D01*
X28904Y25437D01*
X28926Y25421D01*
X28954Y25407D01*
X28987Y25395D01*
X29024Y25384D01*
X29067Y25376D01*
X29115Y25370D01*
X29101Y25120D01*
X29028Y25128D01*
X28840Y25161D01*
X28866Y25162D01*
X28863Y25522D01*
X28866Y25498D01*
D02*
G37*
G36*
X38872Y25162D02*
X38870Y25158D01*
X38863Y25155D01*
X38851Y25151D01*
X38835Y25147D01*
X38787Y25138D01*
X38637Y25120D01*
X38624Y25370D01*
X38671Y25376D01*
X38713Y25384D01*
X38750Y25394D01*
X38783Y25407D01*
X38810Y25421D01*
X38832Y25437D01*
X38850Y25455D01*
X38862Y25476D01*
X38870Y25498D01*
X38872Y25522D01*
Y25162D01*
D02*
G37*
G36*
X37965Y25048D02*
X37917Y25042D01*
X37806Y25021D01*
X37778Y25013D01*
X37756Y25004D01*
X37738Y24994D01*
X37726Y24984D01*
X37719Y24973D01*
X37716Y24962D01*
Y25256D01*
X37718Y25259D01*
X37725Y25263D01*
X37737Y25266D01*
X37754Y25270D01*
X37801Y25279D01*
X37951Y25298D01*
X37965Y25048D01*
D02*
G37*
G36*
X29832Y25293D02*
X30013Y25263D01*
X30020Y25259D01*
X30022Y25256D01*
Y24962D01*
X30020Y24973D01*
X30012Y24984D01*
X30000Y24994D01*
X29982Y25004D01*
X29960Y25013D01*
X29933Y25021D01*
X29900Y25029D01*
X29821Y25042D01*
X29774Y25048D01*
X29787Y25298D01*
X29832Y25293D01*
D02*
G37*
G36*
X37719Y24751D02*
X37726Y24748D01*
X37739Y24744D01*
X37756Y24741D01*
X37779Y24739D01*
X37876Y24734D01*
X37966Y24734D01*
Y24484D01*
X37919Y24483D01*
X37739Y24473D01*
X37726Y24470D01*
X37719Y24466D01*
X37716Y24462D01*
Y24756D01*
X37719Y24751D01*
D02*
G37*
G36*
X30022Y24462D02*
X30020Y24466D01*
X30012Y24470D01*
X30000Y24473D01*
X29982Y24476D01*
X29960Y24478D01*
X29862Y24483D01*
X29772Y24484D01*
Y24734D01*
X29820Y24734D01*
X30000Y24744D01*
X30012Y24748D01*
X30020Y24751D01*
X30022Y24756D01*
Y24462D01*
D02*
G37*
G36*
X28869Y24832D02*
X28876Y24812D01*
X28889Y24793D01*
X28906Y24777D01*
X28929Y24764D01*
X28956Y24753D01*
X28989Y24745D01*
X29026Y24738D01*
X29069Y24735D01*
X29116Y24734D01*
Y24484D01*
X29069Y24482D01*
X29026Y24479D01*
X28989Y24473D01*
X28956Y24464D01*
X28929Y24453D01*
X28906Y24440D01*
X28889Y24424D01*
X28876Y24406D01*
X28869Y24385D01*
X28866Y24362D01*
Y24856D01*
X28869Y24832D01*
D02*
G37*
G36*
X27372Y24362D02*
X27370Y24385D01*
X27362Y24406D01*
X27350Y24424D01*
X27332Y24440D01*
X27310Y24453D01*
X27282Y24464D01*
X27250Y24473D01*
X27212Y24479D01*
X27170Y24482D01*
X27122Y24484D01*
Y24734D01*
X27170Y24735D01*
X27212Y24738D01*
X27250Y24745D01*
X27282Y24753D01*
X27310Y24764D01*
X27332Y24777D01*
X27350Y24793D01*
X27362Y24812D01*
X27370Y24832D01*
X27372Y24856D01*
Y24362D01*
D02*
G37*
G36*
X40369Y24832D02*
X40376Y24812D01*
X40389Y24793D01*
X40406Y24777D01*
X40429Y24764D01*
X40456Y24753D01*
X40489Y24745D01*
X40526Y24738D01*
X40569Y24735D01*
X40616Y24734D01*
Y24484D01*
X40569Y24482D01*
X40526Y24479D01*
X40489Y24473D01*
X40456Y24464D01*
X40429Y24453D01*
X40406Y24440D01*
X40389Y24424D01*
X40376Y24406D01*
X40369Y24385D01*
X40366Y24362D01*
Y24856D01*
X40369Y24832D01*
D02*
G37*
G36*
X38872Y24362D02*
X38870Y24385D01*
X38862Y24406D01*
X38850Y24424D01*
X38832Y24440D01*
X38810Y24453D01*
X38782Y24464D01*
X38750Y24473D01*
X38712Y24479D01*
X38670Y24482D01*
X38622Y24484D01*
Y24734D01*
X38670Y24735D01*
X38712Y24738D01*
X38750Y24745D01*
X38782Y24753D01*
X38810Y24764D01*
X38832Y24777D01*
X38850Y24793D01*
X38862Y24812D01*
X38870Y24832D01*
X38872Y24856D01*
Y24362D01*
D02*
G37*
G36*
X37719Y24244D02*
X37726Y24233D01*
X37738Y24223D01*
X37756Y24213D01*
X37778Y24204D01*
X37806Y24196D01*
X37838Y24188D01*
X37917Y24175D01*
X37965Y24170D01*
X37951Y23920D01*
X37878Y23928D01*
X37690Y23961D01*
X37716Y23962D01*
Y24256D01*
X37719Y24244D01*
D02*
G37*
G36*
X30022Y23962D02*
X30020Y23958D01*
X30013Y23955D01*
X30001Y23951D01*
X29985Y23947D01*
X29937Y23938D01*
X29787Y23920D01*
X29774Y24170D01*
X29821Y24175D01*
X29933Y24196D01*
X29960Y24204D01*
X29982Y24213D01*
X30000Y24223D01*
X30012Y24233D01*
X30020Y24244D01*
X30022Y24256D01*
Y23962D01*
D02*
G37*
G36*
X87255Y23910D02*
X87161Y24017D01*
X87058Y24113D01*
X86946Y24198D01*
X86825Y24272D01*
X86695Y24334D01*
X86556Y24385D01*
X86408Y24424D01*
X86251Y24452D01*
X86085Y24469D01*
X85910Y24475D01*
X85937Y24725D01*
X86103Y24730D01*
X86265Y24745D01*
X86422Y24771D01*
X86575Y24806D01*
X86723Y24852D01*
X86867Y24908D01*
X87006Y24974D01*
X87140Y25050D01*
X87270Y25136D01*
X87395Y25233D01*
X87255Y23910D01*
D02*
G37*
G36*
X29115Y23848D02*
X29067Y23841D01*
X29024Y23833D01*
X28987Y23823D01*
X28954Y23810D01*
X28926Y23796D01*
X28904Y23780D01*
X28886Y23762D01*
X28873Y23741D01*
X28866Y23719D01*
X28863Y23695D01*
X28866Y24056D01*
X28868Y24059D01*
X28875Y24063D01*
X28887Y24066D01*
X28904Y24070D01*
X28951Y24079D01*
X29101Y24098D01*
X29115Y23848D01*
D02*
G37*
G36*
X38682Y24093D02*
X38863Y24063D01*
X38870Y24059D01*
X38872Y24056D01*
Y23695D01*
X38870Y23719D01*
X38862Y23742D01*
X38850Y23762D01*
X38832Y23780D01*
X38810Y23796D01*
X38783Y23810D01*
X38750Y23823D01*
X38713Y23833D01*
X38671Y23841D01*
X38624Y23848D01*
X38637Y24098D01*
X38682Y24093D01*
D02*
G37*
G36*
X40369Y24032D02*
X40376Y24012D01*
X40389Y23993D01*
X40406Y23977D01*
X40429Y23964D01*
X40456Y23953D01*
X40489Y23945D01*
X40526Y23938D01*
X40569Y23935D01*
X40616Y23934D01*
Y23684D01*
X40569Y23682D01*
X40526Y23679D01*
X40489Y23673D01*
X40456Y23664D01*
X40429Y23653D01*
X40406Y23640D01*
X40389Y23624D01*
X40376Y23606D01*
X40369Y23585D01*
X40366Y23562D01*
Y24056D01*
X40369Y24032D01*
D02*
G37*
G36*
X27372Y23562D02*
X27370Y23585D01*
X27362Y23606D01*
X27350Y23624D01*
X27332Y23640D01*
X27310Y23653D01*
X27282Y23664D01*
X27250Y23673D01*
X27212Y23679D01*
X27170Y23682D01*
X27122Y23684D01*
Y23934D01*
X27170Y23935D01*
X27212Y23938D01*
X27250Y23945D01*
X27282Y23953D01*
X27310Y23964D01*
X27332Y23977D01*
X27350Y23993D01*
X27362Y24012D01*
X27370Y24032D01*
X27372Y24056D01*
Y23562D01*
D02*
G37*
G36*
X37718Y23740D02*
X37726Y23724D01*
X37737Y23708D01*
X37754Y23692D01*
X37776Y23677D01*
X37802Y23661D01*
X37833Y23645D01*
X37868Y23630D01*
X37954Y23599D01*
X37803Y23385D01*
X37759Y23400D01*
X37675Y23434D01*
X37662Y23442D01*
X37658Y23449D01*
X37660Y23455D01*
X37671Y23459D01*
X37690Y23461D01*
X37716Y23462D01*
Y23756D01*
X37718Y23740D01*
D02*
G37*
G36*
X30022Y23462D02*
X30021Y23452D01*
X30019Y23443D01*
X30014Y23434D01*
X30008Y23426D01*
X30000Y23418D01*
X29991Y23411D01*
X29980Y23404D01*
X29967Y23397D01*
X29952Y23391D01*
X29935Y23385D01*
X29784Y23599D01*
X29829Y23614D01*
X29906Y23645D01*
X29937Y23661D01*
X29963Y23677D01*
X29984Y23692D01*
X30001Y23708D01*
X30013Y23724D01*
X30020Y23740D01*
X30022Y23756D01*
Y23462D01*
D02*
G37*
G36*
X45743Y23306D02*
X45725Y23322D01*
X45706Y23330D01*
X45684Y23329D01*
X45660Y23320D01*
X45634Y23302D01*
X45606Y23276D01*
X45576Y23241D01*
X45543Y23198D01*
X45509Y23147D01*
X45473Y23087D01*
X45277Y23248D01*
X45317Y23318D01*
X45378Y23443D01*
X45400Y23497D01*
X45416Y23546D01*
X45425Y23590D01*
X45429Y23628D01*
X45428Y23662D01*
X45420Y23690D01*
X45406Y23712D01*
X45743Y23306D01*
D02*
G37*
G36*
X29104Y23118D02*
X29058Y23102D01*
X29018Y23085D01*
X28982Y23067D01*
X28950Y23048D01*
X28924Y23027D01*
X28902Y23006D01*
X28885Y22984D01*
X28873Y22960D01*
X28866Y22936D01*
X28863Y22910D01*
X28866Y23256D01*
X28867Y23265D01*
X28870Y23274D01*
X28874Y23283D01*
X28880Y23291D01*
X28888Y23299D01*
X28897Y23306D01*
X28909Y23313D01*
X28922Y23320D01*
X28937Y23326D01*
X28953Y23332D01*
X29104Y23118D01*
D02*
G37*
G36*
X38802Y23326D02*
X38817Y23320D01*
X38830Y23313D01*
X38841Y23306D01*
X38850Y23299D01*
X38858Y23291D01*
X38864Y23283D01*
X38869Y23274D01*
X38871Y23265D01*
X38872Y23256D01*
Y22910D01*
X38870Y22936D01*
X38863Y22960D01*
X38851Y22984D01*
X38834Y23006D01*
X38813Y23028D01*
X38786Y23048D01*
X38756Y23067D01*
X38720Y23085D01*
X38679Y23102D01*
X38634Y23118D01*
X38785Y23332D01*
X38802Y23326D01*
D02*
G37*
G36*
X40369Y23232D02*
X40376Y23212D01*
X40389Y23193D01*
X40406Y23177D01*
X40429Y23164D01*
X40456Y23153D01*
X40489Y23145D01*
X40526Y23138D01*
X40569Y23135D01*
X40616Y23134D01*
Y22884D01*
X40569Y22882D01*
X40526Y22879D01*
X40489Y22873D01*
X40456Y22864D01*
X40429Y22853D01*
X40406Y22840D01*
X40389Y22824D01*
X40376Y22806D01*
X40369Y22785D01*
X40366Y22762D01*
Y23256D01*
X40369Y23232D01*
D02*
G37*
G36*
X27372Y22762D02*
X27370Y22785D01*
X27362Y22806D01*
X27350Y22824D01*
X27332Y22840D01*
X27310Y22853D01*
X27282Y22864D01*
X27250Y22873D01*
X27212Y22879D01*
X27170Y22882D01*
X27122Y22884D01*
Y23134D01*
X27170Y23135D01*
X27212Y23138D01*
X27250Y23145D01*
X27282Y23153D01*
X27310Y23164D01*
X27332Y23177D01*
X27350Y23193D01*
X27362Y23212D01*
X27370Y23232D01*
X27372Y23256D01*
Y22762D01*
D02*
G37*
G36*
X50394Y23167D02*
X50379Y23142D01*
X50367Y23113D01*
X50356Y23079D01*
X50346Y23039D01*
X50339Y22995D01*
X50328Y22891D01*
X50328Y22880D01*
X50330Y22856D01*
X50336Y22818D01*
X50345Y22785D01*
X50356Y22757D01*
X50370Y22734D01*
X50386Y22717D01*
X50405Y22704D01*
X50426Y22696D01*
X50450Y22694D01*
X49950D01*
X49974Y22696D01*
X49995Y22704D01*
X50014Y22717D01*
X50030Y22734D01*
X50044Y22757D01*
X50055Y22785D01*
X50064Y22818D01*
X50070Y22856D01*
X50071Y22870D01*
X50061Y22995D01*
X50054Y23039D01*
X50044Y23079D01*
X50033Y23113D01*
X50021Y23142D01*
X50006Y23167D01*
X49990Y23186D01*
X50410D01*
X50394Y23167D01*
D02*
G37*
G36*
X14061Y22690D02*
X14042Y22706D01*
X14017Y22721D01*
X13988Y22733D01*
X13954Y22744D01*
X13914Y22754D01*
X13870Y22761D01*
X13766Y22772D01*
X13707Y22774D01*
X13642Y22775D01*
Y23025D01*
X13707Y23026D01*
X13870Y23039D01*
X13914Y23046D01*
X13954Y23056D01*
X13988Y23067D01*
X14017Y23079D01*
X14042Y23094D01*
X14061Y23110D01*
Y22690D01*
D02*
G37*
G36*
X12846Y23126D02*
X12854Y23105D01*
X12867Y23086D01*
X12884Y23070D01*
X12907Y23056D01*
X12935Y23045D01*
X12968Y23036D01*
X13006Y23030D01*
X13049Y23026D01*
X13097Y23025D01*
Y22775D01*
X13049Y22774D01*
X13006Y22770D01*
X12968Y22764D01*
X12935Y22755D01*
X12907Y22744D01*
X12884Y22730D01*
X12867Y22714D01*
X12854Y22695D01*
X12846Y22674D01*
X12844Y22650D01*
Y23150D01*
X12846Y23126D01*
D02*
G37*
G36*
X45041Y22344D02*
X45003Y22278D01*
X44946Y22160D01*
X44926Y22108D01*
X44912Y22063D01*
X44904Y22022D01*
X44902Y21987D01*
X44906Y21957D01*
X44915Y21932D01*
X44931Y21913D01*
X44555Y22253D01*
X44575Y22240D01*
X44596Y22235D01*
X44619Y22237D01*
X44644Y22247D01*
X44670Y22266D01*
X44698Y22291D01*
X44727Y22325D01*
X44758Y22366D01*
X44791Y22415D01*
X44826Y22472D01*
X45041Y22344D01*
D02*
G37*
G36*
X38885Y22539D02*
X39012Y22479D01*
X39068Y22459D01*
X39118Y22443D01*
X39163Y22434D01*
X39202Y22431D01*
X39236Y22433D01*
X39265Y22441D01*
X39289Y22456D01*
X38872Y22115D01*
X38889Y22133D01*
X38897Y22153D01*
X38896Y22175D01*
X38887Y22199D01*
X38870Y22224D01*
X38844Y22252D01*
X38809Y22281D01*
X38766Y22312D01*
X38714Y22345D01*
X38654Y22380D01*
X38814Y22577D01*
X38885Y22539D01*
D02*
G37*
G36*
X30376Y21965D02*
X30355Y21977D01*
X30331Y21983D01*
X30304Y21981D01*
X30273Y21973D01*
X30240Y21959D01*
X30203Y21937D01*
X30163Y21909D01*
X30119Y21874D01*
X30023Y21785D01*
X29846Y21961D01*
X29879Y21996D01*
X29936Y22062D01*
X29959Y22093D01*
X29978Y22123D01*
X29994Y22152D01*
X30006Y22180D01*
X30015Y22206D01*
X30020Y22231D01*
X30022Y22256D01*
X30376Y21965D01*
D02*
G37*
G36*
X40366Y22310D02*
X40373Y22289D01*
X40386Y22270D01*
X40404Y22254D01*
X40427Y22240D01*
X40455Y22229D01*
X40487Y22220D01*
X40525Y22214D01*
X40568Y22210D01*
X40616Y22209D01*
Y21959D01*
X40366Y21962D01*
X40363Y22334D01*
X40366Y22310D01*
D02*
G37*
G36*
X27169Y21786D02*
X26319D01*
X26242Y21791D01*
X26207Y21796D01*
X26177Y21802D01*
X26155Y21808D01*
X26146Y21811D01*
X26033Y21924D01*
X25849Y22000D01*
X25651D01*
X25467Y21924D01*
X25326Y21783D01*
X25250Y21599D01*
Y21401D01*
X25286Y21313D01*
X25321Y21198D01*
X25305Y20963D01*
X25288Y20770D01*
X25226Y20664D01*
X25199Y20623D01*
X25184Y20550D01*
X26272D01*
X26264Y20614D01*
X26277Y20597D01*
X26294Y20582D01*
X26315Y20568D01*
X26340Y20557D01*
X26360Y20550D01*
X26516D01*
X26501Y20623D01*
X26677Y21070D01*
X27169Y21001D01*
Y20776D01*
X27170Y20776D01*
X27250Y20782D01*
X27282Y20788D01*
X27310Y20795D01*
X27332Y20804D01*
X27350Y20814D01*
X27362Y20827D01*
X27370Y20840D01*
X27372Y20856D01*
Y20774D01*
X28119D01*
Y20609D01*
X28284D01*
Y20159D01*
X29064D01*
X29243Y19982D01*
X29419Y19804D01*
Y18766D01*
X29413Y18734D01*
X29419Y18702D01*
Y18116D01*
X29418Y18112D01*
X29419Y17909D01*
X29151Y17520D01*
X29063Y17431D01*
X28200D01*
X28073Y17406D01*
X27966Y17334D01*
X27366Y16734D01*
X27294Y16627D01*
X27269Y16500D01*
Y16300D01*
X26900D01*
Y15300D01*
X26900Y15200D01*
Y14800D01*
X26400Y14729D01*
X26349Y14750D01*
X26151D01*
X25967Y14674D01*
X25826Y14533D01*
X25750Y14349D01*
Y14151D01*
X25826Y13967D01*
X25967Y13826D01*
X26151Y13750D01*
X26349D01*
X26400Y13771D01*
X26900Y13700D01*
X26900Y13700D01*
X28300D01*
Y14700D01*
X28300Y14800D01*
Y15200D01*
X28300Y15300D01*
Y16300D01*
X28300Y16300D01*
X28376Y16769D01*
X28924D01*
X29000Y16300D01*
X29000D01*
Y15300D01*
X29000Y15200D01*
Y14800D01*
X29000Y14700D01*
Y13700D01*
X30400D01*
Y13700D01*
X30849Y13750D01*
X30875Y13761D01*
X31033Y13826D01*
X31174Y13967D01*
X31250Y14151D01*
Y14349D01*
X31174Y14533D01*
X31033Y14674D01*
X30849Y14750D01*
X30651D01*
X30400Y14800D01*
Y15200D01*
X30400Y15300D01*
Y16300D01*
X30400D01*
X30449Y16780D01*
X30903Y17235D01*
X30975Y17342D01*
X31000Y17469D01*
Y17909D01*
X31938D01*
Y15731D01*
X31963Y15604D01*
X32035Y15497D01*
X32137Y15394D01*
X32145Y15385D01*
X32203Y15315D01*
X32221Y15289D01*
X32235Y15267D01*
X32243Y15251D01*
X32246Y15243D01*
X32247Y15236D01*
X32250Y15225D01*
Y15151D01*
X32326Y14967D01*
X32467Y14826D01*
X32651Y14750D01*
X32849D01*
X33033Y14826D01*
X33076Y14869D01*
X33375Y14927D01*
X33674Y14869D01*
X33717Y14826D01*
X33901Y14750D01*
X34099D01*
X34283Y14826D01*
X34424Y14967D01*
X34500Y15151D01*
Y15349D01*
X34424Y15533D01*
X34283Y15674D01*
X34099Y15750D01*
X34025D01*
X34014Y15753D01*
X34007Y15754D01*
X33999Y15757D01*
X33983Y15765D01*
X33961Y15779D01*
X33937Y15795D01*
X33841Y15877D01*
X33401Y16318D01*
Y17909D01*
X33519D01*
Y17909D01*
X36619D01*
Y17909D01*
X36738D01*
Y16989D01*
X36736Y16971D01*
X36733Y16947D01*
X36640Y16885D01*
X36549Y16748D01*
X36538Y16695D01*
X36528Y16694D01*
X35966D01*
X35889Y16699D01*
X35853Y16704D01*
X35823Y16710D01*
X35801Y16716D01*
X35788Y16720D01*
X35787Y16722D01*
X35781Y16726D01*
X35683Y16824D01*
X35499Y16900D01*
X35301D01*
X35117Y16824D01*
X34976Y16683D01*
X34900Y16499D01*
Y16301D01*
X34976Y16117D01*
X35117Y15976D01*
X35301Y15900D01*
X35499D01*
X35683Y15976D01*
X35708Y16001D01*
X35708Y16001D01*
X35712Y16003D01*
X35721Y16006D01*
X35776Y16019D01*
X35805Y16023D01*
X35929Y16031D01*
X36523D01*
X36549Y15902D01*
X36640Y15765D01*
X36733Y15703D01*
X36736Y15679D01*
X36738Y15661D01*
Y15100D01*
X36500D01*
Y13750D01*
X37350D01*
X37750Y13750D01*
X38175Y13750D01*
Y14425D01*
Y15100D01*
X37850Y15100D01*
X37575Y15174D01*
X37562Y15306D01*
X37888Y15701D01*
X38025Y15742D01*
X38127Y15674D01*
X38288Y15642D01*
X38713D01*
X38873Y15674D01*
X39010Y15765D01*
X39368Y15872D01*
X39600Y15846D01*
X39651Y15825D01*
X39849D01*
X40033Y15901D01*
X40174Y16042D01*
X40250Y16226D01*
Y16424D01*
X40174Y16608D01*
X40033Y16749D01*
X39938Y16788D01*
X39853Y17109D01*
X39855Y17323D01*
X39949Y17417D01*
X40025Y17601D01*
Y17799D01*
X39949Y17983D01*
X39808Y18124D01*
X39624Y18200D01*
X39426D01*
X39242Y18124D01*
X39189Y18071D01*
X39179Y18066D01*
X39173Y18061D01*
X39166Y18058D01*
X39149Y18052D01*
X39124Y18046D01*
X39095Y18041D01*
X38969Y18031D01*
X38807D01*
X38320Y18112D01*
X38319Y18116D01*
Y19804D01*
X38495Y19982D01*
X38674Y20159D01*
X40362D01*
X40366Y20158D01*
X40569Y20159D01*
X40607Y20174D01*
X41419Y19363D01*
Y19285D01*
X41418Y19273D01*
X41409Y19182D01*
X41404Y19151D01*
X41398Y19126D01*
X41392Y19109D01*
X41389Y19102D01*
X41384Y19096D01*
X41379Y19086D01*
X41326Y19033D01*
X41250Y18849D01*
Y18651D01*
X41326Y18467D01*
X41467Y18326D01*
X41651Y18250D01*
X41849D01*
X42169Y17841D01*
Y14837D01*
X39831Y12500D01*
X24443D01*
X24317Y12589D01*
X24255Y12651D01*
X24205Y12722D01*
X24076Y12990D01*
X24095Y13044D01*
X24117Y13091D01*
X24140Y13132D01*
X24166Y13167D01*
X24201Y13206D01*
X24209Y13219D01*
X24260Y13270D01*
X24352Y13430D01*
X24400Y13608D01*
Y13792D01*
X24352Y13970D01*
X24260Y14130D01*
X24130Y14260D01*
X23970Y14352D01*
X23792Y14400D01*
X23608D01*
X23430Y14352D01*
X23270Y14260D01*
X23140Y14130D01*
X23048Y13970D01*
X23000Y13792D01*
Y13608D01*
X23048Y13430D01*
X23140Y13270D01*
X23191Y13219D01*
X23199Y13206D01*
X23234Y13167D01*
X23260Y13132D01*
X23283Y13091D01*
X23305Y13044D01*
X23324Y12990D01*
X23193Y12719D01*
X23191Y12716D01*
X22955Y12500D01*
X22250D01*
X19000Y15750D01*
Y22031D01*
X19646Y22677D01*
X27169D01*
Y21786D01*
D02*
G37*
G36*
X37718Y22231D02*
X37723Y22206D01*
X37732Y22180D01*
X37744Y22152D01*
X37760Y22123D01*
X37780Y22093D01*
X37803Y22062D01*
X37859Y21996D01*
X37893Y21961D01*
X37716Y21785D01*
X37666Y21833D01*
X37576Y21909D01*
X37536Y21937D01*
X37499Y21959D01*
X37465Y21973D01*
X37434Y21981D01*
X37407Y21983D01*
X37383Y21977D01*
X37363Y21965D01*
X37716Y22256D01*
X37718Y22231D01*
D02*
G37*
G36*
X29060Y21630D02*
X29012Y21590D01*
X28906Y21487D01*
X28883Y21459D01*
X28866Y21434D01*
X28856Y21412D01*
X28852Y21393D01*
X28854Y21377D01*
X28863Y21364D01*
X28564Y21652D01*
X28578Y21644D01*
X28596Y21641D01*
X28618Y21643D01*
X28644Y21651D01*
X28675Y21664D01*
X28709Y21683D01*
X28748Y21708D01*
X28838Y21773D01*
X28889Y21814D01*
X29060Y21630D01*
D02*
G37*
G36*
X44085Y21618D02*
X44083Y21638D01*
X44076Y21655D01*
X44065Y21670D01*
X44049Y21684D01*
X44028Y21695D01*
X44002Y21704D01*
X43972Y21711D01*
X43938Y21717D01*
X43898Y21720D01*
X43854Y21721D01*
Y21971D01*
X43899Y21972D01*
X43939Y21975D01*
X43974Y21980D01*
X44005Y21987D01*
X44031Y21996D01*
X44052Y22007D01*
X44069Y22021D01*
X44081Y22036D01*
X44088Y22053D01*
X44091Y22073D01*
X44085Y21618D01*
D02*
G37*
G36*
X14918Y21441D02*
X14541Y21136D01*
X14489Y21485D01*
X14503Y21476D01*
X14520Y21473D01*
X14541Y21477D01*
X14566Y21486D01*
X14595Y21501D01*
X14627Y21523D01*
X14663Y21551D01*
X14747Y21625D01*
X14794Y21671D01*
X14918Y21441D01*
D02*
G37*
G36*
X38900Y21773D02*
X39028Y21685D01*
X39063Y21666D01*
X39093Y21653D01*
X39119Y21645D01*
X39142Y21643D01*
X39160Y21647D01*
X39174Y21656D01*
X38872Y21364D01*
X38881Y21377D01*
X38884Y21394D01*
X38880Y21413D01*
X38870Y21435D01*
X38854Y21460D01*
X38831Y21488D01*
X38803Y21519D01*
X38768Y21553D01*
X38679Y21630D01*
X38849Y21814D01*
X38900Y21773D01*
D02*
G37*
G36*
X26010Y21657D02*
X26032Y21640D01*
X26059Y21626D01*
X26092Y21614D01*
X26129Y21603D01*
X26173Y21595D01*
X26221Y21588D01*
X26335Y21580D01*
X26399Y21579D01*
X26357Y21329D01*
X26292Y21329D01*
X26128Y21318D01*
X26083Y21312D01*
X26007Y21295D01*
X25977Y21285D01*
X25951Y21273D01*
X25930Y21260D01*
X25994Y21675D01*
X26010Y21657D01*
D02*
G37*
G36*
X27372Y21204D02*
X27370Y21228D01*
X27362Y21249D01*
X27350Y21268D01*
X27332Y21284D01*
X27310Y21298D01*
X27282Y21309D01*
X27250Y21318D01*
X27212Y21324D01*
X27170Y21328D01*
X27122Y21329D01*
Y21579D01*
X27170Y21580D01*
X27250Y21586D01*
X27282Y21591D01*
X27310Y21598D01*
X27332Y21607D01*
X27350Y21617D01*
X27362Y21628D01*
X27370Y21641D01*
X27372Y21656D01*
Y21204D01*
D02*
G37*
G36*
X40366Y21510D02*
X40373Y21489D01*
X40386Y21470D01*
X40404Y21454D01*
X40427Y21440D01*
X40455Y21429D01*
X40487Y21420D01*
X40525Y21414D01*
X40568Y21410D01*
X40616Y21409D01*
Y21159D01*
X40366Y21162D01*
X40363Y21534D01*
X40366Y21510D01*
D02*
G37*
G36*
X14061Y21065D02*
X14042Y21081D01*
X14017Y21096D01*
X13988Y21108D01*
X13954Y21119D01*
X13914Y21129D01*
X13870Y21136D01*
X13766Y21147D01*
X13707Y21149D01*
X13642Y21150D01*
Y21400D01*
X13707Y21401D01*
X13870Y21414D01*
X13914Y21421D01*
X13954Y21431D01*
X13988Y21442D01*
X14017Y21454D01*
X14042Y21469D01*
X14061Y21485D01*
Y21065D01*
D02*
G37*
G36*
X12846Y21501D02*
X12854Y21480D01*
X12867Y21461D01*
X12884Y21445D01*
X12907Y21431D01*
X12935Y21420D01*
X12968Y21411D01*
X13006Y21405D01*
X13049Y21401D01*
X13097Y21400D01*
Y21150D01*
X13049Y21149D01*
X13006Y21145D01*
X12968Y21139D01*
X12935Y21130D01*
X12907Y21119D01*
X12884Y21105D01*
X12867Y21089D01*
X12854Y21070D01*
X12846Y21049D01*
X12844Y21025D01*
Y21525D01*
X12846Y21501D01*
D02*
G37*
G36*
X29060Y20830D02*
X29012Y20790D01*
X28906Y20687D01*
X28883Y20659D01*
X28866Y20634D01*
X28856Y20612D01*
X28852Y20593D01*
X28854Y20577D01*
X28863Y20564D01*
X28564Y20852D01*
X28578Y20844D01*
X28596Y20841D01*
X28618Y20843D01*
X28644Y20851D01*
X28675Y20865D01*
X28709Y20883D01*
X28748Y20908D01*
X28838Y20973D01*
X28889Y21014D01*
X29060Y20830D01*
D02*
G37*
G36*
X31516Y20762D02*
X31492Y20760D01*
X31467Y20755D01*
X31440Y20746D01*
X31413Y20733D01*
X31384Y20717D01*
X31354Y20698D01*
X31323Y20675D01*
X31257Y20619D01*
X31222Y20585D01*
X31045Y20762D01*
X31093Y20812D01*
X31170Y20902D01*
X31198Y20942D01*
X31219Y20979D01*
X31234Y21013D01*
X31242Y21043D01*
X31243Y21070D01*
X31238Y21094D01*
X31225Y21115D01*
X31516Y20762D01*
D02*
G37*
G36*
X36501Y21094D02*
X36495Y21070D01*
X36496Y21043D01*
X36504Y21013D01*
X36519Y20979D01*
X36540Y20942D01*
X36568Y20902D01*
X36603Y20859D01*
X36693Y20762D01*
X36516Y20585D01*
X36482Y20619D01*
X36416Y20675D01*
X36384Y20698D01*
X36354Y20717D01*
X36326Y20733D01*
X36298Y20746D01*
X36271Y20755D01*
X36246Y20760D01*
X36222Y20762D01*
X36513Y21115D01*
X36501Y21094D01*
D02*
G37*
G36*
X38900Y20973D02*
X39028Y20885D01*
X39063Y20866D01*
X39093Y20853D01*
X39119Y20845D01*
X39142Y20843D01*
X39160Y20847D01*
X39174Y20856D01*
X38872Y20564D01*
X38881Y20577D01*
X38884Y20594D01*
X38880Y20613D01*
X38870Y20635D01*
X38854Y20660D01*
X38831Y20688D01*
X38803Y20719D01*
X38768Y20753D01*
X38679Y20830D01*
X38849Y21014D01*
X38900Y20973D01*
D02*
G37*
G36*
X32715Y20817D02*
X32719Y20806D01*
X32721Y20788D01*
X32722Y20762D01*
X33016D01*
X33000Y20759D01*
X32984Y20752D01*
X32968Y20740D01*
X32953Y20724D01*
X32937Y20702D01*
X32921Y20676D01*
X32906Y20645D01*
X32890Y20609D01*
X32860Y20524D01*
X32646Y20675D01*
X32660Y20718D01*
X32695Y20803D01*
X32703Y20815D01*
X32710Y20820D01*
X32715Y20817D01*
D02*
G37*
G36*
X33222Y20762D02*
X33516D01*
X33505Y20759D01*
X33494Y20752D01*
X33483Y20739D01*
X33474Y20722D01*
X33465Y20699D01*
X33457Y20672D01*
X33449Y20640D01*
X33436Y20560D01*
X33430Y20513D01*
X33180Y20526D01*
X33188Y20599D01*
X33222Y20788D01*
X33222Y20762D01*
D02*
G37*
G36*
X40369Y20832D02*
X40376Y20812D01*
X40389Y20793D01*
X40406Y20777D01*
X40429Y20764D01*
X40456Y20753D01*
X40489Y20745D01*
X40526Y20738D01*
X40569Y20735D01*
X40616Y20734D01*
Y20484D01*
X40569Y20482D01*
X40526Y20479D01*
X40489Y20473D01*
X40456Y20464D01*
X40429Y20453D01*
X40406Y20440D01*
X40389Y20424D01*
X40376Y20406D01*
X40369Y20385D01*
X40366Y20362D01*
Y20856D01*
X40369Y20832D01*
D02*
G37*
G36*
X62307Y20896D02*
X62269Y20843D01*
X62235Y20785D01*
X62206Y20721D01*
X62181Y20651D01*
X62161Y20575D01*
X62145Y20494D01*
X62134Y20407D01*
X62127Y20314D01*
X62126Y20257D01*
X62127Y20228D01*
X62135Y20185D01*
X62147Y20147D01*
X62165Y20115D01*
X62188Y20087D01*
X62215Y20065D01*
X62248Y20048D01*
X62285Y20035D01*
X62327Y20028D01*
X62375Y20025D01*
X62000Y19775D01*
X61625Y20025D01*
X61673Y20028D01*
X61715Y20035D01*
X61752Y20048D01*
X61785Y20065D01*
X61812Y20087D01*
X61835Y20115D01*
X61853Y20147D01*
X61865Y20185D01*
X61873Y20228D01*
X61874Y20257D01*
X61873Y20314D01*
X61855Y20494D01*
X61839Y20575D01*
X61819Y20651D01*
X61794Y20721D01*
X61765Y20785D01*
X61731Y20843D01*
X61693Y20896D01*
X61650Y20943D01*
X62350D01*
X62307Y20896D01*
D02*
G37*
G36*
X50426Y20504D02*
X50405Y20496D01*
X50386Y20483D01*
X50370Y20466D01*
X50356Y20443D01*
X50345Y20415D01*
X50336Y20382D01*
X50330Y20344D01*
X50326Y20301D01*
X50325Y20268D01*
X50327Y20228D01*
X50335Y20185D01*
X50347Y20147D01*
X50365Y20115D01*
X50388Y20087D01*
X50415Y20065D01*
X50447Y20048D01*
X50485Y20035D01*
X50528Y20028D01*
X50575Y20025D01*
X50200Y19775D01*
X49825Y20025D01*
X49873Y20028D01*
X49915Y20035D01*
X49952Y20048D01*
X49985Y20065D01*
X50013Y20087D01*
X50035Y20115D01*
X50053Y20147D01*
X50065Y20185D01*
X50072Y20228D01*
X50075Y20268D01*
X50074Y20301D01*
X50070Y20344D01*
X50064Y20382D01*
X50055Y20415D01*
X50044Y20443D01*
X50030Y20466D01*
X50014Y20483D01*
X49995Y20496D01*
X49974Y20504D01*
X49950Y20506D01*
X50450D01*
X50426Y20504D01*
D02*
G37*
G36*
X33358Y19841D02*
X33353Y19796D01*
X33323Y19615D01*
X33320Y19608D01*
X33316Y19606D01*
X32956D01*
X32980Y19608D01*
X33002Y19615D01*
X33022Y19628D01*
X33040Y19645D01*
X33057Y19668D01*
X33071Y19695D01*
X33083Y19727D01*
X33093Y19765D01*
X33102Y19807D01*
X33108Y19854D01*
X33358Y19841D01*
D02*
G37*
G36*
X32593Y19692D02*
X32587Y19676D01*
X32581Y19661D01*
X32574Y19648D01*
X32567Y19637D01*
X32559Y19627D01*
X32552Y19619D01*
X32543Y19613D01*
X32535Y19609D01*
X32526Y19606D01*
X32516Y19606D01*
X32171D01*
X32196Y19608D01*
X32221Y19615D01*
X32245Y19627D01*
X32267Y19644D01*
X32288Y19665D01*
X32309Y19691D01*
X32328Y19722D01*
X32346Y19758D01*
X32363Y19798D01*
X32379Y19844D01*
X32593Y19692D01*
D02*
G37*
G36*
X31074Y19629D02*
X31034Y19578D01*
X30945Y19450D01*
X30927Y19415D01*
X30913Y19385D01*
X30906Y19358D01*
X30904Y19336D01*
X30907Y19318D01*
X30916Y19304D01*
X30625Y19606D01*
X30638Y19597D01*
X30654Y19594D01*
X30673Y19598D01*
X30695Y19608D01*
X30720Y19624D01*
X30748Y19646D01*
X30779Y19675D01*
X30814Y19710D01*
X30891Y19799D01*
X31074Y19629D01*
D02*
G37*
G36*
X30274D02*
X30234Y19578D01*
X30145Y19450D01*
X30127Y19415D01*
X30113Y19385D01*
X30106Y19358D01*
X30104Y19336D01*
X30107Y19318D01*
X30116Y19304D01*
X29825Y19606D01*
X29838Y19597D01*
X29854Y19594D01*
X29873Y19598D01*
X29895Y19608D01*
X29920Y19624D01*
X29948Y19646D01*
X29979Y19675D01*
X30014Y19710D01*
X30091Y19799D01*
X30274Y19629D01*
D02*
G37*
G36*
X14815Y19838D02*
X14770Y19792D01*
X14663Y19667D01*
X14636Y19631D01*
X14615Y19596D01*
X14598Y19564D01*
X14585Y19535D01*
X14578Y19507D01*
X14575Y19482D01*
X14289Y19790D01*
X14314Y19791D01*
X14341Y19797D01*
X14371Y19808D01*
X14403Y19824D01*
X14437Y19845D01*
X14474Y19871D01*
X14513Y19901D01*
X14599Y19977D01*
X14645Y20022D01*
X14815Y19838D01*
D02*
G37*
G36*
X37688Y19751D02*
X37790Y19646D01*
X37818Y19624D01*
X37843Y19608D01*
X37865Y19598D01*
X37884Y19594D01*
X37900Y19597D01*
X37913Y19606D01*
X37622Y19304D01*
X37631Y19318D01*
X37634Y19336D01*
X37632Y19358D01*
X37625Y19385D01*
X37612Y19415D01*
X37593Y19450D01*
X37569Y19488D01*
X37505Y19578D01*
X37464Y19629D01*
X37648Y19799D01*
X37688Y19751D01*
D02*
G37*
G36*
X36888D02*
X36990Y19646D01*
X37018Y19624D01*
X37043Y19608D01*
X37065Y19598D01*
X37084Y19594D01*
X37100Y19597D01*
X37113Y19606D01*
X36822Y19304D01*
X36831Y19318D01*
X36834Y19336D01*
X36832Y19358D01*
X36825Y19385D01*
X36812Y19415D01*
X36793Y19450D01*
X36769Y19488D01*
X36705Y19578D01*
X36664Y19629D01*
X36848Y19799D01*
X36888Y19751D01*
D02*
G37*
G36*
X14111Y19239D02*
X14090Y19250D01*
X14064Y19261D01*
X14033Y19270D01*
X13997Y19278D01*
X13957Y19285D01*
X13862Y19294D01*
X13747Y19299D01*
X13683Y19300D01*
X13621Y19550D01*
X13686Y19551D01*
X13799Y19559D01*
X13847Y19566D01*
X13890Y19575D01*
X13927Y19586D01*
X13959Y19598D01*
X13985Y19613D01*
X14005Y19630D01*
X14020Y19649D01*
X14111Y19239D01*
D02*
G37*
G36*
X12846Y19651D02*
X12854Y19630D01*
X12867Y19611D01*
X12884Y19595D01*
X12907Y19581D01*
X12935Y19570D01*
X12968Y19561D01*
X13006Y19555D01*
X13049Y19551D01*
X13097Y19550D01*
Y19300D01*
X13049Y19299D01*
X13006Y19295D01*
X12968Y19289D01*
X12935Y19280D01*
X12907Y19269D01*
X12884Y19255D01*
X12867Y19239D01*
X12854Y19220D01*
X12846Y19199D01*
X12844Y19175D01*
Y19675D01*
X12846Y19651D01*
D02*
G37*
G36*
X41876Y19318D02*
X41889Y19155D01*
X41896Y19111D01*
X41906Y19071D01*
X41917Y19037D01*
X41929Y19008D01*
X41944Y18983D01*
X41960Y18964D01*
X41540D01*
X41556Y18983D01*
X41571Y19008D01*
X41583Y19037D01*
X41594Y19071D01*
X41604Y19111D01*
X41611Y19155D01*
X41622Y19259D01*
X41624Y19318D01*
X41625Y19383D01*
X41875D01*
X41876Y19318D01*
D02*
G37*
G36*
X50326Y18649D02*
X50330Y18606D01*
X50336Y18568D01*
X50345Y18535D01*
X50356Y18507D01*
X50370Y18484D01*
X50386Y18467D01*
X50405Y18454D01*
X50426Y18446D01*
X50450Y18444D01*
X49950D01*
X49974Y18446D01*
X49995Y18454D01*
X50014Y18467D01*
X50030Y18484D01*
X50044Y18507D01*
X50055Y18535D01*
X50064Y18568D01*
X50070Y18606D01*
X50074Y18649D01*
X50075Y18697D01*
X50325D01*
X50326Y18649D01*
D02*
G37*
G36*
X62375Y19075D02*
X62327Y19073D01*
X62285Y19065D01*
X62248Y19052D01*
X62215Y19035D01*
X62188Y19013D01*
X62165Y18985D01*
X62147Y18952D01*
X62135Y18915D01*
X62127Y18872D01*
X62125Y18828D01*
X62127Y18736D01*
X62145Y18556D01*
X62161Y18475D01*
X62181Y18399D01*
X62206Y18329D01*
X62235Y18265D01*
X62269Y18207D01*
X62307Y18154D01*
X62350Y18107D01*
X61650Y18107D01*
X61693Y18154D01*
X61731Y18207D01*
X61765Y18265D01*
X61794Y18329D01*
X61819Y18399D01*
X61839Y18475D01*
X61855Y18556D01*
X61866Y18643D01*
X61873Y18736D01*
X61875Y18828D01*
X61873Y18872D01*
X61865Y18915D01*
X61853Y18952D01*
X61835Y18985D01*
X61812Y19013D01*
X61785Y19035D01*
X61752Y19052D01*
X61715Y19065D01*
X61673Y19073D01*
X61625Y19075D01*
X62000Y19325D01*
X62375Y19075D01*
D02*
G37*
G36*
X38097Y18110D02*
X38081Y18105D01*
X38069Y18096D01*
X38061Y18083D01*
X38056Y18067D01*
X38054Y18048D01*
X38056Y18025D01*
X38061Y17998D01*
X38070Y17968D01*
X38083Y17935D01*
X37817Y17874D01*
X37798Y17919D01*
X37760Y17995D01*
X37740Y18026D01*
X37721Y18052D01*
X37701Y18074D01*
X37682Y18090D01*
X37662Y18102D01*
X37642Y18109D01*
X37622Y18112D01*
X38116D01*
X38097Y18110D01*
D02*
G37*
G36*
X37293Y18109D02*
X37272Y18102D01*
X37254Y18089D01*
X37238Y18072D01*
X37225Y18049D01*
X37214Y18022D01*
X37205Y17989D01*
X37199Y17952D01*
X37195Y17909D01*
X37194Y17862D01*
X36944D01*
X36943Y17909D01*
X36939Y17952D01*
X36933Y17989D01*
X36925Y18022D01*
X36914Y18049D01*
X36900Y18072D01*
X36884Y18089D01*
X36866Y18102D01*
X36845Y18109D01*
X36822Y18112D01*
X37316D01*
X37293Y18109D01*
D02*
G37*
G36*
X33293Y18109D02*
X33272Y18102D01*
X33254Y18089D01*
X33238Y18072D01*
X33225Y18049D01*
X33214Y18022D01*
X33205Y17989D01*
X33199Y17952D01*
X33195Y17909D01*
X33194Y17862D01*
X32944D01*
X32943Y17909D01*
X32939Y17952D01*
X32933Y17989D01*
X32925Y18022D01*
X32914Y18049D01*
X32900Y18072D01*
X32884Y18089D01*
X32866Y18102D01*
X32845Y18109D01*
X32822Y18112D01*
X33316D01*
X33293Y18109D01*
D02*
G37*
G36*
X32493D02*
X32472Y18102D01*
X32454Y18089D01*
X32438Y18072D01*
X32425Y18049D01*
X32414Y18022D01*
X32405Y17989D01*
X32399Y17952D01*
X32395Y17909D01*
X32394Y17862D01*
X32144D01*
X32143Y17909D01*
X32139Y17952D01*
X32133Y17989D01*
X32125Y18022D01*
X32114Y18049D01*
X32100Y18072D01*
X32084Y18089D01*
X32066Y18102D01*
X32045Y18109D01*
X32022Y18112D01*
X32516D01*
X32493Y18109D01*
D02*
G37*
G36*
X30893D02*
X30872Y18102D01*
X30854Y18089D01*
X30838Y18072D01*
X30825Y18049D01*
X30814Y18022D01*
X30805Y17989D01*
X30799Y17952D01*
X30795Y17909D01*
X30794Y17862D01*
X30544D01*
X30543Y17909D01*
X30539Y17952D01*
X30533Y17989D01*
X30525Y18022D01*
X30514Y18049D01*
X30500Y18072D01*
X30484Y18089D01*
X30466Y18102D01*
X30445Y18109D01*
X30422Y18112D01*
X30916D01*
X30893Y18109D01*
D02*
G37*
G36*
X30093D02*
X30072Y18102D01*
X30054Y18089D01*
X30038Y18072D01*
X30025Y18049D01*
X30014Y18022D01*
X30005Y17989D01*
X29999Y17952D01*
X29995Y17909D01*
X29994Y17862D01*
X29744D01*
X29743Y17909D01*
X29739Y17952D01*
X29733Y17989D01*
X29725Y18022D01*
X29714Y18049D01*
X29700Y18072D01*
X29684Y18089D01*
X29666Y18102D01*
X29645Y18109D01*
X29622Y18112D01*
X30116D01*
X30093Y18109D01*
D02*
G37*
G36*
X14811Y18134D02*
X14766Y18088D01*
X14659Y17963D01*
X14633Y17927D01*
X14612Y17892D01*
X14596Y17860D01*
X14584Y17830D01*
X14577Y17803D01*
X14575Y17778D01*
X14278Y18075D01*
X14303Y18077D01*
X14330Y18084D01*
X14360Y18096D01*
X14392Y18112D01*
X14427Y18133D01*
X14463Y18159D01*
X14544Y18226D01*
X14588Y18266D01*
X14634Y18311D01*
X14811Y18134D01*
D02*
G37*
G36*
X14061Y17565D02*
X14042Y17581D01*
X14017Y17596D01*
X13988Y17608D01*
X13954Y17619D01*
X13914Y17629D01*
X13870Y17636D01*
X13766Y17647D01*
X13707Y17649D01*
X13642Y17650D01*
Y17900D01*
X13707Y17901D01*
X13870Y17914D01*
X13914Y17921D01*
X13954Y17931D01*
X13988Y17942D01*
X14017Y17954D01*
X14042Y17969D01*
X14061Y17985D01*
Y17565D01*
D02*
G37*
G36*
X12846Y18001D02*
X12854Y17980D01*
X12867Y17961D01*
X12884Y17945D01*
X12907Y17931D01*
X12935Y17920D01*
X12968Y17911D01*
X13006Y17905D01*
X13049Y17901D01*
X13097Y17900D01*
Y17650D01*
X13049Y17649D01*
X13006Y17645D01*
X12968Y17639D01*
X12935Y17630D01*
X12907Y17619D01*
X12884Y17605D01*
X12867Y17589D01*
X12854Y17570D01*
X12846Y17549D01*
X12844Y17525D01*
Y18025D01*
X12846Y18001D01*
D02*
G37*
G36*
X39311Y17490D02*
X39292Y17506D01*
X39267Y17521D01*
X39238Y17533D01*
X39204Y17544D01*
X39164Y17554D01*
X39120Y17561D01*
X39016Y17572D01*
X38957Y17574D01*
X38892Y17575D01*
Y17825D01*
X38957Y17826D01*
X39120Y17839D01*
X39164Y17846D01*
X39204Y17856D01*
X39238Y17867D01*
X39267Y17879D01*
X39292Y17894D01*
X39311Y17910D01*
Y17490D01*
D02*
G37*
G36*
X37195Y17001D02*
X37199Y16957D01*
X37205Y16918D01*
X37214Y16884D01*
X37225Y16856D01*
X37239Y16834D01*
X37255Y16817D01*
X37274Y16805D01*
X37295Y16799D01*
X37319Y16798D01*
X36821Y16758D01*
X36844Y16763D01*
X36865Y16773D01*
X36884Y16788D01*
X36900Y16809D01*
X36913Y16836D01*
X36924Y16868D01*
X36933Y16906D01*
X36939Y16949D01*
X36943Y16997D01*
X36944Y17051D01*
X37194D01*
X37195Y17001D01*
D02*
G37*
G36*
X35656Y16564D02*
X35678Y16548D01*
X35706Y16534D01*
X35738Y16521D01*
X35777Y16511D01*
X35820Y16503D01*
X35869Y16496D01*
X35982Y16488D01*
X36047Y16487D01*
X36012Y16237D01*
X35948Y16237D01*
X35784Y16226D01*
X35739Y16219D01*
X35663Y16202D01*
X35633Y16191D01*
X35607Y16179D01*
X35586Y16165D01*
X35639Y16582D01*
X35656Y16564D01*
D02*
G37*
G36*
X38926Y16551D02*
X38933Y16530D01*
X38946Y16511D01*
X38964Y16495D01*
X38986Y16481D01*
X39014Y16470D01*
X39047Y16461D01*
X39085Y16455D01*
X39128Y16451D01*
X39156Y16451D01*
X39182Y16451D01*
X39345Y16464D01*
X39389Y16471D01*
X39429Y16481D01*
X39463Y16492D01*
X39492Y16504D01*
X39517Y16519D01*
X39536Y16535D01*
Y16115D01*
X39517Y16131D01*
X39492Y16146D01*
X39463Y16158D01*
X39429Y16169D01*
X39389Y16179D01*
X39345Y16186D01*
X39241Y16197D01*
X39182Y16199D01*
X39156Y16199D01*
X39128Y16199D01*
X39085Y16195D01*
X39047Y16189D01*
X39014Y16180D01*
X38986Y16169D01*
X38964Y16155D01*
X38946Y16139D01*
X38933Y16120D01*
X38926Y16099D01*
X38923Y16075D01*
Y16575D01*
X38926Y16551D01*
D02*
G37*
G36*
X36727Y16112D02*
X36725Y16136D01*
X36717Y16157D01*
X36705Y16176D01*
X36687Y16192D01*
X36664Y16206D01*
X36637Y16218D01*
X36604Y16226D01*
X36565Y16233D01*
X36522Y16236D01*
X36474Y16237D01*
Y16487D01*
X36523Y16489D01*
X36566Y16492D01*
X36605Y16499D01*
X36638Y16507D01*
X36667Y16519D01*
X36690Y16532D01*
X36708Y16548D01*
X36721Y16567D01*
X36729Y16588D01*
X36732Y16612D01*
X36727Y16112D01*
D02*
G37*
G36*
X29826Y16299D02*
X29830Y16256D01*
X29836Y16218D01*
X29845Y16185D01*
X29856Y16157D01*
X29870Y16134D01*
X29886Y16117D01*
X29905Y16104D01*
X29926Y16096D01*
X29950Y16094D01*
X29450D01*
X29474Y16096D01*
X29495Y16104D01*
X29514Y16117D01*
X29530Y16134D01*
X29544Y16157D01*
X29555Y16185D01*
X29564Y16218D01*
X29570Y16256D01*
X29574Y16299D01*
X29575Y16347D01*
X29825D01*
X29826Y16299D01*
D02*
G37*
G36*
X27726D02*
X27730Y16256D01*
X27736Y16218D01*
X27745Y16185D01*
X27756Y16157D01*
X27770Y16134D01*
X27786Y16117D01*
X27805Y16104D01*
X27826Y16096D01*
X27850Y16094D01*
X27350D01*
X27374Y16096D01*
X27395Y16104D01*
X27414Y16117D01*
X27430Y16134D01*
X27444Y16157D01*
X27455Y16185D01*
X27464Y16218D01*
X27470Y16256D01*
X27474Y16299D01*
X27475Y16347D01*
X27725D01*
X27726Y16299D01*
D02*
G37*
G36*
X10656Y15865D02*
X10654Y15889D01*
X10646Y15910D01*
X10633Y15929D01*
X10616Y15945D01*
X10593Y15959D01*
X10565Y15970D01*
X10532Y15979D01*
X10494Y15985D01*
X10451Y15989D01*
X10403Y15990D01*
Y16240D01*
X10451Y16241D01*
X10494Y16245D01*
X10532Y16251D01*
X10565Y16260D01*
X10593Y16271D01*
X10616Y16285D01*
X10633Y16301D01*
X10646Y16320D01*
X10654Y16341D01*
X10656Y16365D01*
Y15865D01*
D02*
G37*
G36*
X50426Y16254D02*
X50405Y16246D01*
X50386Y16233D01*
X50370Y16216D01*
X50356Y16193D01*
X50345Y16165D01*
X50336Y16132D01*
X50331Y16101D01*
X50339Y16005D01*
X50346Y15961D01*
X50356Y15921D01*
X50367Y15887D01*
X50379Y15858D01*
X50394Y15833D01*
X50410Y15814D01*
X49990D01*
X50006Y15833D01*
X50021Y15858D01*
X50033Y15887D01*
X50044Y15921D01*
X50054Y15961D01*
X50061Y16005D01*
X50070Y16093D01*
X50070Y16094D01*
X50064Y16132D01*
X50055Y16165D01*
X50044Y16193D01*
X50030Y16216D01*
X50014Y16233D01*
X49995Y16246D01*
X49974Y16254D01*
X49950Y16256D01*
X50450D01*
X50426Y16254D01*
D02*
G37*
G36*
X37319Y15852D02*
X37295Y15851D01*
X37274Y15845D01*
X37255Y15833D01*
X37239Y15816D01*
X37225Y15794D01*
X37214Y15766D01*
X37205Y15732D01*
X37199Y15693D01*
X37195Y15649D01*
X37194Y15599D01*
X36944D01*
X36943Y15653D01*
X36939Y15701D01*
X36933Y15744D01*
X36924Y15782D01*
X36913Y15814D01*
X36900Y15841D01*
X36884Y15862D01*
X36865Y15877D01*
X36844Y15887D01*
X36821Y15892D01*
X37319Y15852D01*
D02*
G37*
G36*
X4797Y16283D02*
X4806Y16231D01*
X4824Y16176D01*
X4850Y16117D01*
X4885Y16055D01*
X4928Y15989D01*
X4980Y15919D01*
X5110Y15769D01*
X5188Y15688D01*
X5012Y15512D01*
X4940Y15580D01*
X4809Y15687D01*
X4748Y15726D01*
X4692Y15755D01*
X4640Y15774D01*
X4591Y15783D01*
X4546Y15782D01*
X4505Y15771D01*
X4467Y15750D01*
X4797Y16331D01*
X4797Y16283D01*
D02*
G37*
G36*
X12835Y15948D02*
X12833Y15920D01*
X12840Y15887D01*
X12855Y15849D01*
X12878Y15808D01*
X12908Y15761D01*
X12947Y15710D01*
X13049Y15594D01*
X13112Y15530D01*
X12929Y15360D01*
X12873Y15413D01*
X12776Y15496D01*
X12734Y15526D01*
X12697Y15548D01*
X12664Y15562D01*
X12635Y15568D01*
X12611Y15567D01*
X12591Y15557D01*
X12575Y15539D01*
X12844Y15972D01*
X12835Y15948D01*
D02*
G37*
G36*
X33687Y15741D02*
X33812Y15634D01*
X33848Y15608D01*
X33883Y15587D01*
X33915Y15571D01*
X33945Y15559D01*
X33972Y15552D01*
X33997Y15550D01*
X33700Y15253D01*
X33698Y15278D01*
X33691Y15305D01*
X33679Y15335D01*
X33663Y15367D01*
X33642Y15402D01*
X33616Y15438D01*
X33549Y15519D01*
X33509Y15563D01*
X33464Y15609D01*
X33641Y15786D01*
X33687Y15741D01*
D02*
G37*
G36*
X32437D02*
X32562Y15634D01*
X32598Y15608D01*
X32633Y15587D01*
X32665Y15571D01*
X32695Y15559D01*
X32722Y15552D01*
X32747Y15550D01*
X32450Y15253D01*
X32448Y15278D01*
X32441Y15305D01*
X32429Y15335D01*
X32413Y15367D01*
X32392Y15402D01*
X32366Y15438D01*
X32299Y15519D01*
X32259Y15563D01*
X32214Y15609D01*
X32391Y15786D01*
X32437Y15741D01*
D02*
G37*
G36*
X37195Y15099D02*
X37199Y15056D01*
X37205Y15018D01*
X37214Y14985D01*
X37225Y14957D01*
X37239Y14934D01*
X37255Y14917D01*
X37274Y14904D01*
X37295Y14896D01*
X37319Y14894D01*
X36819D01*
X36843Y14896D01*
X36864Y14904D01*
X36883Y14917D01*
X36899Y14934D01*
X36913Y14957D01*
X36924Y14985D01*
X36933Y15018D01*
X36939Y15056D01*
X36943Y15099D01*
X36944Y15147D01*
X37194D01*
X37195Y15099D01*
D02*
G37*
G36*
X5188Y14912D02*
X5098Y14817D01*
X5018Y14724D01*
X4950Y14633D01*
X4893Y14545D01*
X4847Y14459D01*
X4812Y14375D01*
X4788Y14293D01*
X4776Y14213D01*
X4774Y14136D01*
X4784Y14060D01*
X4160Y14684D01*
X4236Y14674D01*
X4313Y14676D01*
X4393Y14688D01*
X4475Y14712D01*
X4559Y14747D01*
X4645Y14793D01*
X4733Y14850D01*
X4824Y14918D01*
X4917Y14998D01*
X5012Y15088D01*
X5188Y14912D01*
D02*
G37*
G36*
X27103Y14000D02*
X27101Y14024D01*
X27093Y14045D01*
X27081Y14064D01*
X27063Y14080D01*
X27041Y14094D01*
X27013Y14105D01*
X26981Y14114D01*
X26943Y14120D01*
X26901Y14124D01*
X26863Y14125D01*
X26818Y14124D01*
X26655Y14111D01*
X26611Y14104D01*
X26571Y14094D01*
X26537Y14083D01*
X26508Y14071D01*
X26483Y14056D01*
X26464Y14040D01*
Y14460D01*
X26483Y14444D01*
X26508Y14429D01*
X26537Y14417D01*
X26571Y14406D01*
X26611Y14396D01*
X26655Y14389D01*
X26759Y14378D01*
X26818Y14376D01*
X26863Y14375D01*
X26901Y14376D01*
X26943Y14380D01*
X26981Y14386D01*
X27013Y14395D01*
X27041Y14406D01*
X27063Y14420D01*
X27081Y14436D01*
X27093Y14455D01*
X27101Y14476D01*
X27103Y14500D01*
Y14000D01*
D02*
G37*
G36*
X10656Y14115D02*
X10654Y14139D01*
X10646Y14160D01*
X10633Y14179D01*
X10616Y14195D01*
X10593Y14209D01*
X10565Y14220D01*
X10532Y14229D01*
X10494Y14235D01*
X10451Y14239D01*
X10403Y14240D01*
Y14490D01*
X10451Y14491D01*
X10494Y14495D01*
X10532Y14501D01*
X10565Y14510D01*
X10593Y14521D01*
X10616Y14535D01*
X10633Y14551D01*
X10646Y14570D01*
X10654Y14591D01*
X10656Y14615D01*
Y14115D01*
D02*
G37*
G36*
X30196Y14476D02*
X30204Y14455D01*
X30217Y14436D01*
X30234Y14420D01*
X30257Y14406D01*
X30285Y14395D01*
X30317Y14386D01*
X30345Y14389D01*
X30389Y14396D01*
X30429Y14406D01*
X30463Y14417D01*
X30492Y14429D01*
X30517Y14444D01*
X30536Y14460D01*
Y14040D01*
X30517Y14056D01*
X30492Y14071D01*
X30463Y14083D01*
X30429Y14094D01*
X30389Y14104D01*
X30345Y14111D01*
X30319Y14114D01*
X30318Y14114D01*
X30285Y14105D01*
X30257Y14094D01*
X30234Y14080D01*
X30217Y14064D01*
X30204Y14045D01*
X30196Y14024D01*
X30194Y14000D01*
Y14124D01*
X30182Y14124D01*
X30117Y14125D01*
Y14375D01*
X30182Y14376D01*
X30194Y14377D01*
Y14500D01*
X30196Y14476D01*
D02*
G37*
G36*
X24007Y13296D02*
X23969Y13243D01*
X23935Y13185D01*
X23906Y13121D01*
X23881Y13051D01*
X23861Y12975D01*
X23845Y12894D01*
X23834Y12807D01*
X23827Y12714D01*
X23825Y12616D01*
X23575D01*
X23573Y12714D01*
X23555Y12894D01*
X23539Y12975D01*
X23519Y13051D01*
X23494Y13121D01*
X23465Y13185D01*
X23431Y13243D01*
X23393Y13296D01*
X23350Y13343D01*
X24050D01*
X24007Y13296D01*
D02*
G37*
G36*
X10706Y12350D02*
X10704Y12374D01*
X10696Y12395D01*
X10683Y12414D01*
X10666Y12430D01*
X10643Y12444D01*
X10615Y12455D01*
X10582Y12464D01*
X10544Y12470D01*
X10501Y12474D01*
X10453Y12475D01*
Y12725D01*
X10501Y12726D01*
X10544Y12730D01*
X10582Y12736D01*
X10615Y12745D01*
X10643Y12756D01*
X10666Y12770D01*
X10683Y12786D01*
X10696Y12805D01*
X10704Y12826D01*
X10706Y12850D01*
Y12350D01*
D02*
G37*
G36*
X81802Y12375D02*
X81753Y12373D01*
X81705Y12368D01*
X81658Y12359D01*
X81613Y12347D01*
X81570Y12331D01*
X81528Y12311D01*
X81488Y12288D01*
X81449Y12262D01*
X81411Y12232D01*
X81375Y12198D01*
X81021D01*
X81053Y12232D01*
X81075Y12262D01*
X81089Y12288D01*
X81095Y12311D01*
X81092Y12331D01*
X81080Y12347D01*
X81060Y12359D01*
X81031Y12368D01*
X80994Y12373D01*
X80948Y12375D01*
X81500Y12625D01*
X81802Y12375D01*
D02*
G37*
G36*
X23827Y12427D02*
X23835Y12385D01*
X23847Y12347D01*
X23865Y12315D01*
X23888Y12288D01*
X23915Y12265D01*
X23948Y12248D01*
X23985Y12235D01*
X24028Y12227D01*
X24075Y12225D01*
X23700Y11975D01*
X23325Y12225D01*
X23372Y12227D01*
X23415Y12235D01*
X23452Y12248D01*
X23485Y12265D01*
X23513Y12288D01*
X23535Y12315D01*
X23552Y12347D01*
X23565Y12385D01*
X23573Y12427D01*
X23575Y12475D01*
X23825D01*
X23827Y12427D01*
D02*
G37*
G36*
X12744Y12367D02*
X12729Y12342D01*
X12717Y12313D01*
X12706Y12279D01*
X12696Y12239D01*
X12689Y12195D01*
X12680Y12103D01*
X12800D01*
X12776Y12101D01*
X12755Y12093D01*
X12736Y12081D01*
X12720Y12063D01*
X12706Y12041D01*
X12695Y12013D01*
X12686Y11981D01*
X12680Y11943D01*
X12676Y11901D01*
X12675Y11853D01*
X12425D01*
X12424Y11901D01*
X12420Y11943D01*
X12414Y11981D01*
X12405Y12013D01*
X12394Y12041D01*
X12380Y12063D01*
X12364Y12081D01*
X12345Y12093D01*
X12324Y12101D01*
X12300Y12103D01*
X12419D01*
X12411Y12195D01*
X12404Y12239D01*
X12394Y12279D01*
X12383Y12313D01*
X12371Y12342D01*
X12356Y12367D01*
X12340Y12386D01*
X12760D01*
X12744Y12367D01*
D02*
G37*
G36*
X12676Y11499D02*
X12680Y11456D01*
X12686Y11418D01*
X12695Y11385D01*
X12706Y11357D01*
X12720Y11334D01*
X12736Y11317D01*
X12755Y11304D01*
X12776Y11296D01*
X12800Y11294D01*
X12300D01*
X12324Y11296D01*
X12345Y11304D01*
X12364Y11317D01*
X12380Y11334D01*
X12394Y11357D01*
X12405Y11385D01*
X12414Y11418D01*
X12420Y11456D01*
X12424Y11499D01*
X12425Y11547D01*
X12675D01*
X12676Y11499D01*
D02*
G37*
G36*
X8133Y11694D02*
X8158Y11679D01*
X8187Y11667D01*
X8221Y11656D01*
X8261Y11646D01*
X8305Y11639D01*
X8409Y11628D01*
X8468Y11626D01*
X8533Y11625D01*
Y11375D01*
X8468Y11374D01*
X8305Y11361D01*
X8261Y11354D01*
X8221Y11344D01*
X8187Y11333D01*
X8158Y11321D01*
X8133Y11306D01*
X8114Y11290D01*
Y11710D01*
X8133Y11694D01*
D02*
G37*
G36*
X27075Y11375D02*
X27028Y11373D01*
X26985Y11365D01*
X26948Y11352D01*
X26915Y11335D01*
X26888Y11312D01*
X26865Y11285D01*
X26847Y11252D01*
X26835Y11215D01*
X26828Y11176D01*
X26845Y11006D01*
X26861Y10925D01*
X26881Y10849D01*
X26906Y10779D01*
X26935Y10715D01*
X26969Y10657D01*
X27007Y10604D01*
X27050Y10557D01*
X26350D01*
X26393Y10604D01*
X26431Y10657D01*
X26465Y10715D01*
X26494Y10779D01*
X26519Y10849D01*
X26539Y10925D01*
X26555Y11006D01*
X26566Y11093D01*
X26572Y11175D01*
X26565Y11215D01*
X26552Y11252D01*
X26535Y11285D01*
X26513Y11312D01*
X26485Y11335D01*
X26452Y11352D01*
X26415Y11365D01*
X26372Y11373D01*
X26325Y11375D01*
X26700Y11625D01*
X27075Y11375D01*
D02*
G37*
G36*
X11251Y10301D02*
X11230Y10293D01*
X11211Y10281D01*
X11195Y10263D01*
X11181Y10241D01*
X11170Y10213D01*
X11161Y10181D01*
X11155Y10143D01*
X11151Y10101D01*
X11150Y10053D01*
X10900D01*
X10899Y10101D01*
X10895Y10143D01*
X10889Y10181D01*
X10880Y10213D01*
X10869Y10241D01*
X10855Y10263D01*
X10839Y10281D01*
X10820Y10293D01*
X10799Y10301D01*
X10775Y10303D01*
X11275D01*
X11251Y10301D01*
D02*
G37*
G36*
X11150Y9820D02*
X11151Y9755D01*
X11162Y9591D01*
X11169Y9547D01*
X11178Y9507D01*
X11188Y9472D01*
X11199Y9442D01*
X11212Y9416D01*
X11227Y9396D01*
X10809Y9431D01*
X10826Y9449D01*
X10842Y9472D01*
X10855Y9500D01*
X10867Y9533D01*
X10877Y9572D01*
X10885Y9616D01*
X10892Y9665D01*
X10899Y9778D01*
X10900Y9843D01*
X11150Y9820D01*
D02*
G37*
G36*
X66655Y9299D02*
X66659Y9256D01*
X66665Y9218D01*
X66674Y9185D01*
X66685Y9157D01*
X66699Y9134D01*
X66715Y9117D01*
X66734Y9104D01*
X66755Y9096D01*
X66779Y9094D01*
X66279D01*
X66302Y9096D01*
X66324Y9104D01*
X66342Y9117D01*
X66359Y9134D01*
X66372Y9157D01*
X66384Y9185D01*
X66392Y9218D01*
X66399Y9256D01*
X66402Y9299D01*
X66404Y9347D01*
X66654D01*
X66655Y9299D01*
D02*
G37*
G36*
X80526Y9049D02*
X80530Y9006D01*
X80536Y8968D01*
X80545Y8935D01*
X80556Y8907D01*
X80570Y8884D01*
X80586Y8867D01*
X80605Y8854D01*
X80626Y8846D01*
X80650Y8844D01*
X80150D01*
X80174Y8846D01*
X80195Y8854D01*
X80214Y8867D01*
X80230Y8884D01*
X80244Y8907D01*
X80255Y8935D01*
X80264Y8968D01*
X80270Y9006D01*
X80274Y9049D01*
X80275Y9097D01*
X80525D01*
X80526Y9049D01*
D02*
G37*
G36*
X81686Y8290D02*
X81667Y8306D01*
X81642Y8321D01*
X81613Y8333D01*
X81579Y8344D01*
X81539Y8354D01*
X81495Y8361D01*
X81391Y8372D01*
X81332Y8374D01*
X81267Y8375D01*
Y8625D01*
X81332Y8626D01*
X81495Y8639D01*
X81539Y8646D01*
X81579Y8656D01*
X81613Y8667D01*
X81642Y8679D01*
X81667Y8694D01*
X81686Y8710D01*
Y8290D01*
D02*
G37*
G36*
X80896Y8726D02*
X80904Y8705D01*
X80917Y8686D01*
X80934Y8670D01*
X80957Y8656D01*
X80985Y8645D01*
X81018Y8636D01*
X81056Y8630D01*
X81099Y8626D01*
X81147Y8625D01*
Y8375D01*
X81099Y8374D01*
X81056Y8370D01*
X81018Y8364D01*
X80985Y8355D01*
X80957Y8344D01*
X80934Y8330D01*
X80917Y8314D01*
X80904Y8295D01*
X80896Y8274D01*
X80894Y8250D01*
Y8750D01*
X80896Y8726D01*
D02*
G37*
G36*
X79883Y11638D02*
X79897Y11565D01*
X79865Y11400D01*
Y9250D01*
X79500D01*
Y8150D01*
X79500Y7750D01*
X79189Y7535D01*
X78940D01*
X78937Y7535D01*
X78860Y7543D01*
X78844Y7546D01*
X78830Y7560D01*
X78670Y7652D01*
X78492Y7700D01*
X78308D01*
X78130Y7652D01*
X77970Y7560D01*
X77840Y7430D01*
X77748Y7270D01*
X77700Y7092D01*
Y6908D01*
X77748Y6730D01*
X77840Y6570D01*
X77970Y6440D01*
X78130Y6348D01*
X78308Y6300D01*
X78492D01*
X78670Y6348D01*
X78830Y6440D01*
X78844Y6454D01*
X78856Y6456D01*
X78964Y6465D01*
X79189D01*
X79500Y6250D01*
X79500D01*
X79558Y6150D01*
X79328Y5750D01*
X77600D01*
Y5709D01*
X77500Y5350D01*
X77180D01*
Y4550D01*
X76950D01*
Y4320D01*
X76400D01*
Y3799D01*
X76400D01*
X76400D01*
X76057Y3663D01*
X76038Y3658D01*
X76000D01*
X75844Y3627D01*
X75712Y3538D01*
X75623Y3406D01*
X75592Y3250D01*
Y1950D01*
X75611Y1855D01*
X75527Y1666D01*
X75369Y1455D01*
X68019Y1455D01*
X67827Y1843D01*
X67829Y1855D01*
X67858Y2000D01*
Y3300D01*
X67827Y3456D01*
X67738Y3588D01*
X67606Y3677D01*
X67450Y3708D01*
X67250D01*
Y5600D01*
X67035D01*
Y6500D01*
X67400D01*
Y7600D01*
X67400Y8000D01*
X67400Y8400D01*
Y9500D01*
X67400D01*
X67357Y9900D01*
X67922Y10465D01*
X76950D01*
X77155Y10505D01*
X77328Y10622D01*
X78672Y11965D01*
X79665D01*
X79883Y11638D01*
D02*
G37*
G36*
X64983Y7444D02*
X65008Y7429D01*
X65037Y7417D01*
X65071Y7406D01*
X65111Y7396D01*
X65155Y7389D01*
X65259Y7378D01*
X65318Y7376D01*
X65383Y7375D01*
Y7125D01*
X65318Y7124D01*
X65155Y7111D01*
X65111Y7104D01*
X65071Y7094D01*
X65037Y7083D01*
X65008Y7071D01*
X64983Y7056D01*
X64964Y7040D01*
Y7460D01*
X64983Y7444D01*
D02*
G37*
G36*
X66003Y7000D02*
X66001Y7024D01*
X65993Y7045D01*
X65981Y7064D01*
X65963Y7080D01*
X65941Y7094D01*
X65913Y7105D01*
X65881Y7114D01*
X65843Y7120D01*
X65801Y7124D01*
X65753Y7125D01*
Y7375D01*
X65801Y7376D01*
X65843Y7380D01*
X65881Y7386D01*
X65913Y7395D01*
X65941Y7406D01*
X65963Y7420D01*
X65981Y7436D01*
X65993Y7455D01*
X66001Y7476D01*
X66003Y7500D01*
Y7000D01*
D02*
G37*
G36*
X78633Y7194D02*
X78658Y7179D01*
X78687Y7167D01*
X78721Y7156D01*
X78761Y7146D01*
X78805Y7139D01*
X78909Y7128D01*
X78968Y7126D01*
X79033Y7125D01*
Y6875D01*
X78968Y6874D01*
X78805Y6861D01*
X78761Y6854D01*
X78721Y6844D01*
X78687Y6833D01*
X78658Y6821D01*
X78633Y6806D01*
X78614Y6790D01*
Y7210D01*
X78633Y7194D01*
D02*
G37*
G36*
X79903Y6750D02*
X79901Y6774D01*
X79893Y6795D01*
X79881Y6814D01*
X79863Y6830D01*
X79841Y6844D01*
X79813Y6855D01*
X79781Y6864D01*
X79743Y6870D01*
X79701Y6874D01*
X79653Y6875D01*
Y7125D01*
X79701Y7126D01*
X79743Y7130D01*
X79781Y7136D01*
X79813Y7145D01*
X79841Y7156D01*
X79863Y7170D01*
X79881Y7186D01*
X79893Y7205D01*
X79901Y7226D01*
X79903Y7250D01*
Y6750D01*
D02*
G37*
G36*
X66726Y6904D02*
X66705Y6896D01*
X66686Y6883D01*
X66670Y6866D01*
X66656Y6843D01*
X66645Y6815D01*
X66636Y6782D01*
X66630Y6744D01*
X66626Y6701D01*
X66625Y6653D01*
X66375D01*
X66374Y6701D01*
X66370Y6744D01*
X66364Y6782D01*
X66355Y6815D01*
X66344Y6843D01*
X66330Y6866D01*
X66314Y6883D01*
X66295Y6896D01*
X66274Y6904D01*
X66250Y6906D01*
X66750D01*
X66726Y6904D01*
D02*
G37*
G36*
X80576Y6654D02*
X80555Y6646D01*
X80536Y6633D01*
X80520Y6616D01*
X80506Y6593D01*
X80495Y6565D01*
X80486Y6532D01*
X80480Y6494D01*
X80476Y6451D01*
X80475Y6403D01*
X80225D01*
X80224Y6451D01*
X80220Y6494D01*
X80214Y6532D01*
X80205Y6565D01*
X80194Y6593D01*
X80180Y6616D01*
X80164Y6633D01*
X80145Y6646D01*
X80124Y6654D01*
X80100Y6656D01*
X80600D01*
X80576Y6654D01*
D02*
G37*
G36*
X66626Y5399D02*
X66630Y5357D01*
X66636Y5319D01*
X66645Y5287D01*
X66656Y5259D01*
X66670Y5237D01*
X66686Y5219D01*
X66705Y5207D01*
X66726Y5199D01*
X66750Y5197D01*
X66250D01*
X66274Y5199D01*
X66295Y5207D01*
X66314Y5219D01*
X66330Y5237D01*
X66344Y5259D01*
X66355Y5287D01*
X66364Y5319D01*
X66370Y5357D01*
X66374Y5399D01*
X66375Y5447D01*
X66625D01*
X66626Y5399D01*
D02*
G37*
G36*
X80476Y5349D02*
X80480Y5307D01*
X80486Y5269D01*
X80495Y5237D01*
X80506Y5209D01*
X80520Y5187D01*
X80536Y5169D01*
X80555Y5157D01*
X80576Y5149D01*
X80600Y5147D01*
X80100D01*
X80124Y5149D01*
X80145Y5157D01*
X80164Y5169D01*
X80180Y5187D01*
X80194Y5209D01*
X80205Y5237D01*
X80214Y5269D01*
X80220Y5307D01*
X80224Y5349D01*
X80225Y5397D01*
X80475D01*
X80476Y5349D01*
D02*
G37*
%LPC*%
G36*
X32800Y44000D02*
X32465D01*
Y43565D01*
X32800D01*
Y44000D01*
D02*
G37*
G36*
Y43235D02*
X32465D01*
Y42800D01*
X32800D01*
Y43235D01*
D02*
G37*
G36*
X34230Y46597D02*
Y45755D01*
X34737D01*
Y45855D01*
X34709Y46064D01*
X34629Y46258D01*
X34501Y46426D01*
X34333Y46554D01*
X34230Y46597D01*
D02*
G37*
G36*
X33630Y46597D02*
X33527Y46554D01*
X33359Y46426D01*
X33231Y46258D01*
X33151Y46064D01*
X33123Y45855D01*
Y45755D01*
X33630D01*
Y46597D01*
D02*
G37*
G36*
X42870D02*
Y45755D01*
X43377D01*
Y45855D01*
X43349Y46064D01*
X43269Y46258D01*
X43141Y46426D01*
X42973Y46554D01*
X42870Y46597D01*
D02*
G37*
G36*
X42270Y46597D02*
X42167Y46554D01*
X41999Y46426D01*
X41871Y46258D01*
X41791Y46064D01*
X41763Y45855D01*
Y45755D01*
X42270D01*
Y46597D01*
D02*
G37*
G36*
X54300Y45740D02*
X53600D01*
Y45040D01*
X54300D01*
Y45740D01*
D02*
G37*
G36*
X42270Y45155D02*
X41763D01*
Y45055D01*
X41791Y44846D01*
X41871Y44652D01*
X41999Y44484D01*
X42167Y44356D01*
X42270Y44313D01*
Y45155D01*
D02*
G37*
G36*
X43377D02*
X42870D01*
Y44313D01*
X42973Y44356D01*
X43141Y44484D01*
X43269Y44652D01*
X43349Y44846D01*
X43377Y45055D01*
Y45155D01*
D02*
G37*
G36*
X42870Y42417D02*
Y41575D01*
X43377D01*
Y41675D01*
X43349Y41884D01*
X43269Y42078D01*
X43141Y42246D01*
X42973Y42374D01*
X42870Y42417D01*
D02*
G37*
G36*
X43377Y40975D02*
X42870D01*
Y40133D01*
X42973Y40176D01*
X43141Y40304D01*
X43269Y40472D01*
X43349Y40666D01*
X43377Y40875D01*
Y40975D01*
D02*
G37*
G36*
X28020Y40400D02*
X27700D01*
Y39930D01*
X27904D01*
X27906Y39950D01*
Y39930D01*
X28020D01*
Y40400D01*
D02*
G37*
G36*
X4825Y39959D02*
X4375D01*
Y38950D01*
X5877D01*
X5848Y39174D01*
X5742Y39430D01*
X5574Y39649D01*
X5355Y39817D01*
X5099Y39923D01*
X4825Y39959D01*
D02*
G37*
G36*
X2775D02*
X2325D01*
X2051Y39923D01*
X1795Y39817D01*
X1576Y39649D01*
X1408Y39430D01*
X1302Y39174D01*
X1273Y38950D01*
X2775D01*
Y39959D01*
D02*
G37*
G36*
X15500Y37492D02*
Y36900D01*
X16092D01*
X16090Y36910D01*
X15950Y37152D01*
X15752Y37350D01*
X15510Y37490D01*
X15500Y37492D01*
D02*
G37*
G36*
X14700D02*
X14690Y37490D01*
X14448Y37350D01*
X14250Y37152D01*
X14110Y36910D01*
X14108Y36900D01*
X14700D01*
Y37492D01*
D02*
G37*
G36*
X42000Y36820D02*
X41804D01*
X41796Y36799D01*
X41794Y36775D01*
Y36820D01*
X41530D01*
Y36500D01*
X42000D01*
Y36820D01*
D02*
G37*
G36*
X5877Y37350D02*
X4375D01*
Y36341D01*
X4825D01*
X5099Y36377D01*
X5355Y36483D01*
X5574Y36651D01*
X5742Y36870D01*
X5848Y37126D01*
X5877Y37350D01*
D02*
G37*
G36*
X2775D02*
X1273D01*
X1302Y37126D01*
X1408Y36870D01*
X1576Y36651D01*
X1795Y36483D01*
X2051Y36377D01*
X2325Y36341D01*
X2775D01*
Y37350D01*
D02*
G37*
G36*
X85137Y33534D02*
X84930D01*
Y33230D01*
X85576D01*
X85573Y33243D01*
X85471Y33396D01*
X85318Y33498D01*
X85137Y33534D01*
D02*
G37*
G36*
X84070D02*
X83863D01*
X83682Y33498D01*
X83529Y33396D01*
X83427Y33243D01*
X83424Y33230D01*
X84070D01*
Y33534D01*
D02*
G37*
G36*
X89250Y33370D02*
X88550D01*
Y32670D01*
X89250D01*
Y33370D01*
D02*
G37*
G36*
X87450D02*
X86750D01*
Y32670D01*
X87450D01*
Y33370D01*
D02*
G37*
G36*
X12921Y27800D02*
X11125D01*
Y27144D01*
X12200D01*
X12389Y27169D01*
X12566Y27242D01*
X12717Y27358D01*
X12833Y27509D01*
X12906Y27686D01*
X12921Y27800D01*
D02*
G37*
G36*
X10125D02*
X8329D01*
X8344Y27686D01*
X8417Y27509D01*
X8533Y27358D01*
X8684Y27242D01*
X8861Y27169D01*
X9050Y27144D01*
X10125D01*
Y27800D01*
D02*
G37*
G36*
X4825Y27259D02*
X4375D01*
Y26250D01*
X5877D01*
X5848Y26474D01*
X5742Y26730D01*
X5574Y26949D01*
X5355Y27117D01*
X5099Y27223D01*
X4825Y27259D01*
D02*
G37*
G36*
X2775D02*
X2325D01*
X2051Y27223D01*
X1795Y27117D01*
X1576Y26949D01*
X1408Y26730D01*
X1302Y26474D01*
X1273Y26250D01*
X2775D01*
Y27259D01*
D02*
G37*
G36*
X5877Y24650D02*
X4375D01*
Y23641D01*
X4825D01*
X5099Y23677D01*
X5355Y23783D01*
X5574Y23951D01*
X5742Y24170D01*
X5848Y24426D01*
X5877Y24650D01*
D02*
G37*
G36*
X2775D02*
X1273D01*
X1302Y24426D01*
X1408Y24170D01*
X1576Y23951D01*
X1795Y23783D01*
X2051Y23677D01*
X2325Y23641D01*
X2775D01*
Y24650D01*
D02*
G37*
G36*
X10770Y23600D02*
X10450D01*
Y23130D01*
X10770D01*
Y23600D01*
D02*
G37*
G36*
X46483Y21480D02*
X46158D01*
Y21114D01*
X46231Y21129D01*
X46368Y21220D01*
X46459Y21357D01*
X46483Y21480D01*
D02*
G37*
G36*
X89126Y18870D02*
X88000D01*
X86874D01*
X87000Y18652D01*
X87232Y18420D01*
X87300Y18381D01*
Y17919D01*
X87232Y17880D01*
X87000Y17648D01*
X86874Y17430D01*
X88000D01*
X89126D01*
X89000Y17648D01*
X88768Y17880D01*
X88700Y17919D01*
Y18381D01*
X88768Y18420D01*
X89000Y18652D01*
X89126Y18870D01*
D02*
G37*
G36*
Y16330D02*
X88550D01*
Y15754D01*
X88768Y15880D01*
X89000Y16112D01*
X89126Y16330D01*
D02*
G37*
G36*
X87450D02*
X86874D01*
X87000Y16112D01*
X87232Y15880D01*
X87450Y15754D01*
Y16330D01*
D02*
G37*
G36*
X3600Y11000D02*
X2968D01*
X2975Y10975D01*
X3120Y10725D01*
X3325Y10520D01*
X3575Y10375D01*
X3600Y10368D01*
Y11000D01*
D02*
G37*
G36*
X5032D02*
X4400D01*
Y10368D01*
X4425Y10375D01*
X4675Y10520D01*
X4880Y10725D01*
X5025Y10975D01*
X5032Y11000D01*
D02*
G37*
G36*
X62870Y5400D02*
X62550D01*
Y4830D01*
X62870D01*
Y5400D01*
D02*
G37*
G36*
X29201Y32200D02*
X28875D01*
Y31834D01*
X28948Y31849D01*
X29085Y31940D01*
X29176Y32077D01*
X29201Y32200D01*
D02*
G37*
G36*
X85137Y30484D02*
X84930D01*
Y30180D01*
X85576D01*
X85573Y30193D01*
X85471Y30346D01*
X85318Y30448D01*
X85137Y30484D01*
D02*
G37*
G36*
X84070D02*
X83863D01*
X83682Y30448D01*
X83529Y30346D01*
X83427Y30193D01*
X83424Y30180D01*
X84070D01*
Y30484D01*
D02*
G37*
G36*
X85576Y29320D02*
X84930D01*
Y29016D01*
X85137D01*
X85318Y29052D01*
X85471Y29154D01*
X85573Y29307D01*
X85576Y29320D01*
D02*
G37*
G36*
X84070D02*
X83424D01*
X83427Y29307D01*
X83529Y29154D01*
X83682Y29052D01*
X83863Y29016D01*
X84070D01*
Y29320D01*
D02*
G37*
G36*
X27954Y20444D02*
X27372D01*
Y20400D01*
X27370Y20424D01*
X27363Y20444D01*
X27169D01*
Y20159D01*
X27954D01*
Y20444D01*
D02*
G37*
G36*
X26516Y19950D02*
X25184D01*
X25199Y19877D01*
X25258Y19575D01*
X25199Y19273D01*
X25167Y19112D01*
Y18688D01*
X25199Y18527D01*
X25290Y18390D01*
X25397Y18032D01*
X25371Y17800D01*
X25350Y17749D01*
Y17551D01*
X25426Y17367D01*
X25567Y17226D01*
X25751Y17150D01*
X25949D01*
X26133Y17226D01*
X26274Y17367D01*
X26350Y17551D01*
Y17749D01*
X26329Y17800D01*
X26303Y18032D01*
X26410Y18390D01*
X26501Y18527D01*
X26533Y18688D01*
Y19112D01*
X26501Y19273D01*
X26442Y19575D01*
X26501Y19877D01*
X26516Y19950D01*
D02*
G37*
G36*
X38775Y15100D02*
Y14725D01*
X39100D01*
Y15100D01*
X38775D01*
D02*
G37*
G36*
X39100Y14125D02*
X38775D01*
Y13750D01*
X39100D01*
Y14125D01*
D02*
G37*
%LPD*%
G36*
X26076Y18474D02*
X26055Y18467D01*
X26036Y18454D01*
X26020Y18437D01*
X26006Y18414D01*
X25995Y18386D01*
X25986Y18353D01*
X25980Y18315D01*
X25976Y18272D01*
X25976Y18244D01*
X25976Y18218D01*
X25989Y18055D01*
X25996Y18011D01*
X26006Y17971D01*
X26017Y17937D01*
X26029Y17908D01*
X26044Y17883D01*
X26060Y17864D01*
X25640D01*
X25656Y17883D01*
X25671Y17908D01*
X25683Y17937D01*
X25694Y17971D01*
X25704Y18011D01*
X25711Y18055D01*
X25722Y18159D01*
X25724Y18218D01*
X25724Y18244D01*
X25724Y18272D01*
X25720Y18315D01*
X25714Y18353D01*
X25705Y18386D01*
X25694Y18414D01*
X25680Y18437D01*
X25664Y18454D01*
X25645Y18467D01*
X25624Y18474D01*
X25600Y18477D01*
X26100D01*
X26076Y18474D01*
D02*
G37*
%LPC*%
G36*
X76720Y5350D02*
X76400D01*
Y4780D01*
X76720D01*
Y5350D01*
D02*
G37*
%LPD*%
D10*
X29046Y28235D02*
G03*
X29027Y28252I-177J-176D01*
G01*
X35273Y37527D02*
G03*
X35096Y37600I-176J-177D01*
G01*
X38692Y20982D02*
G03*
X38711Y20965I177J176D01*
G01*
X29897Y26240D02*
G03*
X29921Y26229I122J218D01*
G01*
X31694Y28542D02*
G03*
X31688Y28550I-325J-234D01*
G01*
X29027Y20965D02*
G03*
X29046Y20982I-158J194D01*
G01*
X37869Y18148D02*
G03*
X37994Y17846I427J0D01*
G01*
X37069Y14560D02*
G03*
X37125Y14425I191J0D01*
G01*
X31712Y20600D02*
G03*
X31749Y20661I-193J159D01*
G01*
X30243Y19786D02*
G03*
X30226Y19767I176J-177D01*
G01*
X32249Y28557D02*
G03*
X32237Y28580I-230J-98D01*
G01*
X38711Y27452D02*
G03*
X38710Y27451I158J-194D01*
G01*
X37817Y26729D02*
G03*
X37878Y26766I-98J230D01*
G01*
X37817Y26229D02*
G03*
X37841Y26240I-98J230D01*
G01*
Y22977D02*
G03*
X37817Y22989I-122J-218D01*
G01*
X37878Y22451D02*
G03*
X37817Y22489I-159J-193D01*
G01*
X38710Y21766D02*
G03*
X38711Y21765I159J193D01*
G01*
X37513Y19767D02*
G03*
X37496Y19786I-194J-158D01*
G01*
X36713Y19767D02*
G03*
X36712Y19767I-194J-158D01*
G01*
X29921Y22489D02*
G03*
X29860Y22451I98J-230D01*
G01*
X29027Y21765D02*
G03*
X29028Y21766I-158J194D01*
G01*
X29028Y27451D02*
G03*
X29027Y27452I-159J-193D01*
G01*
X29860Y26766D02*
G03*
X29921Y26729I159J193D01*
G01*
X35501Y28580D02*
G03*
X35489Y28557I218J-122D01*
G01*
X36026Y28618D02*
G03*
X35989Y28557I193J-159D01*
G01*
X36712Y29450D02*
G03*
X36713Y29450I-193J159D01*
G01*
X37496Y29431D02*
G03*
X37513Y29450I-176J177D01*
G01*
X26614Y27809D02*
X28119D01*
X26219Y28109D02*
X26314D01*
X26614Y27809D01*
X29046Y28235D02*
X30144Y27134D01*
X25985Y29212D02*
X26002D01*
X25000Y28000D02*
X25704Y28704D01*
Y28932D02*
X25985Y29212D01*
X25704Y28704D02*
Y28932D01*
X81500Y12500D02*
X88000D01*
X78450D02*
X81500D01*
X80400Y8500D02*
Y11400D01*
X81500Y12500D01*
X66529Y8779D02*
Y9829D01*
X67700Y11000D01*
X76950D01*
X66500Y8750D02*
X66529Y8779D01*
X88000Y29580D02*
X89670D01*
X91000Y28250D01*
Y15500D02*
Y28250D01*
X76950Y11000D02*
X78450Y12500D01*
X88000D02*
X91000Y15500D01*
X35273Y37527D02*
X35900Y36900D01*
X36500D01*
X33400Y37600D02*
X35096D01*
X26700Y11500D02*
X40300D01*
X43200Y14400D02*
Y19500D01*
X40300Y11500D02*
X43200Y14400D01*
X40616Y22084D02*
X43200Y19500D01*
X25800Y34200D02*
X27225D01*
X40641Y20609D02*
X41750Y19500D01*
X39619Y20609D02*
X40641D01*
X41750Y18750D02*
Y19500D01*
X37594Y22084D02*
X38692Y20982D01*
X38711Y20965D02*
X38994Y20734D01*
X37269Y22109D02*
X37594Y22084D01*
X38994Y20734D02*
X39619Y20609D01*
X25850Y17650D02*
Y18900D01*
X29921Y26229D02*
X30144Y26134D01*
X28744Y26884D02*
X29897Y26240D01*
X28119Y27009D02*
X28744Y26884D01*
X30144Y26134D02*
X30469Y26109D01*
X62000Y19200D02*
X74900D01*
X50100D02*
X62000D01*
X62000Y17750D02*
X62000Y17750D01*
Y19200D01*
Y19900D02*
X74300D01*
X50200D02*
X62000D01*
Y21300D01*
X80400Y8500D02*
X81900D01*
X80350Y4550D02*
Y6950D01*
X80400Y7000D01*
X78400D02*
X80400D01*
X66500Y4600D02*
Y7250D01*
X64750D02*
X66500D01*
X33069Y16181D02*
X33811Y15439D01*
X33069Y16181D02*
Y18859D01*
X32269Y15731D02*
X32750Y15250D01*
X32269Y15731D02*
Y18859D01*
X33194Y19484D02*
X33344Y20884D01*
X33069Y18859D02*
X33194Y19484D01*
X33344Y20884D02*
X33369Y21209D01*
X32394Y19484D02*
X32844Y20884D01*
X32269Y18859D02*
X32394Y19484D01*
X32844Y20884D02*
X32869Y21209D01*
X25175Y30575D02*
X26000D01*
X24500Y31250D02*
X25175Y30575D01*
X12550Y10800D02*
Y12600D01*
X13135Y15000D02*
X17900D01*
X21400Y11500D02*
X26700D01*
X17900Y15000D02*
X21400Y11500D01*
X12500Y15883D02*
Y15965D01*
X13065Y15400D02*
X18400D01*
X21700Y12100D01*
X23700D01*
X30794Y29734D02*
X31688Y28550D01*
X31694Y28542D02*
X31844Y28334D01*
X28538Y34338D02*
X28675Y34200D01*
X28525Y32550D02*
Y34350D01*
X28625Y34150D02*
X28675Y34200D01*
X29046Y20982D02*
X30144Y22084D01*
X26239Y29240D02*
X26279Y29200D01*
X26002Y29212D02*
X26015Y29200D01*
X26250Y14250D02*
X27600D01*
X29700Y14250D02*
X29700Y14250D01*
X30750D01*
X37069Y16362D02*
Y18859D01*
Y14560D02*
Y16362D01*
X37113D01*
X35438D02*
X37069D01*
X35400Y16400D02*
X35438Y16362D01*
X37113D02*
X37150Y16325D01*
X28744Y28484D02*
X29027Y28252D01*
X26279Y29200D02*
X26685D01*
X26015D02*
X26279D01*
X40475Y40875D02*
Y41450D01*
X40200Y41725D02*
X40475Y41450D01*
X40200Y41725D02*
Y41900D01*
X40475Y40875D02*
X40650Y40700D01*
X36025Y41450D02*
X36700Y42125D01*
Y42500D01*
X35850Y40700D02*
X36025Y40875D01*
Y41450D01*
X41300Y37050D02*
X41325Y37025D01*
X42375D01*
X42400Y37000D01*
X27450Y39700D02*
X28250D01*
X36975Y39846D02*
Y40675D01*
X36829Y39700D02*
X36975Y39846D01*
X29750Y39700D02*
X36829D01*
X36975Y40675D02*
X37000Y40700D01*
X40000Y39700D02*
X41150Y38550D01*
X41300D01*
X40000Y39700D02*
Y40700D01*
X26700Y10200D02*
Y11500D01*
X23700Y12100D02*
X39900D01*
X23700D02*
Y13700D01*
X23500Y26700D02*
X24550D01*
X25900D02*
X26752D01*
X28053Y26942D02*
X28119Y27009D01*
X26994Y26942D02*
X28053D01*
X26752Y26700D02*
X26994Y26942D01*
X26725Y29175D02*
X27190Y28710D01*
X28018D01*
X28119Y28609D01*
X30995Y38700D02*
X36500D01*
X30700Y38500D02*
X30795D01*
X30995Y38700D01*
X28525Y32550D02*
X28575Y32500D01*
X28538Y34338D02*
Y35263D01*
X33869Y31769D02*
X35300Y33200D01*
Y34025D01*
X38500Y36900D02*
X39300D01*
X39900Y37500D02*
Y38800D01*
X39300Y36900D02*
X39900Y37500D01*
X39000Y39700D02*
X39900Y38800D01*
X39000Y39700D02*
Y40700D01*
X38000D02*
Y41554D01*
X38146Y41700D01*
X38800D01*
X38975Y41525D01*
Y40725D02*
X39000Y40700D01*
X38975Y40725D02*
Y41525D01*
X38500Y39500D02*
Y40700D01*
Y38700D02*
Y39500D01*
X37500Y39700D02*
Y40700D01*
Y39700D02*
X37700Y39500D01*
X38500D01*
X32700Y36900D02*
X33400Y37600D01*
X36255Y35375D02*
X36605Y35025D01*
X35300Y35375D02*
X36255D01*
X36605Y35025D02*
X36700D01*
X42800Y35500D02*
X49400Y42100D01*
X50660D01*
X38600Y35500D02*
X42800D01*
X49100Y40800D02*
X51900D01*
X43200Y34900D02*
X49100Y40800D01*
X38900Y34900D02*
X43200D01*
X39200Y34100D02*
X43500D01*
X48960Y39560D02*
X50660D01*
X43500Y34100D02*
X48960Y39560D01*
X36269Y33169D02*
X38600Y35500D01*
X36269Y30359D02*
Y33169D01*
X37069Y33069D02*
X38900Y34900D01*
X37069Y30359D02*
Y33069D01*
X37869Y30359D02*
Y32769D01*
X39200Y34100D01*
X41100Y33200D02*
X41800Y32500D01*
X40400Y33200D02*
X41100D01*
X24500Y38100D02*
X30300D01*
X24800Y37600D02*
X32000D01*
X32700Y36900D01*
X34669Y31469D02*
X35300Y32100D01*
X34669Y30359D02*
Y31469D01*
X11025Y10775D02*
X11050Y10800D01*
X11000Y9200D02*
X11025Y9225D01*
Y10775D01*
X12677Y14692D02*
X12823D01*
X12871Y14740D01*
X12875D01*
X13135Y15000D01*
X12500Y14515D02*
X12677Y14692D01*
X12725Y15658D02*
X12807D01*
X13065Y15400D01*
X12500Y15883D02*
X12725Y15658D01*
X12500Y14365D02*
Y14515D01*
X37869Y18148D02*
Y18859D01*
X37069Y14481D02*
X37125Y14425D01*
X30669Y18859D02*
X30794Y19484D01*
X31844Y20884D02*
X31869Y21209D01*
X31749Y20661D02*
X31844Y20884D01*
X30794Y19484D02*
X31026Y19767D01*
X31026Y19767D02*
X31712Y20600D01*
X29869Y18859D02*
X29994Y19484D01*
X31344Y20884D02*
X31369Y21209D01*
X29994Y19484D02*
X30226Y19767D01*
X30243Y19786D02*
X31344Y20884D01*
X29744Y18734D02*
X29869Y18859D01*
X29869Y17769D02*
Y18859D01*
X29700Y15750D02*
Y16500D01*
X30669Y17469D01*
Y18859D01*
X27600Y15750D02*
Y16500D01*
X28200Y17100D01*
X29200D01*
X29869Y17769D01*
X24450Y20250D02*
X25850D01*
X25925Y32500D02*
X27225D01*
X28575D02*
X29900D01*
X30669Y31731D01*
Y30359D02*
Y31731D01*
X38475Y14425D02*
X39675D01*
X15200Y31600D02*
X18800D01*
X10625Y30800D02*
X14400D01*
X15200Y31600D01*
X18800D02*
X24800Y37600D01*
X18500Y32100D02*
X24500Y38100D01*
X15200Y32100D02*
X18500D01*
X14500Y32800D02*
X15200Y32100D01*
X10625Y32800D02*
X14500D01*
X31000Y35400D02*
Y36800D01*
X30300Y38100D02*
X30700Y38500D01*
X32700Y35400D02*
Y36900D01*
X31594Y29734D02*
X32237Y28580D01*
X32249Y28557D02*
X32344Y28334D01*
X29500Y34400D02*
Y36400D01*
X34000Y34300D02*
Y35900D01*
X33600Y33900D02*
X34000Y34300D01*
X33869Y30359D02*
Y31769D01*
X51900Y40800D02*
X53200Y42100D01*
X50200Y15600D02*
Y16600D01*
Y22350D02*
Y23400D01*
X44500Y19200D02*
X50100D01*
X50200Y19100D01*
Y18100D02*
Y19100D01*
X44700Y19900D02*
X50200D01*
Y20850D01*
X32700Y33900D02*
X33600D01*
X30000D02*
X31000D01*
X29500Y34400D02*
X30000Y33900D01*
X32269Y30359D02*
Y32669D01*
X32700Y33100D02*
Y33900D01*
X32269Y32669D02*
X32700Y33100D01*
X31000D02*
X31469Y32631D01*
Y30359D02*
Y32631D01*
X31000Y33100D02*
Y33900D01*
X7900Y11500D02*
X8900D01*
X10000Y12600D02*
X11050D01*
X8900Y11500D02*
X10000Y12600D01*
X14275Y22900D02*
X14600D01*
X12500D02*
X14275D01*
Y21275D02*
X14575D01*
X12500D02*
X14275D01*
X14225Y19425D02*
X18609Y23809D01*
X14600Y22900D02*
X17109Y25409D01*
X28119D01*
X30144Y23584D02*
X30469Y23609D01*
X28119Y23009D02*
X28744Y23134D01*
X30144Y23584D01*
X28744Y23934D02*
X30144Y24084D01*
X30469Y24109D01*
X28119Y23809D02*
X28744Y23934D01*
X28744Y24609D02*
X30469D01*
X28119Y24609D02*
X28744Y24609D01*
Y25284D02*
X30144Y25134D01*
X30469Y25109D01*
X28119Y25409D02*
X28744Y25284D01*
X17909Y24609D02*
X28119D01*
X14575Y21275D02*
X17909Y24609D01*
X18609Y23809D02*
X28119D01*
X12500Y19425D02*
X14225D01*
X14275Y17775D02*
X19509Y23009D01*
X28119D01*
X12500Y17775D02*
X14275D01*
X80300Y24600D02*
X87900D01*
X88000Y24500D01*
X74900Y19200D02*
X80300Y24600D01*
X74300Y19900D02*
X81440Y27040D01*
X88000D01*
X42500Y14700D02*
Y19500D01*
X39744Y21284D02*
X40716D01*
X42500Y19500D01*
X39744Y22084D02*
X40616D01*
X39619Y24609D02*
X41091D01*
X43854Y21846D01*
X40691Y23009D02*
X44500Y19200D01*
X39619Y23009D02*
X40691D01*
X40791Y23809D02*
X44700Y19900D01*
X39619Y23809D02*
X40791D01*
X43854Y21846D02*
X44442D01*
X44508Y21780D01*
X39619Y22209D02*
X39744Y22084D01*
X39619Y21409D02*
X39744Y21284D01*
X41800Y32500D02*
X43250D01*
X39900Y12100D02*
X42500Y14700D01*
X9200Y15000D02*
X9835Y14365D01*
X4000Y13900D02*
X5100Y15000D01*
X9200D01*
X5100Y15600D02*
X9226D01*
X9741Y16115D01*
X4300Y16400D02*
X5100Y15600D01*
X4000Y16400D02*
X4300D01*
X9835Y14365D02*
X11000D01*
X9741Y16115D02*
X11000D01*
X38141Y17700D02*
X39525D01*
X37994Y17846D02*
X38141Y17700D01*
X25796Y21454D02*
X28073D01*
X28119Y21409D01*
X25750Y21500D02*
X25796Y21454D01*
X42675Y27474D02*
X43131D01*
X42250Y27050D02*
X42675Y27474D01*
X42250Y26000D02*
Y27050D01*
X43131Y27474D02*
X43306Y27649D01*
X41659Y25409D02*
X42250Y26000D01*
X39619Y25409D02*
X41659D01*
X42853Y29025D02*
X43153Y29325D01*
X40809Y27009D02*
X42825Y29025D01*
X42853D01*
X41800Y29050D02*
Y32500D01*
X40684Y27934D02*
X41800Y29050D01*
X39744Y27934D02*
X40684D01*
X39619Y27809D02*
X39744Y27934D01*
X43250Y30675D02*
X44500D01*
X39619Y27009D02*
X40809D01*
X28078Y20650D02*
X28119Y20609D01*
X26950Y20650D02*
X28078D01*
X26000Y20400D02*
X26700D01*
X25850Y20250D02*
X26000Y20400D01*
X26700D02*
X26950Y20650D01*
X38500Y16325D02*
X39750D01*
X33034Y30394D02*
Y31950D01*
Y30394D02*
X33069Y30359D01*
X32998Y31985D02*
X33034Y31950D01*
X39619Y26209D02*
X40985D01*
X41506Y26730D01*
X41364D02*
X41506D01*
X44656Y27649D02*
X44656Y27649D01*
X45787D01*
X45858Y21780D02*
X46989D01*
X43787Y25687D02*
Y26429D01*
X43306Y26910D02*
Y27649D01*
Y26910D02*
X43787Y26429D01*
X43750Y25650D02*
X43787Y25687D01*
X44508Y21780D02*
X44720Y22043D01*
X45525Y23425D02*
X46050Y23850D01*
X44720Y22043D02*
X45525Y23425D01*
X38711Y27452D02*
X38711Y27452D01*
X38994Y27684D01*
X37269Y26609D02*
X37594Y26634D01*
X37817Y26729D01*
X37878Y26766D02*
X38710Y27451D01*
X38994Y27684D02*
X39619Y27809D01*
X37841Y26240D02*
X38994Y26884D01*
X37269Y26109D02*
X37594Y26134D01*
X37817Y26229D01*
X38994Y26884D02*
X39619Y27009D01*
X37269Y25609D02*
X37594Y25634D01*
X38994Y26084D01*
X39619Y26209D01*
X37269Y25109D02*
X37594Y25134D01*
X38994Y25284D01*
X39619Y25409D01*
X37269Y24609D02*
X39619D01*
X37594Y24084D02*
X38994Y23934D01*
X37269Y24109D02*
X37594Y24084D01*
X38994Y23934D02*
X39619Y23809D01*
X37269Y23609D02*
X37594Y23584D01*
X38994Y23134D01*
X39619Y23009D01*
X37841Y22977D02*
X38994Y22334D01*
X37594Y23084D02*
X37817Y22989D01*
X38994Y22334D02*
X39619Y22209D01*
X37269Y23109D02*
X37594Y23084D01*
X37878Y22451D02*
X38710Y21766D01*
X37594Y22584D02*
X37817Y22489D01*
X38994Y21534D02*
X39619Y21409D01*
X38711Y21765D02*
X38994Y21534D01*
X37269Y22609D02*
X37594Y22584D01*
X36394Y20884D02*
X37496Y19786D01*
X37513Y19767D02*
X37744Y19484D01*
X36369Y21209D02*
X36394Y20884D01*
X37744Y19484D02*
X37869Y18859D01*
X36026Y20600D02*
X36712Y19767D01*
X36713Y19767D02*
X36944Y19484D01*
X35894Y20884D02*
X35989Y20661D01*
X35869Y21209D02*
X35894Y20884D01*
X36944Y19484D02*
X37069Y18859D01*
X30144Y22084D02*
X30469Y22109D01*
X28744Y20734D02*
X29027Y20965D01*
X28119Y20609D02*
X28744Y20734D01*
X29921Y22489D02*
X30144Y22584D01*
X29028Y21766D02*
X29860Y22451D01*
X30144Y22584D02*
X30469Y22609D01*
X28744Y21534D02*
X29027Y21765D01*
X28119Y21409D02*
X28744Y21534D01*
X30144Y27134D02*
X30469Y27109D01*
X28119Y28609D02*
X28744Y28484D01*
X29028Y27451D02*
X29860Y26766D01*
X28744Y27684D02*
X29027Y27452D01*
X30144Y26634D02*
X30469Y26609D01*
X29921Y26729D02*
X30144Y26634D01*
X28119Y27809D02*
X28744Y27684D01*
X31844Y28334D02*
X31869Y28009D01*
X30669Y30359D02*
X30794Y29734D01*
X32344Y28334D02*
X32369Y28009D01*
X31469Y30359D02*
X31594Y29734D01*
X32844Y28334D02*
X32869Y28009D01*
X32394Y29734D02*
X32844Y28334D01*
X32269Y30359D02*
X32394Y29734D01*
X33194D02*
X33344Y28334D01*
X33069Y30359D02*
X33194Y29734D01*
X33344Y28334D02*
X33369Y28009D01*
X33869D02*
X33869Y28334D01*
Y30359D01*
X34544Y29734D02*
X34669Y30359D01*
X34394Y28334D02*
X34544Y29734D01*
X34369Y28009D02*
X34394Y28334D01*
X35394D02*
X35489Y28557D01*
X35369Y28009D02*
X35394Y28334D01*
X36144Y29734D02*
X36269Y30359D01*
X35501Y28580D02*
X36144Y29734D01*
X36026Y28618D02*
X36712Y29450D01*
X36713Y29450D02*
X36713Y29450D01*
X36944Y29734D01*
X35869Y28009D02*
X35894Y28334D01*
X35989Y28557D01*
X36944Y29734D02*
X37069Y30359D01*
X37513Y29450D02*
X37513Y29450D01*
X37744Y29734D01*
X36394Y28334D02*
X37496Y29431D01*
X37744Y29734D02*
X37869Y30359D01*
X36369Y28009D02*
X36394Y28334D01*
D30*
X80400Y8500D02*
D03*
Y7000D02*
D03*
X66500Y8750D02*
D03*
Y7250D02*
D03*
X31000Y35400D02*
D03*
Y33900D02*
D03*
X32700Y35400D02*
D03*
Y33900D02*
D03*
X41300Y37050D02*
D03*
Y38550D02*
D03*
X50200Y18100D02*
D03*
Y16600D02*
D03*
Y20850D02*
D03*
Y22350D02*
D03*
X29700Y15750D02*
D03*
Y14250D02*
D03*
X27600Y15750D02*
D03*
Y14250D02*
D03*
D31*
X29950Y43400D02*
D03*
X32300D02*
D03*
D33*
X84500Y32800D02*
D03*
Y29750D02*
D03*
D35*
X43153Y29325D02*
X43250D01*
X15100Y34500D02*
X18100D01*
X27000Y43400D01*
X29950D01*
D36*
X50660Y42100D02*
D03*
Y39560D02*
D03*
X53200Y42100D02*
D03*
Y39560D02*
D03*
X50660Y44640D02*
D03*
X4000Y16400D02*
D03*
Y13900D02*
D03*
Y11400D02*
D03*
D37*
X53200Y44640D02*
D03*
X4000Y18900D02*
D03*
D38*
X10625Y28300D02*
D03*
Y30800D02*
D03*
Y32800D02*
D03*
Y35300D02*
D03*
D39*
X3575Y38150D02*
D03*
Y25450D02*
D03*
D40*
X15100Y36500D02*
D03*
Y34500D02*
D03*
D41*
X20500Y5200D02*
D03*
Y44000D02*
D03*
X88500Y5200D02*
D03*
Y44000D02*
D03*
X4000Y5200D02*
D03*
X4000Y44000D02*
D03*
D42*
X88000Y27040D02*
D03*
X88000Y29580D02*
D03*
Y24500D02*
D03*
Y21960D02*
D03*
Y19420D02*
D03*
Y16880D02*
D03*
D43*
Y32120D02*
D03*
D44*
X62000Y17750D02*
D03*
X62000Y21300D02*
D03*
X29500Y36400D02*
D03*
X34000Y36400D02*
D03*
X23700Y13700D02*
D03*
X26700Y10200D02*
D03*
D45*
X33930Y45455D02*
D03*
Y41275D02*
D03*
X42570Y45455D02*
D03*
Y41275D02*
D03*
D46*
X26219Y28109D02*
D03*
X25000Y28000D02*
D03*
X9000Y9000D02*
D03*
X8000Y8000D02*
D03*
X13000Y27000D02*
D03*
X12000Y26000D02*
D03*
X48000Y24000D02*
D03*
Y18000D02*
D03*
X44000Y14000D02*
D03*
X46000D02*
D03*
X45000Y13000D02*
D03*
X44000Y12000D02*
D03*
X46000D02*
D03*
X47000Y13000D02*
D03*
X48000Y12000D02*
D03*
X22000Y10000D02*
D03*
X19000Y11000D02*
D03*
X14000Y9000D02*
D03*
X20000Y11000D02*
D03*
X13000Y8000D02*
D03*
X19000Y38000D02*
D03*
X18000Y39000D02*
D03*
X17000Y40000D02*
D03*
X31000Y46000D02*
D03*
X29000D02*
D03*
X27000D02*
D03*
X25000D02*
D03*
X11000Y41000D02*
D03*
Y43000D02*
D03*
X12000Y42000D02*
D03*
X13000Y41000D02*
D03*
Y43000D02*
D03*
X12000Y44000D02*
D03*
X11000Y45000D02*
D03*
X13000D02*
D03*
X69000D02*
D03*
X71000D02*
D03*
X70000Y44000D02*
D03*
X69000Y43000D02*
D03*
X71000D02*
D03*
X72000Y44000D02*
D03*
X73000Y45000D02*
D03*
Y43000D02*
D03*
X33000Y5000D02*
D03*
X35000D02*
D03*
X34000Y4000D02*
D03*
X33000Y3000D02*
D03*
X35000D02*
D03*
X36000Y4000D02*
D03*
X37000Y5000D02*
D03*
Y3000D02*
D03*
X27000Y5000D02*
D03*
X29000D02*
D03*
X28000Y4000D02*
D03*
X27000Y3000D02*
D03*
X29000D02*
D03*
X30000Y4000D02*
D03*
X31000Y5000D02*
D03*
Y3000D02*
D03*
X63000Y45000D02*
D03*
X65000D02*
D03*
X64000Y44000D02*
D03*
X63000Y43000D02*
D03*
X65000D02*
D03*
X66000Y44000D02*
D03*
X67000Y45000D02*
D03*
Y43000D02*
D03*
X57000Y45000D02*
D03*
X59000D02*
D03*
X58000Y44000D02*
D03*
X57000Y43000D02*
D03*
X59000D02*
D03*
X60000Y44000D02*
D03*
X61000Y45000D02*
D03*
Y43000D02*
D03*
X52000Y30000D02*
D03*
X54000D02*
D03*
X53000Y29000D02*
D03*
X52000Y28000D02*
D03*
X54000D02*
D03*
X55000Y29000D02*
D03*
X56000Y30000D02*
D03*
Y28000D02*
D03*
X74000Y6000D02*
D03*
Y8000D02*
D03*
X73000Y7000D02*
D03*
X72000Y6000D02*
D03*
X70000D02*
D03*
X71000Y7000D02*
D03*
X72000Y8000D02*
D03*
X70000D02*
D03*
X25800Y34200D02*
D03*
X41750Y18750D02*
D03*
X25850Y17650D02*
D03*
X81900Y8500D02*
D03*
X78400Y7000D02*
D03*
X64750Y7250D02*
D03*
X34000Y15250D02*
D03*
X32750D02*
D03*
X24500Y31250D02*
D03*
X12550Y12600D02*
D03*
X79000Y28500D02*
D03*
Y31000D02*
D03*
X81000Y28500D02*
D03*
Y31000D02*
D03*
X44500Y29325D02*
D03*
X26250Y14250D02*
D03*
X30750D02*
D03*
X22500Y17500D02*
D03*
X20000D02*
D03*
Y20000D02*
D03*
Y27500D02*
D03*
X22500Y30000D02*
D03*
X20000D02*
D03*
X35400Y16400D02*
D03*
X15600Y25100D02*
D03*
X14700D02*
D03*
X41450Y40700D02*
D03*
X35050D02*
D03*
X42400Y37000D02*
D03*
X27450Y39700D02*
D03*
X23500Y26700D02*
D03*
X28538Y35263D02*
D03*
X36700Y35025D02*
D03*
X40400Y33200D02*
D03*
X35300Y32100D02*
D03*
X8100Y3150D02*
D03*
X11000Y9200D02*
D03*
X24450Y20250D02*
D03*
X25925Y32500D02*
D03*
X39675Y14425D02*
D03*
X32769Y25650D02*
D03*
X34969Y23550D02*
D03*
Y25650D02*
D03*
X32769Y23550D02*
D03*
X33869Y24600D02*
D03*
X31000Y36800D02*
D03*
X30700Y38500D02*
D03*
X50200Y15600D02*
D03*
Y23400D02*
D03*
X7900Y11500D02*
D03*
X14275Y22900D02*
D03*
Y21275D02*
D03*
Y19490D02*
D03*
Y17775D02*
D03*
X25750Y21500D02*
D03*
X14850Y40800D02*
D03*
X9050D02*
D03*
X44500Y30675D02*
D03*
X39750Y16325D02*
D03*
X39525Y17700D02*
D03*
X32998Y31985D02*
D03*
X41506Y26730D02*
D03*
X45787Y27649D02*
D03*
X46989Y21780D02*
D03*
D47*
X31026Y19767D02*
D03*
X38711Y27452D02*
D03*
X36713Y29450D02*
D03*
X37513D02*
D03*
D48*
X77100Y1950D02*
D03*
X63250Y2000D02*
D03*
D49*
X80200Y1950D02*
D03*
X66350Y2000D02*
D03*
D50*
X80350Y4550D02*
D03*
X76950D02*
D03*
X66500Y4600D02*
D03*
X63100D02*
D03*
D51*
X78650Y4850D02*
D03*
X64800Y4900D02*
D03*
D52*
X39500Y40700D02*
D03*
X38500D02*
D03*
X38000D02*
D03*
X37000D02*
D03*
X40000D02*
D03*
X36500D02*
D03*
X39000D02*
D03*
X37500D02*
D03*
D53*
X35050D02*
D03*
X41450D02*
D03*
X40650D02*
D03*
X35850D02*
D03*
D54*
X28250Y39700D02*
D03*
X29750D02*
D03*
X43250Y32500D02*
D03*
X44750D02*
D03*
X11000Y22900D02*
D03*
X12500Y22900D02*
D03*
X11000Y21183D02*
D03*
X12500D02*
D03*
X11000Y19467D02*
D03*
X12500D02*
D03*
X11000Y17750D02*
D03*
X12500D02*
D03*
X11000Y16033D02*
D03*
X12500D02*
D03*
X11050Y12600D02*
D03*
X12550D02*
D03*
X11000Y14317D02*
D03*
X12500D02*
D03*
X11050Y10800D02*
D03*
X12550D02*
D03*
D55*
X36500Y38700D02*
D03*
X38500D02*
D03*
X36500Y36900D02*
D03*
X38500Y36900D02*
D03*
D56*
X35300Y34025D02*
D03*
Y35375D02*
D03*
X43250Y29325D02*
D03*
Y30675D02*
D03*
X26000Y29225D02*
D03*
Y30575D02*
D03*
X25850Y20250D02*
D03*
Y18900D02*
D03*
D57*
X44656Y27649D02*
D03*
X43306D02*
D03*
X38500Y16325D02*
D03*
X37150D02*
D03*
X45858Y21780D02*
D03*
X44508D02*
D03*
X28575Y34200D02*
D03*
X27225D02*
D03*
X28575Y32500D02*
D03*
X27225D02*
D03*
X25900Y26700D02*
D03*
X24550D02*
D03*
D58*
X43750Y25650D02*
D03*
Y23850D02*
D03*
X46050D02*
D03*
Y25650D02*
D03*
D59*
X37125Y14425D02*
D03*
X38475D02*
D03*
D60*
X28119Y28609D02*
D03*
X39619D02*
D03*
Y27809D02*
D03*
Y27009D02*
D03*
Y26209D02*
D03*
Y25409D02*
D03*
Y24609D02*
D03*
Y23809D02*
D03*
Y23009D02*
D03*
Y22209D02*
D03*
Y21409D02*
D03*
Y20609D02*
D03*
X28119D02*
D03*
Y21409D02*
D03*
Y22209D02*
D03*
Y23009D02*
D03*
Y23809D02*
D03*
X28119Y24609D02*
D03*
Y25409D02*
D03*
X28119Y26209D02*
D03*
Y27009D02*
D03*
X28119Y27809D02*
D03*
D61*
X29869Y30359D02*
D03*
D62*
X30669D02*
D03*
X31469D02*
D03*
X32269D02*
D03*
X33069D02*
D03*
X33869D02*
D03*
X34669D02*
D03*
X35469D02*
D03*
X36269D02*
D03*
X37069D02*
D03*
X37869D02*
D03*
X37869Y18859D02*
D03*
X37069D02*
D03*
X36269Y18859D02*
D03*
X35469D02*
D03*
X34669D02*
D03*
X33869D02*
D03*
X33069Y18859D02*
D03*
X32269D02*
D03*
X31469D02*
D03*
X30669D02*
D03*
X29869D02*
D03*
D63*
X33869Y24609D02*
D03*
D64*
X30469Y27109D02*
D03*
Y26609D02*
D03*
X30469Y26109D02*
D03*
Y25609D02*
D03*
Y25109D02*
D03*
Y24609D02*
D03*
X30469Y24109D02*
D03*
Y23609D02*
D03*
Y23109D02*
D03*
Y22609D02*
D03*
Y22109D02*
D03*
X37269Y22109D02*
D03*
Y22609D02*
D03*
Y23109D02*
D03*
Y23609D02*
D03*
Y24109D02*
D03*
Y24609D02*
D03*
Y25109D02*
D03*
Y25609D02*
D03*
Y26109D02*
D03*
Y26609D02*
D03*
Y27109D02*
D03*
D65*
X31369Y21209D02*
D03*
X31869D02*
D03*
X32369D02*
D03*
X32869D02*
D03*
X33369D02*
D03*
X33869D02*
D03*
X34369D02*
D03*
X34869D02*
D03*
X35369D02*
D03*
X35869Y21209D02*
D03*
X36369D02*
D03*
Y28009D02*
D03*
X35869D02*
D03*
X35369Y28009D02*
D03*
X34869D02*
D03*
X34369D02*
D03*
X33869D02*
D03*
X33369D02*
D03*
X32869D02*
D03*
X32369D02*
D03*
X31869D02*
D03*
D66*
X31369D02*
D03*
D67*
X44750Y32500D02*
X46250D01*
X46500Y32250D01*
Y30000D02*
Y32250D01*
X44500Y29325D02*
X45825D01*
X46500Y30000D01*
X43250Y29325D02*
X44500D01*
M02*
