G04*
G04 #@! TF.GenerationSoftware,Altium Limited,Altium Designer,24.2.2 (26)*
G04*
G04 Layer_Physical_Order=1*
G04 Layer_Color=255*
%FSLAX43Y43*%
%MOMM*%
G71*
G04*
G04 #@! TF.SameCoordinates,8CC7AA04-EDAA-4120-BC56-05CF8BE8917F*
G04*
G04*
G04 #@! TF.FilePolarity,Positive*
G04*
G01*
G75*
%ADD10C,0.250*%
%ADD30R,1.000X0.700*%
%ADD31R,0.600X0.800*%
G04:AMPARAMS|DCode=32|XSize=1.5mm|YSize=1.1mm|CornerRadius=0.275mm|HoleSize=0mm|Usage=FLASHONLY|Rotation=180.000|XOffset=0mm|YOffset=0mm|HoleType=Round|Shape=RoundedRectangle|*
%AMROUNDEDRECTD32*
21,1,1.500,0.550,0,0,180.0*
21,1,0.950,1.100,0,0,180.0*
1,1,0.550,-0.475,0.275*
1,1,0.550,0.475,0.275*
1,1,0.550,0.475,-0.275*
1,1,0.550,-0.475,-0.275*
%
%ADD32ROUNDEDRECTD32*%
G04:AMPARAMS|DCode=33|XSize=1.8mm|YSize=1.05mm|CornerRadius=0.263mm|HoleSize=0mm|Usage=FLASHONLY|Rotation=180.000|XOffset=0mm|YOffset=0mm|HoleType=Round|Shape=RoundedRectangle|*
%AMROUNDEDRECTD33*
21,1,1.800,0.525,0,0,180.0*
21,1,1.275,1.050,0,0,180.0*
1,1,0.525,-0.638,0.263*
1,1,0.525,0.638,0.263*
1,1,0.525,0.638,-0.263*
1,1,0.525,-0.638,-0.263*
%
%ADD33ROUNDEDRECTD33*%
%ADD34R,1.400X1.400*%
%ADD35C,0.500*%
%ADD36C,1.600*%
%ADD37R,1.600X1.600*%
G04:AMPARAMS|DCode=38|XSize=1.7mm|YSize=4mm|CornerRadius=0.425mm|HoleSize=0mm|Usage=FLASHONLY|Rotation=270.000|XOffset=0mm|YOffset=0mm|HoleType=Round|Shape=RoundedRectangle|*
%AMROUNDEDRECTD38*
21,1,1.700,3.150,0,0,270.0*
21,1,0.850,4.000,0,0,270.0*
1,1,0.850,-1.575,-0.425*
1,1,0.850,-1.575,0.425*
1,1,0.850,1.575,0.425*
1,1,0.850,1.575,-0.425*
%
%ADD38ROUNDEDRECTD38*%
G04:AMPARAMS|DCode=39|XSize=4mm|YSize=3mm|CornerRadius=0.75mm|HoleSize=0mm|Usage=FLASHONLY|Rotation=0.000|XOffset=0mm|YOffset=0mm|HoleType=Round|Shape=RoundedRectangle|*
%AMROUNDEDRECTD39*
21,1,4.000,1.500,0,0,0.0*
21,1,2.500,3.000,0,0,0.0*
1,1,1.500,1.250,-0.750*
1,1,1.500,-1.250,-0.750*
1,1,1.500,-1.250,0.750*
1,1,1.500,1.250,0.750*
%
%ADD39ROUNDEDRECTD39*%
%ADD40C,1.524*%
%ADD41C,6.000*%
%ADD42C,1.900*%
%ADD43R,1.900X1.900*%
%ADD44C,1.000*%
%ADD45O,1.000X1.800*%
%ADD46C,0.600*%
G36*
X88500Y47745D02*
X88745D01*
X89232Y47681D01*
X89706Y47554D01*
X90160Y47366D01*
X90585Y47121D01*
X90975Y46822D01*
X91322Y46475D01*
X91621Y46085D01*
X91866Y45660D01*
X92054Y45206D01*
X92181Y44732D01*
X92245Y44245D01*
X92245Y44000D01*
X92245Y5200D01*
X92245Y4955D01*
X92181Y4468D01*
X92054Y3994D01*
X91866Y3540D01*
X91621Y3115D01*
X91322Y2725D01*
X90975Y2378D01*
X90585Y2079D01*
X90160Y1834D01*
X89706Y1646D01*
X89232Y1519D01*
X88745Y1455D01*
X88500D01*
X4000Y1455D01*
X3755D01*
X3268Y1519D01*
X2794Y1646D01*
X2340Y1834D01*
X1915Y2079D01*
X1525Y2378D01*
X1178Y2725D01*
X879Y3115D01*
X634Y3540D01*
X446Y3994D01*
X319Y4468D01*
X255Y4955D01*
X255Y5200D01*
X255Y44000D01*
Y44245D01*
X319Y44732D01*
X446Y45206D01*
X634Y45660D01*
X879Y46085D01*
X1178Y46475D01*
X1525Y46822D01*
X1915Y47121D01*
X2340Y47366D01*
X2794Y47554D01*
X3268Y47681D01*
X3755Y47745D01*
X4000Y47745D01*
X88500Y47745D01*
D02*
G37*
%LPC*%
G36*
X34230Y46597D02*
Y45755D01*
X34737D01*
Y45855D01*
X34709Y46064D01*
X34629Y46258D01*
X34501Y46426D01*
X34333Y46554D01*
X34230Y46597D01*
D02*
G37*
G36*
X33630Y46597D02*
X33527Y46554D01*
X33359Y46426D01*
X33231Y46258D01*
X33151Y46064D01*
X33123Y45855D01*
Y45755D01*
X33630D01*
Y46597D01*
D02*
G37*
G36*
X42870D02*
Y45755D01*
X43377D01*
Y45855D01*
X43349Y46064D01*
X43269Y46258D01*
X43141Y46426D01*
X42973Y46554D01*
X42870Y46597D01*
D02*
G37*
G36*
X42270Y46597D02*
X42167Y46554D01*
X41999Y46426D01*
X41871Y46258D01*
X41791Y46064D01*
X41763Y45855D01*
Y45755D01*
X42270D01*
Y46597D01*
D02*
G37*
G36*
X54300Y45740D02*
X53600D01*
Y45040D01*
X54300D01*
Y45740D01*
D02*
G37*
G36*
X52800D02*
X52100D01*
Y45040D01*
X52800D01*
Y45740D01*
D02*
G37*
G36*
X20768Y47400D02*
X20232D01*
X19704Y47316D01*
X19195Y47151D01*
X18718Y46908D01*
X18285Y46593D01*
X17907Y46215D01*
X17592Y45782D01*
X17349Y45305D01*
X17184Y44796D01*
X17049Y44758D01*
X15972Y45835D01*
X15954Y45854D01*
X15955Y45857D01*
X15950Y45881D01*
Y47300D01*
X13750D01*
Y46735D01*
X10150D01*
Y47300D01*
X7950D01*
Y45100D01*
X10150D01*
Y45665D01*
X13750D01*
Y45100D01*
X15169D01*
X15193Y45095D01*
X15195Y45096D01*
X15208Y45085D01*
X16215Y44078D01*
Y41750D01*
X16255Y41545D01*
X16372Y41371D01*
X24921Y32821D01*
X25095Y32705D01*
X25300Y32665D01*
X34695D01*
X34748Y32538D01*
X34740Y32530D01*
X34648Y32370D01*
X34600Y32192D01*
Y32008D01*
X34625Y31914D01*
Y31052D01*
X33804Y30232D01*
X33797Y30227D01*
X33736Y30170D01*
X33685Y30130D01*
X33634Y30095D01*
X33582Y30065D01*
X33529Y30041D01*
X33473Y30020D01*
X33416Y30004D01*
X33355Y29993D01*
X33290Y29986D01*
X33207Y29983D01*
X33199Y29981D01*
X33188D01*
X33183Y29981D01*
X33182Y29981D01*
X27947D01*
X27444Y30483D01*
X27309Y30587D01*
X27151Y30652D01*
X26981Y30675D01*
X24364D01*
X24288Y30788D01*
X24288Y30788D01*
X23288Y31788D01*
X23156Y31877D01*
X23000Y31908D01*
X23000Y31908D01*
X18750D01*
X18594Y31877D01*
X18462Y31788D01*
X18462Y31788D01*
X17962Y31288D01*
X17873Y31156D01*
X17842Y31000D01*
X17842Y31000D01*
Y30181D01*
X17618D01*
X17609Y30183D01*
X17537Y30184D01*
X17484Y30189D01*
X17439Y30195D01*
X17403Y30202D01*
X17375Y30210D01*
X17357Y30218D01*
X17347Y30223D01*
X17344Y30225D01*
X17329Y30242D01*
X17318Y30250D01*
X17311Y30261D01*
X17294Y30272D01*
X17172Y30366D01*
X17010Y30433D01*
X16837Y30456D01*
X15562D01*
X15390Y30433D01*
X15228Y30366D01*
X15090Y30260D01*
X15084Y30252D01*
X15073Y30244D01*
X15071Y30241D01*
X15069Y30239D01*
X15048Y30215D01*
X15041Y30209D01*
X15032Y30202D01*
X15019Y30195D01*
X15001Y30186D01*
X14989Y30183D01*
X14962Y30187D01*
X14889Y30233D01*
X14857Y30271D01*
X14856Y30278D01*
Y33206D01*
X14895Y33244D01*
X15004Y33336D01*
X15007Y33338D01*
X15253D01*
X15549Y33417D01*
X15813Y33570D01*
X15891Y33647D01*
X15914Y33661D01*
X15955Y33697D01*
X15985Y33717D01*
X16028Y33739D01*
X16086Y33762D01*
X16159Y33784D01*
X16246Y33804D01*
X16343Y33819D01*
X16597Y33840D01*
X16742Y33842D01*
X16752Y33844D01*
X17000D01*
X17170Y33867D01*
X17328Y33932D01*
X17464Y34036D01*
X18214Y34786D01*
X18318Y34922D01*
X18383Y35080D01*
X18406Y35250D01*
Y37500D01*
X18383Y37670D01*
X18318Y37828D01*
X18214Y37964D01*
X16614Y39564D01*
X16478Y39668D01*
X16320Y39733D01*
X16150Y39756D01*
X15219D01*
X15210Y39758D01*
X15100Y39761D01*
Y39900D01*
X14721D01*
X14697Y39905D01*
X14673Y39900D01*
X13700D01*
Y38300D01*
X14673D01*
X14697Y38295D01*
X14721Y38300D01*
X15100D01*
Y38439D01*
X15120Y38441D01*
X15203Y38442D01*
X15213Y38444D01*
X15878D01*
X17094Y37228D01*
Y35522D01*
X16731Y35158D01*
X16460Y35168D01*
X16348Y35180D01*
X16246Y35196D01*
X16159Y35216D01*
X16086Y35238D01*
X16028Y35261D01*
X15985Y35283D01*
X15955Y35303D01*
X15914Y35339D01*
X15891Y35353D01*
X15813Y35430D01*
X15702Y35494D01*
Y35621D01*
X15752Y35650D01*
X15950Y35848D01*
X16090Y36090D01*
X16092Y36100D01*
X14108D01*
X14110Y36090D01*
X14250Y35848D01*
X14448Y35650D01*
X14498Y35621D01*
Y35494D01*
X14387Y35430D01*
X14170Y35213D01*
X14017Y34949D01*
X13938Y34653D01*
Y34347D01*
X13972Y34219D01*
X13804Y34024D01*
X13732Y33952D01*
X13713Y33922D01*
X13632Y33817D01*
X13567Y33659D01*
X13544Y33489D01*
Y29500D01*
Y26172D01*
X10528Y23156D01*
X10419D01*
X10410Y23158D01*
X10300Y23161D01*
Y23300D01*
X9921D01*
X9897Y23305D01*
X9873Y23300D01*
X8900D01*
Y21700D01*
X9873D01*
X9897Y21695D01*
X9921Y21700D01*
X10300D01*
Y21839D01*
X10320Y21841D01*
X10403Y21842D01*
X10413Y21844D01*
X10800D01*
X10970Y21867D01*
X11128Y21932D01*
X11264Y22036D01*
X14200Y24973D01*
Y25251D01*
X14524Y25576D01*
X14624Y25724D01*
X14659Y25900D01*
Y25959D01*
X14856Y26156D01*
Y28722D01*
X14857Y28729D01*
X14868Y28745D01*
X14931Y28794D01*
X14966Y28811D01*
X14990Y28814D01*
X15003Y28810D01*
X15040Y28796D01*
X15076Y28780D01*
X15111Y28761D01*
X15147Y28738D01*
X15193Y28705D01*
X15195Y28704D01*
X15250Y28600D01*
Y27400D01*
X17150D01*
Y28600D01*
X17201Y28706D01*
X17294Y28778D01*
X17311Y28789D01*
X17318Y28800D01*
X17329Y28808D01*
X17344Y28825D01*
X17347Y28827D01*
X17357Y28832D01*
X17375Y28840D01*
X17403Y28848D01*
X17439Y28855D01*
X17484Y28861D01*
X17537Y28866D01*
X17609Y28867D01*
X17618Y28869D01*
X17842D01*
Y19999D01*
X17715Y19936D01*
X17665Y19975D01*
X17501Y20043D01*
X17325Y20066D01*
X16375D01*
X16199Y20043D01*
X16035Y19975D01*
X15894Y19866D01*
X15785Y19725D01*
X15717Y19561D01*
X15694Y19385D01*
Y18911D01*
X15694Y18911D01*
X15093Y18310D01*
X14815D01*
X14812Y18310D01*
X14735Y18318D01*
X14719Y18321D01*
X14705Y18335D01*
X14545Y18427D01*
X14367Y18475D01*
X14197D01*
X14170Y18509D01*
X14136Y18594D01*
X14272Y18730D01*
X14274Y18731D01*
X14334Y18781D01*
X14347Y18790D01*
X14367D01*
X14545Y18838D01*
X14705Y18930D01*
X14835Y19060D01*
X14927Y19220D01*
X14975Y19398D01*
Y19582D01*
X14927Y19760D01*
X14835Y19920D01*
X14705Y20050D01*
X14545Y20142D01*
X14367Y20190D01*
X14183D01*
X14106Y20169D01*
X14040Y20283D01*
X14272Y20515D01*
X14274Y20516D01*
X14334Y20566D01*
X14347Y20575D01*
X14367D01*
X14545Y20623D01*
X14705Y20715D01*
X14835Y20845D01*
X14927Y21005D01*
X14975Y21183D01*
Y21367D01*
X14927Y21545D01*
X14835Y21705D01*
X14705Y21835D01*
X14545Y21927D01*
X14367Y21975D01*
X14287D01*
X14234Y22102D01*
X14272Y22140D01*
X14274Y22141D01*
X14334Y22191D01*
X14347Y22200D01*
X14367D01*
X14545Y22248D01*
X14705Y22340D01*
X14835Y22470D01*
X14927Y22630D01*
X14975Y22808D01*
Y22992D01*
X14927Y23170D01*
X14835Y23330D01*
X14705Y23460D01*
X14545Y23552D01*
X14367Y23600D01*
X14183D01*
X14005Y23552D01*
X13845Y23460D01*
X13715Y23330D01*
X13623Y23170D01*
X13575Y22992D01*
Y22972D01*
X13568Y22962D01*
X13498Y22880D01*
X10821Y20203D01*
X10705Y20030D01*
X10665Y19825D01*
Y12550D01*
X10705Y12345D01*
X10821Y12172D01*
X11882Y11111D01*
X12055Y10995D01*
X12260Y10955D01*
X15752D01*
X15785Y10875D01*
X15894Y10734D01*
X16035Y10625D01*
X16199Y10557D01*
X16375Y10534D01*
X17325D01*
X17501Y10557D01*
X17665Y10625D01*
X17806Y10734D01*
X17915Y10875D01*
X17983Y11039D01*
X18006Y11215D01*
Y11765D01*
X17983Y11938D01*
X17981Y11964D01*
X18061Y12065D01*
X18100D01*
X18305Y12105D01*
X18479Y12222D01*
X20378Y14122D01*
X20495Y14295D01*
X20535Y14500D01*
Y16092D01*
X23250D01*
X23406Y16123D01*
X23538Y16212D01*
X23538Y16212D01*
X23788Y16462D01*
X23877Y16594D01*
X23908Y16750D01*
X23908Y16750D01*
Y18500D01*
X23908Y18500D01*
X23877Y18656D01*
X23788Y18788D01*
X23788Y18788D01*
X22158Y20419D01*
Y27831D01*
X23690Y29364D01*
X26709D01*
X27211Y28861D01*
X27347Y28757D01*
X27505Y28692D01*
X27675Y28669D01*
X33826D01*
X33838Y28667D01*
X33847Y28669D01*
X33859D01*
X33863Y28669D01*
X33865Y28669D01*
X41782D01*
X41783Y28669D01*
X41788Y28669D01*
X41799D01*
X41807Y28667D01*
X41890Y28664D01*
X41955Y28657D01*
X42016Y28646D01*
X42073Y28630D01*
X42129Y28610D01*
X42182Y28585D01*
X42234Y28555D01*
X42285Y28520D01*
X42336Y28480D01*
X42397Y28423D01*
X42404Y28418D01*
X45036Y25786D01*
X45172Y25682D01*
X45330Y25617D01*
X45500Y25594D01*
X48607D01*
X48608Y25594D01*
X48613Y25594D01*
X48624D01*
X48632Y25592D01*
X48715Y25589D01*
X48780Y25582D01*
X48841Y25571D01*
X48898Y25555D01*
X48954Y25535D01*
X49007Y25510D01*
X49059Y25480D01*
X49110Y25445D01*
X49161Y25405D01*
X49222Y25348D01*
X49229Y25343D01*
X49544Y25028D01*
Y23658D01*
X49500Y23492D01*
Y23308D01*
X49544Y23142D01*
Y15858D01*
X49500Y15692D01*
Y15508D01*
X49548Y15330D01*
X49640Y15170D01*
X49770Y15040D01*
X49930Y14948D01*
X50062Y14912D01*
X50045Y14785D01*
X48222D01*
X43879Y19128D01*
X43705Y19245D01*
X43500Y19285D01*
X42290D01*
X42287Y19285D01*
X42210Y19293D01*
X42194Y19296D01*
X42180Y19310D01*
X42020Y19402D01*
X41842Y19450D01*
X41658D01*
X41480Y19402D01*
X41320Y19310D01*
X41190Y19180D01*
X41098Y19020D01*
X41050Y18842D01*
Y18658D01*
X41098Y18480D01*
X41190Y18320D01*
X41320Y18190D01*
X41480Y18098D01*
X41658Y18050D01*
X41842D01*
X42020Y18098D01*
X42180Y18190D01*
X42194Y18204D01*
X42206Y18206D01*
X42314Y18215D01*
X43278D01*
X47621Y13872D01*
X47795Y13755D01*
X48000Y13715D01*
X54750D01*
X54955Y13755D01*
X55129Y13872D01*
X60222Y18965D01*
X85540D01*
X85745Y19005D01*
X85919Y19122D01*
X86705Y19908D01*
X86819Y19843D01*
X86750Y19585D01*
Y19255D01*
X86835Y18938D01*
X87000Y18652D01*
X87232Y18420D01*
X87518Y18255D01*
X87665Y18216D01*
Y18084D01*
X87518Y18045D01*
X87232Y17880D01*
X87000Y17648D01*
X86874Y17430D01*
X88000D01*
X89126D01*
X89000Y17648D01*
X88768Y17880D01*
X88482Y18045D01*
X88335Y18084D01*
Y18216D01*
X88482Y18255D01*
X88768Y18420D01*
X89000Y18652D01*
X89126Y18870D01*
X88000D01*
Y19970D01*
X89126D01*
X89000Y20188D01*
X88768Y20420D01*
X88512Y20568D01*
X88511Y20671D01*
X88522Y20702D01*
X88829Y20880D01*
X89080Y21131D01*
X89258Y21439D01*
X89350Y21782D01*
Y22138D01*
X89258Y22481D01*
X89080Y22789D01*
X88829Y23040D01*
X88627Y23157D01*
Y23303D01*
X88829Y23420D01*
X89080Y23671D01*
X89258Y23979D01*
X89350Y24322D01*
Y24678D01*
X89258Y25021D01*
X89080Y25329D01*
X88829Y25580D01*
X88627Y25697D01*
Y25843D01*
X88829Y25960D01*
X89080Y26211D01*
X89258Y26519D01*
X89350Y26862D01*
Y27218D01*
X89258Y27561D01*
X89080Y27869D01*
X88829Y28120D01*
X88627Y28237D01*
Y28383D01*
X88829Y28500D01*
X89080Y28751D01*
X89258Y29059D01*
X89350Y29402D01*
Y29758D01*
X89258Y30101D01*
X89080Y30409D01*
X88829Y30660D01*
X88686Y30743D01*
X88720Y30870D01*
X89250D01*
Y31570D01*
X88000D01*
X86750D01*
Y30870D01*
X87280D01*
X87314Y30743D01*
X87171Y30660D01*
X86920Y30409D01*
X86742Y30101D01*
X86650Y29758D01*
Y29402D01*
X86742Y29059D01*
X86920Y28751D01*
X87171Y28500D01*
X87373Y28383D01*
Y28237D01*
X87171Y28120D01*
X86920Y27869D01*
X86742Y27561D01*
X86650Y27218D01*
Y26862D01*
X86742Y26519D01*
X86920Y26211D01*
X87171Y25960D01*
X87373Y25843D01*
Y25697D01*
X87171Y25580D01*
X86920Y25329D01*
X86742Y25021D01*
X86650Y24678D01*
Y24322D01*
X86742Y23979D01*
X86920Y23671D01*
X87171Y23420D01*
X87373Y23303D01*
Y23157D01*
X87171Y23040D01*
X86920Y22789D01*
X86742Y22481D01*
X86650Y22138D01*
Y21996D01*
X86642Y21963D01*
X86638Y21831D01*
X86625Y21719D01*
X86602Y21609D01*
X86570Y21501D01*
X86528Y21395D01*
X86476Y21288D01*
X86412Y21182D01*
X86337Y21077D01*
X86250Y20971D01*
X86200Y20917D01*
X85318Y20035D01*
X60000D01*
X59795Y19995D01*
X59621Y19878D01*
X54528Y14785D01*
X50355D01*
X50338Y14912D01*
X50470Y14948D01*
X50630Y15040D01*
X50760Y15170D01*
X50852Y15330D01*
X50900Y15508D01*
Y15692D01*
X50856Y15858D01*
Y23142D01*
X50900Y23308D01*
Y23492D01*
X50856Y23658D01*
Y25300D01*
X50834Y25467D01*
X50831Y25494D01*
X50912Y25594D01*
X65500D01*
X65670Y25617D01*
X65828Y25682D01*
X65964Y25786D01*
X69272Y29094D01*
X77592D01*
Y27750D01*
X77623Y27594D01*
X77712Y27462D01*
X77844Y27373D01*
X78000Y27342D01*
X82250D01*
X82406Y27373D01*
X82538Y27462D01*
X82627Y27594D01*
X82658Y27750D01*
Y31500D01*
X82627Y31656D01*
X82538Y31788D01*
X82406Y31877D01*
X82250Y31908D01*
X78000D01*
X77844Y31877D01*
X77712Y31788D01*
X77623Y31656D01*
X77592Y31500D01*
Y30519D01*
X77478Y30406D01*
X69000D01*
X68830Y30383D01*
X68672Y30318D01*
X68536Y30214D01*
X65228Y26906D01*
X49290D01*
X49288Y26906D01*
X49284Y26906D01*
X49272D01*
X49263Y26908D01*
X49251Y26906D01*
X45772D01*
X44125Y28552D01*
X44174Y28669D01*
X44242D01*
X44408Y28625D01*
X44592D01*
X44758Y28669D01*
X48325D01*
X48495Y28692D01*
X48653Y28757D01*
X48789Y28861D01*
X53664Y33736D01*
X53768Y33872D01*
X53833Y34030D01*
X53856Y34200D01*
Y37816D01*
X53858Y37824D01*
X53869Y38126D01*
X53882Y38243D01*
X53900Y38350D01*
X53921Y38443D01*
X53946Y38521D01*
X53972Y38585D01*
X53998Y38634D01*
X54023Y38671D01*
X54065Y38718D01*
X54079Y38742D01*
X54160Y38823D01*
X54318Y39097D01*
X54400Y39402D01*
Y39718D01*
X54318Y40023D01*
X54160Y40297D01*
X53937Y40520D01*
X53663Y40678D01*
X53358Y40760D01*
X53042D01*
X52737Y40678D01*
X52463Y40520D01*
X52240Y40297D01*
X52082Y40023D01*
X52000Y39718D01*
Y39402D01*
X52082Y39097D01*
X52240Y38823D01*
X52321Y38742D01*
X52335Y38718D01*
X52377Y38671D01*
X52402Y38634D01*
X52428Y38585D01*
X52454Y38521D01*
X52479Y38443D01*
X52500Y38350D01*
X52517Y38248D01*
X52539Y37983D01*
X52542Y37832D01*
X52544Y37822D01*
Y34472D01*
X48053Y29981D01*
X44758D01*
X44592Y30025D01*
X44408D01*
X44242Y29981D01*
X42465D01*
X42463Y29981D01*
X42459Y29981D01*
X42447D01*
X42438Y29983D01*
X42426Y29981D01*
X35574D01*
X35525Y30098D01*
X35744Y30317D01*
X35849Y30453D01*
X35914Y30611D01*
X35936Y30781D01*
Y31802D01*
X35952Y31830D01*
X36000Y32008D01*
Y32192D01*
X35952Y32370D01*
X35860Y32530D01*
X35852Y32538D01*
X35905Y32665D01*
X39860D01*
X39863Y32665D01*
X39940Y32657D01*
X39956Y32654D01*
X39970Y32640D01*
X40130Y32548D01*
X40308Y32500D01*
X40492D01*
X40670Y32548D01*
X40830Y32640D01*
X40917Y32727D01*
X40920Y32727D01*
X40983Y32732D01*
X41067D01*
X41138Y32746D01*
X41155Y32747D01*
X41164Y32751D01*
X41272Y32772D01*
X41445Y32888D01*
X44078Y35521D01*
X44195Y35695D01*
X44235Y35900D01*
Y41978D01*
X46362Y44105D01*
X48987D01*
X49032Y44103D01*
X49146Y44093D01*
X49252Y44076D01*
X49349Y44052D01*
X49439Y44023D01*
X49522Y43989D01*
X49598Y43949D01*
X49669Y43903D01*
X49735Y43852D01*
X49810Y43782D01*
X49838Y43764D01*
X49923Y43680D01*
X50197Y43522D01*
X50502Y43440D01*
X50818D01*
X51123Y43522D01*
X51397Y43680D01*
X51620Y43903D01*
X51778Y44177D01*
X51860Y44482D01*
Y44798D01*
X51778Y45103D01*
X51620Y45377D01*
X51397Y45600D01*
X51123Y45758D01*
X50818Y45840D01*
X50502D01*
X50197Y45758D01*
X49923Y45600D01*
X49838Y45516D01*
X49810Y45498D01*
X49735Y45428D01*
X49669Y45377D01*
X49598Y45331D01*
X49522Y45291D01*
X49439Y45257D01*
X49349Y45228D01*
X49252Y45204D01*
X49146Y45187D01*
X49032Y45177D01*
X48987Y45175D01*
X46140D01*
X45935Y45135D01*
X45762Y45019D01*
X43321Y42578D01*
X43205Y42405D01*
X43197Y42362D01*
X43057Y42310D01*
X42973Y42374D01*
X42870Y42417D01*
Y41275D01*
Y40133D01*
X42973Y40176D01*
X43038Y40226D01*
X43165Y40163D01*
Y36122D01*
X40847Y33804D01*
X40841Y33804D01*
X40770Y33812D01*
X40753Y33814D01*
X40742Y33817D01*
X40733Y33820D01*
X40725Y33822D01*
X40724Y33822D01*
X40724Y33822D01*
X40722Y33822D01*
X40670Y33852D01*
X40492Y33900D01*
X40308D01*
X40130Y33852D01*
X39970Y33760D01*
X39956Y33746D01*
X39944Y33744D01*
X39836Y33735D01*
X25522D01*
X17285Y41972D01*
Y42540D01*
X17412Y42571D01*
X17592Y42218D01*
X17907Y41785D01*
X18285Y41407D01*
X18718Y41092D01*
X19195Y40849D01*
X19704Y40684D01*
X20232Y40600D01*
X20768D01*
X21296Y40684D01*
X21805Y40849D01*
X22282Y41092D01*
X22715Y41407D01*
X23093Y41785D01*
X23408Y42218D01*
X23651Y42695D01*
X23816Y43204D01*
X23900Y43732D01*
Y44268D01*
X23816Y44796D01*
X23651Y45305D01*
X23408Y45782D01*
X23093Y46215D01*
X22715Y46593D01*
X22282Y46908D01*
X21805Y47151D01*
X21296Y47316D01*
X20768Y47400D01*
D02*
G37*
G36*
X34737Y45155D02*
X34230D01*
Y44313D01*
X34333Y44356D01*
X34501Y44484D01*
X34629Y44652D01*
X34709Y44846D01*
X34737Y45055D01*
Y45155D01*
D02*
G37*
G36*
X42270Y45155D02*
X41763D01*
Y45055D01*
X41791Y44846D01*
X41871Y44652D01*
X41999Y44484D01*
X42167Y44356D01*
X42270Y44313D01*
Y45155D01*
D02*
G37*
G36*
X43377D02*
X42870D01*
Y44313D01*
X42973Y44356D01*
X43141Y44484D01*
X43269Y44652D01*
X43349Y44846D01*
X43377Y45055D01*
Y45155D01*
D02*
G37*
G36*
X33630Y45155D02*
X33123D01*
Y45055D01*
X33151Y44846D01*
X33231Y44652D01*
X33359Y44484D01*
X33527Y44356D01*
X33630Y44313D01*
Y45155D01*
D02*
G37*
G36*
X54300Y44240D02*
X53600D01*
Y43540D01*
X54300D01*
Y44240D01*
D02*
G37*
G36*
X52800D02*
X52100D01*
Y43540D01*
X52800D01*
Y44240D01*
D02*
G37*
G36*
X15750Y43200D02*
X15350D01*
Y42800D01*
X15750D01*
Y43200D01*
D02*
G37*
G36*
X14350D02*
X13950D01*
Y42800D01*
X14350D01*
Y43200D01*
D02*
G37*
G36*
X9950D02*
X9550D01*
Y42800D01*
X9950D01*
Y43200D01*
D02*
G37*
G36*
X8550D02*
X8150D01*
Y42800D01*
X8550D01*
Y43200D01*
D02*
G37*
G36*
X35455Y42500D02*
X35265D01*
X35080Y42451D01*
X34915Y42355D01*
X34780Y42220D01*
X34734Y42140D01*
X34585Y42136D01*
X34501Y42246D01*
X34333Y42374D01*
X34230Y42417D01*
Y41275D01*
Y40133D01*
X34333Y40176D01*
X34501Y40304D01*
X34629Y40472D01*
X34709Y40666D01*
X34737Y40875D01*
Y41193D01*
X34864Y41246D01*
X34915Y41195D01*
X35080Y41099D01*
X35265Y41050D01*
X35455D01*
X35640Y41099D01*
X35805Y41195D01*
X35940Y41330D01*
X36036Y41495D01*
X36085Y41680D01*
Y41870D01*
X36036Y42055D01*
X35940Y42220D01*
X35805Y42355D01*
X35640Y42451D01*
X35455Y42500D01*
D02*
G37*
G36*
X33630Y42417D02*
X33527Y42374D01*
X33359Y42246D01*
X33231Y42078D01*
X33151Y41884D01*
X33123Y41675D01*
Y41575D01*
X33630D01*
Y42417D01*
D02*
G37*
G36*
X15750Y41800D02*
X15350D01*
Y41400D01*
X15750D01*
Y41800D01*
D02*
G37*
G36*
X14350D02*
X13950D01*
Y41400D01*
X14350D01*
Y41800D01*
D02*
G37*
G36*
X9950D02*
X9550D01*
Y41400D01*
X9950D01*
Y41800D01*
D02*
G37*
G36*
X8550D02*
X8150D01*
Y41400D01*
X8550D01*
Y41800D01*
D02*
G37*
G36*
X53358Y43300D02*
X53042D01*
X52737Y43218D01*
X52463Y43060D01*
X52240Y42837D01*
X52082Y42563D01*
X52000Y42258D01*
Y41942D01*
X52082Y41637D01*
X52240Y41363D01*
X52463Y41140D01*
X52737Y40982D01*
X53042Y40900D01*
X53358D01*
X53663Y40982D01*
X53937Y41140D01*
X54160Y41363D01*
X54318Y41637D01*
X54400Y41942D01*
Y42258D01*
X54318Y42563D01*
X54160Y42837D01*
X53937Y43060D01*
X53663Y43218D01*
X53358Y43300D01*
D02*
G37*
G36*
X50818D02*
X50502D01*
X50197Y43218D01*
X49923Y43060D01*
X49700Y42837D01*
X49542Y42563D01*
X49460Y42258D01*
Y41942D01*
X49542Y41637D01*
X49700Y41363D01*
X49923Y41140D01*
X50197Y40982D01*
X50502Y40900D01*
X50818D01*
X51123Y40982D01*
X51397Y41140D01*
X51620Y41363D01*
X51778Y41637D01*
X51860Y41942D01*
Y42258D01*
X51778Y42563D01*
X51620Y42837D01*
X51397Y43060D01*
X51123Y43218D01*
X50818Y43300D01*
D02*
G37*
G36*
X88768Y47400D02*
X88232D01*
X87704Y47316D01*
X87195Y47151D01*
X86718Y46908D01*
X86285Y46593D01*
X85907Y46215D01*
X85592Y45782D01*
X85349Y45305D01*
X85184Y44796D01*
X85100Y44268D01*
Y43732D01*
X85184Y43204D01*
X85349Y42695D01*
X85592Y42218D01*
X85907Y41785D01*
X86285Y41407D01*
X86718Y41092D01*
X87195Y40849D01*
X87704Y40684D01*
X88232Y40600D01*
X88768D01*
X89296Y40684D01*
X89805Y40849D01*
X90282Y41092D01*
X90715Y41407D01*
X91093Y41785D01*
X91408Y42218D01*
X91651Y42695D01*
X91816Y43204D01*
X91900Y43732D01*
Y44268D01*
X91816Y44796D01*
X91651Y45305D01*
X91408Y45782D01*
X91093Y46215D01*
X90715Y46593D01*
X90282Y46908D01*
X89805Y47151D01*
X89296Y47316D01*
X88768Y47400D01*
D02*
G37*
G36*
X4268D02*
X3732D01*
X3204Y47316D01*
X2695Y47151D01*
X2218Y46908D01*
X1785Y46593D01*
X1407Y46215D01*
X1092Y45782D01*
X849Y45305D01*
X684Y44796D01*
X600Y44268D01*
Y43732D01*
X684Y43204D01*
X849Y42695D01*
X1092Y42218D01*
X1407Y41785D01*
X1785Y41407D01*
X2218Y41092D01*
X2695Y40849D01*
X3204Y40684D01*
X3732Y40600D01*
X4268D01*
X4796Y40684D01*
X5305Y40849D01*
X5782Y41092D01*
X6215Y41407D01*
X6593Y41785D01*
X6908Y42218D01*
X7151Y42695D01*
X7316Y43204D01*
X7400Y43732D01*
Y44268D01*
X7316Y44796D01*
X7151Y45305D01*
X6908Y45782D01*
X6593Y46215D01*
X6215Y46593D01*
X5782Y46908D01*
X5305Y47151D01*
X4796Y47316D01*
X4268Y47400D01*
D02*
G37*
G36*
X41235Y42500D02*
X41045D01*
X40860Y42451D01*
X40695Y42355D01*
X40560Y42220D01*
X40464Y42055D01*
X40415Y41870D01*
Y41680D01*
X40464Y41495D01*
X40560Y41330D01*
X40695Y41195D01*
X40860Y41099D01*
X41045Y41050D01*
X41235D01*
X41420Y41099D01*
X41585Y41195D01*
X41636Y41246D01*
X41763Y41193D01*
Y40875D01*
X41791Y40666D01*
X41871Y40472D01*
X41999Y40304D01*
X42167Y40176D01*
X42270Y40133D01*
Y41275D01*
Y42417D01*
X42167Y42374D01*
X41999Y42246D01*
X41915Y42136D01*
X41766Y42140D01*
X41720Y42220D01*
X41585Y42355D01*
X41420Y42451D01*
X41235Y42500D01*
D02*
G37*
G36*
X33630Y40975D02*
X33123D01*
Y40875D01*
X33151Y40666D01*
X33231Y40472D01*
X33359Y40304D01*
X33527Y40176D01*
X33630Y40133D01*
Y40975D01*
D02*
G37*
G36*
X4825Y39959D02*
X4375D01*
Y38950D01*
X5877D01*
X5848Y39174D01*
X5742Y39430D01*
X5574Y39649D01*
X5355Y39817D01*
X5099Y39923D01*
X4825Y39959D01*
D02*
G37*
G36*
X2775D02*
X2325D01*
X2051Y39923D01*
X1795Y39817D01*
X1576Y39649D01*
X1408Y39430D01*
X1302Y39174D01*
X1273Y38950D01*
X2775D01*
Y39959D01*
D02*
G37*
G36*
X50818Y40760D02*
X50502D01*
X50197Y40678D01*
X49923Y40520D01*
X49700Y40297D01*
X49542Y40023D01*
X49460Y39718D01*
Y39402D01*
X49542Y39097D01*
X49700Y38823D01*
X49923Y38600D01*
X50197Y38442D01*
X50502Y38360D01*
X50818D01*
X51123Y38442D01*
X51397Y38600D01*
X51620Y38823D01*
X51778Y39097D01*
X51860Y39402D01*
Y39718D01*
X51778Y40023D01*
X51620Y40297D01*
X51397Y40520D01*
X51123Y40678D01*
X50818Y40760D01*
D02*
G37*
G36*
X11753Y39905D02*
X11729Y39900D01*
X11350D01*
Y39761D01*
X11330Y39759D01*
X11247Y39758D01*
X11237Y39756D01*
X11100D01*
X10930Y39733D01*
X10772Y39668D01*
X10636Y39564D01*
X10161Y39089D01*
X10057Y38953D01*
X9992Y38795D01*
X9969Y38625D01*
Y36670D01*
X9967Y36661D01*
X9965Y36578D01*
X9963Y36557D01*
X9050D01*
X8835Y36529D01*
X8634Y36446D01*
X8462Y36313D01*
X8329Y36141D01*
X8246Y35940D01*
X8218Y35725D01*
Y34875D01*
X8246Y34660D01*
X8329Y34459D01*
X8462Y34287D01*
X8634Y34154D01*
X8720Y34119D01*
Y33981D01*
X8634Y33946D01*
X8462Y33813D01*
X8329Y33641D01*
X8246Y33440D01*
X8218Y33225D01*
Y32375D01*
X8246Y32160D01*
X8329Y31959D01*
X8451Y31800D01*
X8329Y31641D01*
X8246Y31440D01*
X8218Y31225D01*
Y30375D01*
X8246Y30160D01*
X8329Y29959D01*
X8462Y29787D01*
X8634Y29654D01*
X8835Y29571D01*
X8893Y29564D01*
Y29436D01*
X8861Y29431D01*
X8684Y29358D01*
X8533Y29242D01*
X8417Y29091D01*
X8344Y28914D01*
X8329Y28800D01*
X10625D01*
X12921D01*
X12906Y28914D01*
X12833Y29091D01*
X12717Y29242D01*
X12566Y29358D01*
X12389Y29431D01*
X12357Y29436D01*
Y29564D01*
X12415Y29571D01*
X12616Y29654D01*
X12788Y29787D01*
X12921Y29959D01*
X13004Y30160D01*
X13032Y30375D01*
Y31225D01*
X13004Y31440D01*
X12921Y31641D01*
X12799Y31800D01*
X12921Y31959D01*
X13004Y32160D01*
X13032Y32375D01*
Y33225D01*
X13004Y33440D01*
X12921Y33641D01*
X12788Y33813D01*
X12616Y33946D01*
X12530Y33981D01*
Y34119D01*
X12616Y34154D01*
X12788Y34287D01*
X12921Y34459D01*
X13004Y34660D01*
X13032Y34875D01*
Y35725D01*
X13004Y35940D01*
X12921Y36141D01*
X12788Y36313D01*
X12616Y36446D01*
X12415Y36529D01*
X12200Y36557D01*
X11287D01*
X11285Y36578D01*
X11283Y36661D01*
X11281Y36670D01*
Y38202D01*
X11350Y38300D01*
X11729D01*
X11753Y38295D01*
X11777Y38300D01*
X12750D01*
Y39900D01*
X11777D01*
X11753Y39905D01*
D02*
G37*
G36*
X30792Y39200D02*
X30608D01*
X30430Y39152D01*
X30270Y39060D01*
X30140Y38930D01*
X30048Y38770D01*
X30000Y38592D01*
Y38408D01*
X30048Y38230D01*
X30140Y38070D01*
X30270Y37940D01*
X30430Y37848D01*
X30465Y37838D01*
Y37340D01*
X30465Y37337D01*
X30457Y37260D01*
X30454Y37244D01*
X30440Y37230D01*
X30348Y37070D01*
X30332Y37013D01*
X30298Y36994D01*
X30192Y36981D01*
X30053Y37120D01*
X29847Y37239D01*
X29618Y37300D01*
X29382D01*
X29153Y37239D01*
X28947Y37120D01*
X28780Y36953D01*
X28661Y36747D01*
X28600Y36518D01*
Y36282D01*
X28653Y36084D01*
X28651Y36074D01*
X28605Y35999D01*
X28567Y35963D01*
X28445D01*
X28267Y35915D01*
X28108Y35823D01*
X27977Y35692D01*
X27885Y35533D01*
X27837Y35355D01*
Y35170D01*
X27885Y34992D01*
X27977Y34833D01*
X28108Y34702D01*
X28267Y34610D01*
X28445Y34562D01*
X28630D01*
X28808Y34610D01*
X28967Y34702D01*
X29098Y34833D01*
X29190Y34992D01*
X29237Y35170D01*
Y35355D01*
X29222Y35411D01*
X29326Y35515D01*
X29382Y35500D01*
X29618D01*
X29847Y35561D01*
X30053Y35680D01*
X30220Y35847D01*
X30339Y36053D01*
X30389Y36241D01*
X30491Y36283D01*
X30527Y36283D01*
X30570Y36240D01*
X30730Y36148D01*
X30908Y36100D01*
X31092D01*
X31270Y36148D01*
X31430Y36240D01*
X31560Y36370D01*
X31652Y36530D01*
X31700Y36708D01*
Y36892D01*
X31652Y37070D01*
X31560Y37230D01*
X31546Y37244D01*
X31544Y37256D01*
X31535Y37364D01*
Y38105D01*
X31495Y38310D01*
X31400Y38452D01*
Y38592D01*
X31352Y38770D01*
X31260Y38930D01*
X31130Y39060D01*
X30970Y39152D01*
X30792Y39200D01*
D02*
G37*
G36*
X15500Y37492D02*
Y36900D01*
X16092D01*
X16090Y36910D01*
X15950Y37152D01*
X15752Y37350D01*
X15510Y37490D01*
X15500Y37492D01*
D02*
G37*
G36*
X14700D02*
X14690Y37490D01*
X14448Y37350D01*
X14250Y37152D01*
X14110Y36910D01*
X14108Y36900D01*
X14700D01*
Y37492D01*
D02*
G37*
G36*
X5877Y37350D02*
X4375D01*
Y36341D01*
X4825D01*
X5099Y36377D01*
X5355Y36483D01*
X5574Y36651D01*
X5742Y36870D01*
X5848Y37126D01*
X5877Y37350D01*
D02*
G37*
G36*
X2775D02*
X1273D01*
X1302Y37126D01*
X1408Y36870D01*
X1576Y36651D01*
X1795Y36483D01*
X2051Y36377D01*
X2325Y36341D01*
X2775D01*
Y37350D01*
D02*
G37*
G36*
X34118Y37300D02*
X33882D01*
X33653Y37239D01*
X33447Y37120D01*
X33280Y36953D01*
X33161Y36747D01*
X33100Y36518D01*
Y36282D01*
X33161Y36053D01*
X33280Y35847D01*
X33447Y35680D01*
X33653Y35561D01*
X33882Y35500D01*
X34118D01*
X34347Y35561D01*
X34553Y35680D01*
X34720Y35847D01*
X34839Y36053D01*
X34900Y36282D01*
Y36518D01*
X34839Y36747D01*
X34720Y36953D01*
X34553Y37120D01*
X34347Y37239D01*
X34118Y37300D01*
D02*
G37*
G36*
X89250Y33370D02*
X88550D01*
Y32670D01*
X89250D01*
Y33370D01*
D02*
G37*
G36*
X87450D02*
X86750D01*
Y32670D01*
X87450D01*
Y33370D01*
D02*
G37*
G36*
X12921Y27800D02*
X11125D01*
Y27144D01*
X12200D01*
X12389Y27169D01*
X12566Y27242D01*
X12717Y27358D01*
X12833Y27509D01*
X12906Y27686D01*
X12921Y27800D01*
D02*
G37*
G36*
X10125D02*
X8329D01*
X8344Y27686D01*
X8417Y27509D01*
X8533Y27358D01*
X8684Y27242D01*
X8861Y27169D01*
X9050Y27144D01*
X10125D01*
Y27800D01*
D02*
G37*
G36*
X16837Y27209D02*
X16630D01*
Y26905D01*
X17276D01*
X17273Y26918D01*
X17171Y27071D01*
X17018Y27173D01*
X16837Y27209D01*
D02*
G37*
G36*
X15770D02*
X15562D01*
X15382Y27173D01*
X15229Y27071D01*
X15127Y26918D01*
X15124Y26905D01*
X15770D01*
Y27209D01*
D02*
G37*
G36*
X4825Y27259D02*
X4375D01*
Y26250D01*
X5877D01*
X5848Y26474D01*
X5742Y26730D01*
X5574Y26949D01*
X5355Y27117D01*
X5099Y27223D01*
X4825Y27259D01*
D02*
G37*
G36*
X2775D02*
X2325D01*
X2051Y27223D01*
X1795Y27117D01*
X1576Y26949D01*
X1408Y26730D01*
X1302Y26474D01*
X1273Y26250D01*
X2775D01*
Y27259D01*
D02*
G37*
G36*
X17276Y26045D02*
X16630D01*
Y25741D01*
X16837D01*
X17018Y25777D01*
X17171Y25879D01*
X17273Y26032D01*
X17276Y26045D01*
D02*
G37*
G36*
X15770D02*
X15124D01*
X15127Y26032D01*
X15229Y25879D01*
X15382Y25777D01*
X15562Y25741D01*
X15770D01*
Y26045D01*
D02*
G37*
G36*
X5877Y24650D02*
X4375D01*
Y23641D01*
X4825D01*
X5099Y23677D01*
X5355Y23783D01*
X5574Y23951D01*
X5742Y24170D01*
X5848Y24426D01*
X5877Y24650D01*
D02*
G37*
G36*
X2775D02*
X1273D01*
X1302Y24426D01*
X1408Y24170D01*
X1576Y23951D01*
X1795Y23783D01*
X2051Y23677D01*
X2325Y23641D01*
X2775D01*
Y24650D01*
D02*
G37*
G36*
X6953Y23305D02*
X6929Y23300D01*
X6550D01*
Y23161D01*
X6530Y23159D01*
X6447Y23158D01*
X6437Y23156D01*
X6000D01*
X5830Y23133D01*
X5672Y23068D01*
X5536Y22964D01*
X4736Y22164D01*
X4632Y22028D01*
X4567Y21870D01*
X4544Y21700D01*
Y20372D01*
X4527Y20354D01*
X4519Y20349D01*
X4332Y20175D01*
X4265Y20122D01*
X4234Y20100D01*
X4099D01*
X4090Y20102D01*
X4081Y20100D01*
X2800D01*
Y17700D01*
X3725D01*
X3741Y17573D01*
X3537Y17518D01*
X3263Y17360D01*
X3040Y17137D01*
X2882Y16863D01*
X2800Y16558D01*
Y16242D01*
X2882Y15937D01*
X3040Y15663D01*
X3263Y15440D01*
X3537Y15282D01*
X3783Y15216D01*
Y15084D01*
X3537Y15018D01*
X3263Y14860D01*
X3040Y14637D01*
X2882Y14363D01*
X2800Y14058D01*
Y13742D01*
X2882Y13437D01*
X3040Y13163D01*
X3263Y12940D01*
X3537Y12782D01*
X3842Y12700D01*
X4158D01*
X4463Y12782D01*
X4737Y12940D01*
X4960Y13163D01*
X5118Y13437D01*
X5200Y13742D01*
Y14058D01*
X5118Y14363D01*
X4960Y14637D01*
X4737Y14860D01*
X4463Y15018D01*
X4217Y15084D01*
Y15216D01*
X4463Y15282D01*
X4737Y15440D01*
X4960Y15663D01*
X5118Y15937D01*
X5200Y16242D01*
Y16558D01*
X5118Y16863D01*
X4960Y17137D01*
X4737Y17360D01*
X4463Y17518D01*
X4259Y17573D01*
X4275Y17700D01*
X5200D01*
Y18981D01*
X5202Y18990D01*
X5200Y18999D01*
Y19134D01*
X5218Y19161D01*
X5354Y19320D01*
X5444Y19414D01*
X5449Y19422D01*
X5664Y19636D01*
X5768Y19772D01*
X5833Y19930D01*
X5856Y20100D01*
Y21428D01*
X6272Y21844D01*
X6431D01*
X6440Y21842D01*
X6550Y21839D01*
Y21700D01*
X6929D01*
X6953Y21695D01*
X6977Y21700D01*
X7950D01*
Y23300D01*
X6977D01*
X6953Y23305D01*
D02*
G37*
G36*
X62118Y22200D02*
X61882D01*
X61653Y22139D01*
X61447Y22020D01*
X61280Y21853D01*
X61161Y21647D01*
X61100Y21418D01*
Y21182D01*
X61161Y20953D01*
X61280Y20747D01*
X61447Y20580D01*
X61653Y20461D01*
X61882Y20400D01*
X62118D01*
X62347Y20461D01*
X62553Y20580D01*
X62720Y20747D01*
X62839Y20953D01*
X62900Y21182D01*
Y21418D01*
X62839Y21647D01*
X62720Y21853D01*
X62553Y22020D01*
X62347Y22139D01*
X62118Y22200D01*
D02*
G37*
G36*
X24542Y20950D02*
X24358D01*
X24180Y20902D01*
X24020Y20810D01*
X23890Y20680D01*
X23798Y20520D01*
X23750Y20342D01*
Y20158D01*
X23798Y19980D01*
X23890Y19820D01*
X24020Y19690D01*
X24180Y19598D01*
X24358Y19550D01*
X24542D01*
X24720Y19598D01*
X24880Y19690D01*
X25010Y19820D01*
X25102Y19980D01*
X25150Y20158D01*
Y20342D01*
X25102Y20520D01*
X25010Y20680D01*
X24880Y20810D01*
X24720Y20902D01*
X24542Y20950D01*
D02*
G37*
G36*
X62118Y18650D02*
X61882D01*
X61653Y18589D01*
X61447Y18470D01*
X61280Y18303D01*
X61161Y18097D01*
X61100Y17868D01*
Y17632D01*
X61161Y17403D01*
X61280Y17197D01*
X61447Y17030D01*
X61653Y16911D01*
X61882Y16850D01*
X62118D01*
X62347Y16911D01*
X62553Y17030D01*
X62720Y17197D01*
X62839Y17403D01*
X62900Y17632D01*
Y17868D01*
X62839Y18097D01*
X62720Y18303D01*
X62553Y18470D01*
X62347Y18589D01*
X62118Y18650D01*
D02*
G37*
G36*
X89126Y16330D02*
X88550D01*
Y15754D01*
X88768Y15880D01*
X89000Y16112D01*
X89126Y16330D01*
D02*
G37*
G36*
X87450D02*
X86874D01*
X87000Y16112D01*
X87232Y15880D01*
X87450Y15754D01*
Y16330D01*
D02*
G37*
G36*
X25092Y28700D02*
X24908D01*
X24730Y28652D01*
X24570Y28560D01*
X24440Y28430D01*
X24348Y28270D01*
X24300Y28092D01*
Y27908D01*
X24348Y27730D01*
X24440Y27570D01*
X24454Y27556D01*
X24456Y27544D01*
X24465Y27436D01*
Y26800D01*
X24505Y26595D01*
X24622Y26421D01*
X34640Y16403D01*
X34641Y16401D01*
X34691Y16341D01*
X34700Y16328D01*
Y16308D01*
X34748Y16130D01*
X34840Y15970D01*
X34970Y15840D01*
X35130Y15748D01*
X35308Y15700D01*
X35492D01*
X35670Y15748D01*
X35830Y15840D01*
X35960Y15970D01*
X36052Y16130D01*
X36100Y16308D01*
Y16492D01*
X36052Y16670D01*
X35960Y16830D01*
X35830Y16960D01*
X35670Y17052D01*
X35492Y17100D01*
X35472D01*
X35462Y17107D01*
X35380Y17177D01*
X25535Y27022D01*
Y27460D01*
X25535Y27463D01*
X25543Y27540D01*
X25546Y27556D01*
X25560Y27570D01*
X25652Y27730D01*
X25700Y27908D01*
Y28092D01*
X25652Y28270D01*
X25560Y28430D01*
X25430Y28560D01*
X25270Y28652D01*
X25092Y28700D01*
D02*
G37*
G36*
X34092Y15950D02*
X33908D01*
X33730Y15902D01*
X33570Y15810D01*
X33451Y15691D01*
X33388Y15677D01*
X33362D01*
X33299Y15691D01*
X33180Y15810D01*
X33020Y15902D01*
X32842Y15950D01*
X32658D01*
X32480Y15902D01*
X32320Y15810D01*
X32190Y15680D01*
X32098Y15520D01*
X32050Y15342D01*
Y15158D01*
X32098Y14980D01*
X32190Y14820D01*
X32320Y14690D01*
X32480Y14598D01*
X32658Y14550D01*
X32678D01*
X32688Y14543D01*
X32770Y14473D01*
X38371Y8872D01*
X38545Y8755D01*
X38750Y8715D01*
X62528D01*
X63990Y7253D01*
X63991Y7251D01*
X64041Y7191D01*
X64050Y7178D01*
Y7158D01*
X64098Y6980D01*
X64190Y6820D01*
X64320Y6690D01*
X64480Y6598D01*
X64658Y6550D01*
X64842D01*
X65020Y6598D01*
X65180Y6690D01*
X65310Y6820D01*
X65402Y6980D01*
X65450Y7158D01*
Y7342D01*
X65402Y7520D01*
X65310Y7680D01*
X65180Y7810D01*
X65020Y7902D01*
X64842Y7950D01*
X64822D01*
X64812Y7957D01*
X64730Y8027D01*
X63169Y9588D01*
X63222Y9715D01*
X74928D01*
X77640Y7003D01*
X77641Y7001D01*
X77691Y6941D01*
X77700Y6928D01*
Y6908D01*
X77748Y6730D01*
X77840Y6570D01*
X77970Y6440D01*
X78130Y6348D01*
X78308Y6300D01*
X78492D01*
X78670Y6348D01*
X78830Y6440D01*
X78960Y6570D01*
X79052Y6730D01*
X79100Y6908D01*
Y7092D01*
X79052Y7270D01*
X78960Y7430D01*
X78830Y7560D01*
X78670Y7652D01*
X78492Y7700D01*
X78472D01*
X78462Y7707D01*
X78380Y7777D01*
X75529Y10628D01*
X75355Y10745D01*
X75150Y10785D01*
X39222D01*
X34760Y15247D01*
X34759Y15249D01*
X34709Y15309D01*
X34700Y15322D01*
Y15342D01*
X34652Y15520D01*
X34560Y15680D01*
X34430Y15810D01*
X34270Y15902D01*
X34092Y15950D01*
D02*
G37*
G36*
X39767Y15125D02*
X39583D01*
X39405Y15077D01*
X39245Y14985D01*
X39115Y14855D01*
X39023Y14695D01*
X38975Y14517D01*
Y14333D01*
X39023Y14155D01*
X39115Y13995D01*
X39245Y13865D01*
X39405Y13773D01*
X39583Y13725D01*
X39767D01*
X39945Y13773D01*
X40105Y13865D01*
X40235Y13995D01*
X40327Y14155D01*
X40375Y14333D01*
Y14517D01*
X40327Y14695D01*
X40235Y14855D01*
X40105Y14985D01*
X39945Y15077D01*
X39767Y15125D01*
D02*
G37*
G36*
X23818Y14600D02*
X23582D01*
X23353Y14539D01*
X23147Y14420D01*
X22980Y14253D01*
X22861Y14047D01*
X22800Y13818D01*
Y13582D01*
X22861Y13353D01*
X22980Y13147D01*
X23147Y12980D01*
X23353Y12861D01*
X23582Y12800D01*
X23818D01*
X24047Y12861D01*
X24253Y12980D01*
X24420Y13147D01*
X24539Y13353D01*
X24600Y13582D01*
Y13818D01*
X24539Y14047D01*
X24420Y14253D01*
X24253Y14420D01*
X24047Y14539D01*
X23818Y14600D01*
D02*
G37*
G36*
X4400Y12432D02*
Y11800D01*
X5032D01*
X5025Y11825D01*
X4880Y12075D01*
X4675Y12280D01*
X4425Y12425D01*
X4400Y12432D01*
D02*
G37*
G36*
X3600Y12432D02*
X3575Y12425D01*
X3325Y12280D01*
X3120Y12075D01*
X2975Y11825D01*
X2968Y11800D01*
X3600D01*
Y12432D01*
D02*
G37*
G36*
X8425Y20066D02*
X7475D01*
X7299Y20043D01*
X7135Y19975D01*
X6994Y19866D01*
X6885Y19725D01*
X6817Y19561D01*
X6794Y19385D01*
Y18835D01*
X6817Y18659D01*
X6885Y18495D01*
X6994Y18354D01*
X7135Y18245D01*
X7299Y18177D01*
X7415Y18162D01*
Y17518D01*
X7299Y17503D01*
X7135Y17435D01*
X6994Y17326D01*
X6885Y17185D01*
X6817Y17021D01*
X6794Y16845D01*
Y16295D01*
X6817Y16119D01*
X6885Y15955D01*
X6994Y15814D01*
X7135Y15705D01*
X7299Y15637D01*
X7415Y15622D01*
Y14978D01*
X7299Y14963D01*
X7135Y14895D01*
X6994Y14786D01*
X6885Y14645D01*
X6817Y14481D01*
X6794Y14305D01*
Y13755D01*
X6817Y13579D01*
X6885Y13415D01*
X6994Y13274D01*
X7135Y13165D01*
X7299Y13097D01*
X7415Y13082D01*
Y12438D01*
X7299Y12423D01*
X7135Y12355D01*
X6994Y12246D01*
X6885Y12105D01*
X6817Y11941D01*
X6794Y11765D01*
Y11215D01*
X6817Y11039D01*
X6885Y10875D01*
X6994Y10734D01*
X7135Y10625D01*
X7299Y10557D01*
X7475Y10534D01*
X8425D01*
X8601Y10557D01*
X8765Y10625D01*
X8906Y10734D01*
X9015Y10875D01*
X9083Y11039D01*
X9106Y11215D01*
Y11765D01*
X9083Y11941D01*
X9015Y12105D01*
X8906Y12246D01*
X8765Y12355D01*
X8601Y12423D01*
X8485Y12438D01*
Y13082D01*
X8601Y13097D01*
X8765Y13165D01*
X8906Y13274D01*
X9015Y13415D01*
X9083Y13579D01*
X9106Y13755D01*
Y14305D01*
X9083Y14481D01*
X9015Y14645D01*
X8906Y14786D01*
X8765Y14895D01*
X8601Y14963D01*
X8485Y14978D01*
Y15622D01*
X8601Y15637D01*
X8765Y15705D01*
X8906Y15814D01*
X9015Y15955D01*
X9083Y16119D01*
X9106Y16295D01*
Y16845D01*
X9083Y17021D01*
X9015Y17185D01*
X8906Y17326D01*
X8765Y17435D01*
X8601Y17503D01*
X8485Y17518D01*
Y18162D01*
X8601Y18177D01*
X8765Y18245D01*
X8906Y18354D01*
X9015Y18495D01*
X9083Y18659D01*
X9106Y18835D01*
Y19385D01*
X9083Y19561D01*
X9015Y19725D01*
X8906Y19866D01*
X8765Y19975D01*
X8601Y20043D01*
X8425Y20066D01*
D02*
G37*
G36*
X3600Y11000D02*
X2968D01*
X2975Y10975D01*
X3120Y10725D01*
X3325Y10520D01*
X3575Y10375D01*
X3600Y10368D01*
Y11000D01*
D02*
G37*
G36*
X5032D02*
X4400D01*
Y10368D01*
X4425Y10375D01*
X4675Y10520D01*
X4880Y10725D01*
X5025Y10975D01*
X5032Y11000D01*
D02*
G37*
G36*
X30842Y14950D02*
X30658D01*
X30480Y14902D01*
X30320Y14810D01*
X30190Y14680D01*
X30098Y14520D01*
X30050Y14342D01*
Y14158D01*
X30098Y13980D01*
X30190Y13820D01*
X30204Y13806D01*
X30206Y13794D01*
X30215Y13686D01*
Y10722D01*
X28778Y9285D01*
X27170D01*
X27136Y9412D01*
X27253Y9480D01*
X27420Y9647D01*
X27539Y9853D01*
X27600Y10082D01*
Y10318D01*
X27539Y10547D01*
X27420Y10753D01*
X27253Y10920D01*
X27047Y11039D01*
X26818Y11100D01*
X26582D01*
X26353Y11039D01*
X26147Y10920D01*
X25980Y10753D01*
X25861Y10547D01*
X25800Y10318D01*
Y10082D01*
X25861Y9853D01*
X25980Y9647D01*
X26147Y9480D01*
X26264Y9412D01*
X26230Y9285D01*
X24458D01*
X24410Y9403D01*
X26628Y11622D01*
X26745Y11795D01*
X26785Y12000D01*
Y13710D01*
X26785Y13713D01*
X26793Y13790D01*
X26796Y13806D01*
X26810Y13820D01*
X26902Y13980D01*
X26950Y14158D01*
Y14342D01*
X26902Y14520D01*
X26810Y14680D01*
X26680Y14810D01*
X26520Y14902D01*
X26342Y14950D01*
X26158D01*
X25980Y14902D01*
X25820Y14810D01*
X25690Y14680D01*
X25598Y14520D01*
X25550Y14342D01*
Y14158D01*
X25598Y13980D01*
X25690Y13820D01*
X25704Y13806D01*
X25706Y13794D01*
X25715Y13686D01*
Y12222D01*
X23353Y9860D01*
X17075D01*
X16870Y9820D01*
X16697Y9703D01*
X12600Y5607D01*
X12484Y5433D01*
X12477Y5400D01*
X12000D01*
Y3900D01*
X12400D01*
X12400Y3700D01*
X12200D01*
Y3380D01*
X12401D01*
X12403Y3400D01*
Y3380D01*
X12900D01*
X13394D01*
Y3400D01*
X13396Y3380D01*
X13600D01*
Y3700D01*
X13400D01*
X13400Y3900D01*
X13800D01*
Y5293D01*
X14576Y6069D01*
X14693Y6020D01*
Y5400D01*
X14200D01*
Y3900D01*
X14600D01*
Y3700D01*
X14400D01*
Y3380D01*
X14601D01*
X14603Y3400D01*
Y3380D01*
X15100D01*
X15800D01*
Y3700D01*
X15600D01*
Y3900D01*
X16000D01*
Y5400D01*
X15764D01*
Y6257D01*
X17722Y8215D01*
X18660D01*
X18690Y8088D01*
X18285Y7793D01*
X17907Y7415D01*
X17592Y6982D01*
X17349Y6505D01*
X17184Y5996D01*
X17100Y5468D01*
Y4932D01*
X17184Y4404D01*
X17349Y3895D01*
X17592Y3418D01*
X17907Y2985D01*
X18285Y2607D01*
X18718Y2292D01*
X19195Y2049D01*
X19704Y1884D01*
X20232Y1800D01*
X20768D01*
X21296Y1884D01*
X21805Y2049D01*
X22282Y2292D01*
X22715Y2607D01*
X23093Y2985D01*
X23408Y3418D01*
X23651Y3895D01*
X23816Y4404D01*
X23900Y4932D01*
Y5468D01*
X23816Y5996D01*
X23651Y6505D01*
X23408Y6982D01*
X23093Y7415D01*
X22715Y7793D01*
X22310Y8088D01*
X22340Y8215D01*
X29000D01*
X29205Y8255D01*
X29378Y8372D01*
X31128Y10122D01*
X31245Y10295D01*
X31285Y10500D01*
Y13710D01*
X31285Y13713D01*
X31293Y13790D01*
X31296Y13806D01*
X31310Y13820D01*
X31402Y13980D01*
X31450Y14158D01*
Y14342D01*
X31402Y14520D01*
X31310Y14680D01*
X31180Y14810D01*
X31020Y14902D01*
X30842Y14950D01*
D02*
G37*
G36*
X81992Y9200D02*
X81808D01*
X81630Y9152D01*
X81470Y9060D01*
X81340Y8930D01*
X81248Y8770D01*
X81200Y8592D01*
Y8408D01*
X81248Y8230D01*
X81340Y8070D01*
X81470Y7940D01*
X81630Y7848D01*
X81808Y7800D01*
X81992D01*
X82170Y7848D01*
X82330Y7940D01*
X82460Y8070D01*
X82552Y8230D01*
X82600Y8408D01*
Y8592D01*
X82552Y8770D01*
X82460Y8930D01*
X82330Y9060D01*
X82170Y9152D01*
X81992Y9200D01*
D02*
G37*
G36*
X11092Y9900D02*
X10908D01*
X10730Y9852D01*
X10570Y9760D01*
X10440Y9630D01*
X10348Y9470D01*
X10300Y9292D01*
Y9108D01*
X10348Y8930D01*
X10440Y8770D01*
X10454Y8756D01*
X10456Y8744D01*
X10465Y8636D01*
Y8622D01*
X9222Y7378D01*
X9105Y7205D01*
X9065Y7000D01*
Y5400D01*
X8600D01*
Y3900D01*
X9000D01*
Y3700D01*
X8800D01*
Y3380D01*
X9001D01*
X9003Y3400D01*
Y3380D01*
X9500D01*
X9994D01*
Y3400D01*
X9996Y3380D01*
X10200D01*
Y3700D01*
X10000D01*
Y3900D01*
X10400D01*
Y5400D01*
X10135D01*
Y6778D01*
X11378Y8021D01*
X11495Y8195D01*
X11535Y8400D01*
Y8660D01*
X11535Y8663D01*
X11543Y8740D01*
X11546Y8756D01*
X11560Y8770D01*
X11652Y8930D01*
X11700Y9108D01*
Y9292D01*
X11652Y9470D01*
X11560Y9630D01*
X11430Y9760D01*
X11270Y9852D01*
X11092Y9900D01*
D02*
G37*
G36*
X14870Y2920D02*
X14603D01*
Y2900D01*
X14601Y2920D01*
X14400D01*
Y2600D01*
X14870D01*
Y2920D01*
D02*
G37*
G36*
X13600Y2920D02*
X13396D01*
X13394Y2900D01*
Y2920D01*
X13130D01*
Y2600D01*
X13600D01*
Y2920D01*
D02*
G37*
G36*
X12670D02*
X12403D01*
Y2900D01*
X12401Y2920D01*
X12200D01*
Y2600D01*
X12670D01*
Y2920D01*
D02*
G37*
G36*
X10200Y2920D02*
X9996D01*
X9994Y2900D01*
Y2920D01*
X9730D01*
Y2600D01*
X10200D01*
Y2920D01*
D02*
G37*
G36*
X9270D02*
X9003D01*
Y2900D01*
X9001Y2920D01*
X8800D01*
Y2600D01*
X9270D01*
Y2920D01*
D02*
G37*
G36*
X15800Y2920D02*
X15330D01*
Y2600D01*
X15800D01*
Y2920D01*
D02*
G37*
G36*
X65749Y4050D02*
X65551D01*
X65361Y3999D01*
X65189Y3900D01*
X65050Y3761D01*
X64951Y3589D01*
X64900Y3399D01*
Y3201D01*
X64951Y3011D01*
X65050Y2839D01*
X65189Y2700D01*
X65361Y2601D01*
X65551Y2550D01*
X65749D01*
X65939Y2601D01*
X66111Y2700D01*
X66250Y2839D01*
X66349Y3011D01*
X66400Y3201D01*
Y3399D01*
X66349Y3589D01*
X66250Y3761D01*
X66111Y3900D01*
X65939Y3999D01*
X65749Y4050D01*
D02*
G37*
G36*
X64049D02*
X63851D01*
X63661Y3999D01*
X63489Y3900D01*
X63350Y3761D01*
X63251Y3589D01*
X63200Y3399D01*
Y3201D01*
X63251Y3011D01*
X63350Y2839D01*
X63489Y2700D01*
X63661Y2601D01*
X63851Y2550D01*
X64049D01*
X64239Y2601D01*
X64411Y2700D01*
X64550Y2839D01*
X64649Y3011D01*
X64700Y3201D01*
Y3399D01*
X64649Y3589D01*
X64550Y3761D01*
X64411Y3900D01*
X64239Y3999D01*
X64049Y4050D01*
D02*
G37*
G36*
X79599Y4000D02*
X79401D01*
X79211Y3949D01*
X79039Y3850D01*
X78900Y3711D01*
X78801Y3539D01*
X78750Y3349D01*
Y3151D01*
X78801Y2961D01*
X78900Y2789D01*
X79039Y2650D01*
X79211Y2551D01*
X79401Y2500D01*
X79599D01*
X79789Y2551D01*
X79961Y2650D01*
X80100Y2789D01*
X80199Y2961D01*
X80250Y3151D01*
Y3349D01*
X80199Y3539D01*
X80100Y3711D01*
X79961Y3850D01*
X79789Y3949D01*
X79599Y4000D01*
D02*
G37*
G36*
X77899D02*
X77701D01*
X77511Y3949D01*
X77339Y3850D01*
X77200Y3711D01*
X77101Y3539D01*
X77050Y3349D01*
Y3151D01*
X77101Y2961D01*
X77200Y2789D01*
X77339Y2650D01*
X77511Y2551D01*
X77701Y2500D01*
X77899D01*
X78089Y2551D01*
X78261Y2650D01*
X78400Y2789D01*
X78499Y2961D01*
X78550Y3151D01*
Y3349D01*
X78499Y3539D01*
X78400Y3711D01*
X78261Y3850D01*
X78089Y3949D01*
X77899Y4000D01*
D02*
G37*
G36*
X4268Y8600D02*
X3732D01*
X3204Y8516D01*
X2695Y8351D01*
X2218Y8108D01*
X1785Y7793D01*
X1407Y7415D01*
X1092Y6982D01*
X849Y6505D01*
X684Y5996D01*
X600Y5468D01*
Y4932D01*
X684Y4404D01*
X849Y3895D01*
X1092Y3418D01*
X1407Y2985D01*
X1785Y2607D01*
X2218Y2292D01*
X2695Y2049D01*
X3204Y1884D01*
X3732Y1800D01*
X4268D01*
X4796Y1884D01*
X5305Y2049D01*
X5782Y2292D01*
X6215Y2607D01*
X6593Y2985D01*
X6908Y3418D01*
X7151Y3895D01*
X7316Y4404D01*
X7400Y4932D01*
Y5468D01*
X7316Y5996D01*
X7151Y6505D01*
X6908Y6982D01*
X6593Y7415D01*
X6215Y7793D01*
X5782Y8108D01*
X5305Y8351D01*
X4796Y8516D01*
X4268Y8600D01*
D02*
G37*
G36*
X88768Y8600D02*
X88232D01*
X87704Y8516D01*
X87195Y8351D01*
X86718Y8108D01*
X86285Y7793D01*
X85907Y7415D01*
X85592Y6982D01*
X85349Y6505D01*
X85184Y5996D01*
X85100Y5468D01*
Y4932D01*
X85184Y4404D01*
X85349Y3895D01*
X85592Y3418D01*
X85907Y2985D01*
X86285Y2607D01*
X86718Y2292D01*
X87195Y2049D01*
X87704Y1884D01*
X88232Y1800D01*
X88768D01*
X89296Y1884D01*
X89805Y2049D01*
X90282Y2292D01*
X90715Y2607D01*
X91093Y2985D01*
X91408Y3418D01*
X91651Y3895D01*
X91816Y4404D01*
X91900Y4932D01*
Y5468D01*
X91816Y5996D01*
X91651Y6505D01*
X91408Y6982D01*
X91093Y7415D01*
X90715Y7793D01*
X90282Y8108D01*
X89805Y8351D01*
X89296Y8516D01*
X88768Y8600D01*
D02*
G37*
%LPD*%
G36*
X14156Y45950D02*
X14154Y45974D01*
X14146Y45995D01*
X14133Y46014D01*
X14116Y46030D01*
X14093Y46044D01*
X14065Y46055D01*
X14032Y46064D01*
X13994Y46070D01*
X13951Y46074D01*
X13903Y46075D01*
Y46325D01*
X13951Y46326D01*
X13994Y46330D01*
X14032Y46336D01*
X14065Y46345D01*
X14093Y46356D01*
X14116Y46370D01*
X14133Y46386D01*
X14146Y46405D01*
X14154Y46426D01*
X14156Y46450D01*
Y45950D01*
D02*
G37*
G36*
X9746Y46426D02*
X9754Y46405D01*
X9767Y46386D01*
X9784Y46370D01*
X9807Y46356D01*
X9835Y46345D01*
X9868Y46336D01*
X9906Y46330D01*
X9949Y46326D01*
X9997Y46325D01*
Y46075D01*
X9949Y46074D01*
X9906Y46070D01*
X9868Y46064D01*
X9835Y46055D01*
X9807Y46044D01*
X9784Y46030D01*
X9767Y46014D01*
X9754Y45995D01*
X9746Y45974D01*
X9744Y45950D01*
Y46450D01*
X9746Y46426D01*
D02*
G37*
G36*
X15533Y45837D02*
X15526Y45814D01*
Y45788D01*
X15533Y45758D01*
X15547Y45724D01*
X15568Y45687D01*
X15596Y45646D01*
X15632Y45602D01*
X15724Y45503D01*
X15547Y45326D01*
X15496Y45376D01*
X15404Y45454D01*
X15363Y45482D01*
X15326Y45503D01*
X15292Y45517D01*
X15262Y45524D01*
X15236D01*
X15213Y45517D01*
X15193Y45503D01*
X15547Y45857D01*
X15533Y45837D01*
D02*
G37*
G36*
X50089Y44080D02*
X50000Y44163D01*
X49905Y44237D01*
X49804Y44302D01*
X49695Y44358D01*
X49581Y44406D01*
X49460Y44445D01*
X49332Y44476D01*
X49198Y44498D01*
X49057Y44511D01*
X48910Y44515D01*
Y44765D01*
X49057Y44769D01*
X49198Y44782D01*
X49332Y44804D01*
X49460Y44835D01*
X49581Y44874D01*
X49695Y44922D01*
X49804Y44978D01*
X49905Y45043D01*
X50000Y45117D01*
X50089Y45200D01*
Y44080D01*
D02*
G37*
G36*
X14702Y39469D02*
X14717Y39444D01*
X14742Y39422D01*
X14777Y39403D01*
X14822Y39387D01*
X14877Y39374D01*
X14942Y39363D01*
X15017Y39356D01*
X15197Y39350D01*
Y38850D01*
X15102Y38849D01*
X14942Y38837D01*
X14877Y38826D01*
X14822Y38813D01*
X14777Y38797D01*
X14742Y38778D01*
X14717Y38756D01*
X14702Y38731D01*
X14697Y38703D01*
Y39497D01*
X14702Y39469D01*
D02*
G37*
G36*
X53701Y38923D02*
X53648Y38846D01*
X53602Y38758D01*
X53562Y38659D01*
X53528Y38550D01*
X53500Y38429D01*
X53478Y38298D01*
X53462Y38156D01*
X53450Y37840D01*
X52950D01*
X52947Y38004D01*
X52922Y38298D01*
X52900Y38429D01*
X52873Y38550D01*
X52838Y38659D01*
X52798Y38758D01*
X52752Y38846D01*
X52699Y38923D01*
X52640Y38989D01*
X53760D01*
X53701Y38923D01*
D02*
G37*
G36*
X15705Y34980D02*
X15777Y34931D01*
X15859Y34889D01*
X15952Y34852D01*
X16056Y34821D01*
X16170Y34795D01*
X16295Y34776D01*
X16431Y34761D01*
X16734Y34750D01*
Y34250D01*
X16577Y34247D01*
X16295Y34224D01*
X16170Y34205D01*
X16056Y34179D01*
X15952Y34148D01*
X15859Y34111D01*
X15777Y34069D01*
X15705Y34020D01*
X15644Y33967D01*
Y35033D01*
X15705Y34980D01*
D02*
G37*
G36*
X14941Y33755D02*
X14917Y33754D01*
X14886Y33744D01*
X14848Y33724D01*
X14802Y33694D01*
X14750Y33655D01*
X14622Y33547D01*
X14377Y33312D01*
X14023Y33666D01*
X14103Y33747D01*
X14331Y34010D01*
X14364Y34059D01*
X14388Y34102D01*
X14402Y34138D01*
X14408Y34168D01*
X14403Y34191D01*
X14941Y33755D01*
D02*
G37*
G36*
X40583Y33441D02*
X40609Y33431D01*
X40640Y33422D01*
X40676Y33414D01*
X40716Y33407D01*
X40812Y33397D01*
X40926Y33393D01*
X40991Y33392D01*
X41054Y33142D01*
X40990Y33141D01*
X40876Y33133D01*
X40828Y33126D01*
X40786Y33117D01*
X40749Y33106D01*
X40717Y33094D01*
X40691Y33079D01*
X40671Y33062D01*
X40656Y33043D01*
X40562Y33453D01*
X40583Y33441D01*
D02*
G37*
G36*
X40186Y32990D02*
X40167Y33006D01*
X40142Y33021D01*
X40113Y33033D01*
X40079Y33044D01*
X40039Y33054D01*
X39995Y33061D01*
X39891Y33072D01*
X39832Y33074D01*
X39767Y33075D01*
Y33325D01*
X39832Y33326D01*
X39995Y33339D01*
X40039Y33346D01*
X40079Y33356D01*
X40113Y33367D01*
X40142Y33379D01*
X40167Y33394D01*
X40186Y33410D01*
Y32990D01*
D02*
G37*
G36*
X17056Y29935D02*
X17094Y29901D01*
X17138Y29872D01*
X17188Y29846D01*
X17242Y29824D01*
X17303Y29807D01*
X17369Y29793D01*
X17440Y29783D01*
X17517Y29777D01*
X17599Y29775D01*
Y29275D01*
X17517Y29273D01*
X17440Y29267D01*
X17369Y29257D01*
X17303Y29243D01*
X17242Y29226D01*
X17188Y29204D01*
X17138Y29178D01*
X17094Y29149D01*
X17056Y29115D01*
X17023Y29077D01*
Y29973D01*
X17056Y29935D01*
D02*
G37*
G36*
X34720Y29861D02*
X34675Y29801D01*
X34647Y29748D01*
X34636Y29702D01*
X34642Y29663D01*
X34665Y29632D01*
X34705Y29607D01*
X34763Y29589D01*
X34837Y29579D01*
X34929Y29575D01*
X33825Y29075D01*
X33221Y29575D01*
X33320Y29579D01*
X33416Y29589D01*
X33508Y29607D01*
X33598Y29632D01*
X33685Y29663D01*
X33769Y29702D01*
X33850Y29748D01*
X33928Y29801D01*
X34003Y29861D01*
X34075Y29929D01*
X34782D01*
X34720Y29861D01*
D02*
G37*
G36*
X14455Y30155D02*
X14470Y30070D01*
X14495Y29995D01*
X14530Y29930D01*
X14575Y29875D01*
X14630Y29830D01*
X14695Y29795D01*
X14770Y29770D01*
X14855Y29755D01*
X14890Y29753D01*
X14954Y29759D01*
X15023Y29770D01*
X15088Y29786D01*
X15148Y29806D01*
X15203Y29830D01*
X15254Y29859D01*
X15300Y29892D01*
X15341Y29930D01*
X15377Y29973D01*
X15432Y29036D01*
X15375Y29077D01*
X15317Y29113D01*
X15258Y29145D01*
X15197Y29173D01*
X15135Y29196D01*
X15071Y29216D01*
X15006Y29231D01*
X14940Y29241D01*
X14885Y29247D01*
X14855Y29245D01*
X14770Y29230D01*
X14695Y29205D01*
X14630Y29170D01*
X14575Y29125D01*
X14530Y29070D01*
X14495Y29005D01*
X14470Y28930D01*
X14455Y28845D01*
X14450Y28750D01*
X13950Y29500D01*
X14450Y30250D01*
X14455Y30155D01*
D02*
G37*
G36*
X43529Y29075D02*
X43437Y29071D01*
X43363Y29061D01*
X43305Y29043D01*
X43265Y29018D01*
X43242Y28987D01*
X43236Y28948D01*
X43247Y28902D01*
X43275Y28849D01*
X43320Y28789D01*
X43382Y28721D01*
X42675D01*
X42603Y28789D01*
X42528Y28849D01*
X42450Y28902D01*
X42369Y28948D01*
X42285Y28987D01*
X42198Y29018D01*
X42108Y29043D01*
X42016Y29061D01*
X41920Y29071D01*
X41821Y29075D01*
X42425Y29575D01*
X43529Y29075D01*
D02*
G37*
G36*
X82250Y27750D02*
X78000D01*
Y31500D01*
X82250D01*
Y27750D01*
D02*
G37*
G36*
X50354Y26000D02*
X50262Y25996D01*
X50188Y25986D01*
X50130Y25968D01*
X50090Y25943D01*
X50067Y25912D01*
X50061Y25873D01*
X50072Y25827D01*
X50100Y25774D01*
X50145Y25714D01*
X50207Y25646D01*
X49500D01*
X49428Y25714D01*
X49353Y25774D01*
X49275Y25827D01*
X49194Y25873D01*
X49110Y25912D01*
X49023Y25943D01*
X48933Y25968D01*
X48841Y25986D01*
X48745Y25996D01*
X48646Y26000D01*
X49250Y26500D01*
X50354Y26000D01*
D02*
G37*
G36*
X14272Y22600D02*
X14247Y22598D01*
X14220Y22591D01*
X14190Y22579D01*
X14158Y22563D01*
X14123Y22542D01*
X14087Y22516D01*
X14006Y22449D01*
X13962Y22409D01*
X13916Y22364D01*
X13739Y22541D01*
X13784Y22587D01*
X13891Y22712D01*
X13917Y22748D01*
X13938Y22783D01*
X13954Y22815D01*
X13966Y22845D01*
X13973Y22872D01*
X13975Y22897D01*
X14272Y22600D01*
D02*
G37*
G36*
X9902Y22869D02*
X9917Y22844D01*
X9942Y22822D01*
X9977Y22803D01*
X10022Y22787D01*
X10077Y22774D01*
X10142Y22763D01*
X10217Y22756D01*
X10397Y22750D01*
Y22250D01*
X10302Y22249D01*
X10142Y22237D01*
X10077Y22226D01*
X10022Y22213D01*
X9977Y22197D01*
X9942Y22178D01*
X9917Y22156D01*
X9902Y22131D01*
X9897Y22103D01*
Y22897D01*
X9902Y22869D01*
D02*
G37*
G36*
X14272Y20975D02*
X14247Y20973D01*
X14220Y20966D01*
X14190Y20954D01*
X14158Y20938D01*
X14123Y20917D01*
X14087Y20891D01*
X14006Y20824D01*
X13962Y20784D01*
X13916Y20739D01*
X13739Y20916D01*
X13784Y20962D01*
X13891Y21087D01*
X13917Y21124D01*
X13938Y21158D01*
X13954Y21190D01*
X13966Y21220D01*
X13973Y21247D01*
X13975Y21272D01*
X14272Y20975D01*
D02*
G37*
G36*
X87991Y21010D02*
X87841Y21005D01*
X87694Y20988D01*
X87549Y20958D01*
X87408Y20916D01*
X87269Y20861D01*
X87133Y20794D01*
X87000Y20714D01*
X86869Y20622D01*
X86741Y20517D01*
X86616Y20400D01*
X86440Y20576D01*
X86557Y20701D01*
X86662Y20829D01*
X86754Y20960D01*
X86834Y21093D01*
X86901Y21229D01*
X86956Y21368D01*
X86998Y21509D01*
X87028Y21654D01*
X87045Y21801D01*
X87050Y21951D01*
X87991Y21010D01*
D02*
G37*
G36*
X14272Y19190D02*
X14247Y19188D01*
X14220Y19181D01*
X14190Y19169D01*
X14158Y19153D01*
X14123Y19132D01*
X14087Y19106D01*
X14006Y19039D01*
X13962Y18999D01*
X13916Y18954D01*
X13739Y19131D01*
X13784Y19177D01*
X13891Y19302D01*
X13917Y19338D01*
X13938Y19373D01*
X13954Y19405D01*
X13966Y19435D01*
X13973Y19462D01*
X13975Y19487D01*
X14272Y19190D01*
D02*
G37*
G36*
X16454Y18564D02*
X16435Y18578D01*
X16413Y18585D01*
X16387Y18585D01*
X16358Y18579D01*
X16326Y18566D01*
X16290Y18546D01*
X16252Y18519D01*
X16209Y18486D01*
X16164Y18445D01*
X16115Y18398D01*
X15938Y18575D01*
X15985Y18624D01*
X16059Y18712D01*
X16086Y18750D01*
X16106Y18786D01*
X16119Y18818D01*
X16125Y18847D01*
X16125Y18873D01*
X16118Y18895D01*
X16104Y18914D01*
X16454Y18564D01*
D02*
G37*
G36*
X41983Y18944D02*
X42008Y18929D01*
X42037Y18917D01*
X42071Y18906D01*
X42111Y18896D01*
X42155Y18889D01*
X42259Y18878D01*
X42318Y18876D01*
X42383Y18875D01*
Y18625D01*
X42318Y18624D01*
X42155Y18611D01*
X42111Y18604D01*
X42071Y18594D01*
X42037Y18583D01*
X42008Y18571D01*
X41983Y18556D01*
X41964Y18540D01*
Y18960D01*
X41983Y18944D01*
D02*
G37*
G36*
X14508Y17969D02*
X14533Y17954D01*
X14562Y17942D01*
X14596Y17931D01*
X14636Y17921D01*
X14680Y17914D01*
X14784Y17903D01*
X14843Y17901D01*
X14908Y17900D01*
Y17650D01*
X14843Y17649D01*
X14680Y17636D01*
X14636Y17629D01*
X14596Y17619D01*
X14562Y17608D01*
X14533Y17596D01*
X14508Y17581D01*
X14489Y17565D01*
Y17985D01*
X14508Y17969D01*
D02*
G37*
G36*
X24000Y30500D02*
Y30250D01*
X21750Y28000D01*
Y20250D01*
X23500Y18500D01*
Y16750D01*
X23250Y16500D01*
X19750D01*
X18250Y18000D01*
Y31000D01*
X18750Y31500D01*
X23000D01*
X24000Y30500D01*
D02*
G37*
G36*
X16104Y16320D02*
X16101Y16344D01*
X16094Y16365D01*
X16081Y16384D01*
X16063Y16400D01*
X16041Y16414D01*
X16013Y16425D01*
X15980Y16434D01*
X15942Y16440D01*
X15899Y16444D01*
X15851Y16445D01*
Y16695D01*
X15899Y16696D01*
X15942Y16700D01*
X15980Y16706D01*
X16013Y16715D01*
X16041Y16726D01*
X16063Y16740D01*
X16081Y16756D01*
X16094Y16775D01*
X16101Y16796D01*
X16104Y16820D01*
Y16320D01*
D02*
G37*
G36*
Y13780D02*
X16101Y13804D01*
X16094Y13825D01*
X16081Y13844D01*
X16063Y13860D01*
X16041Y13874D01*
X16013Y13885D01*
X15980Y13894D01*
X15942Y13900D01*
X15899Y13904D01*
X15851Y13905D01*
Y14155D01*
X15899Y14156D01*
X15942Y14160D01*
X15980Y14166D01*
X16013Y14175D01*
X16041Y14186D01*
X16063Y14200D01*
X16081Y14216D01*
X16094Y14235D01*
X16101Y14256D01*
X16104Y14280D01*
Y13780D01*
D02*
G37*
G36*
X12783Y12794D02*
X12808Y12779D01*
X12837Y12767D01*
X12871Y12756D01*
X12911Y12746D01*
X12955Y12739D01*
X13059Y12728D01*
X13118Y12726D01*
X13183Y12725D01*
Y12475D01*
X13118Y12474D01*
X12955Y12461D01*
X12911Y12454D01*
X12871Y12444D01*
X12837Y12433D01*
X12808Y12421D01*
X12783Y12406D01*
X12764Y12390D01*
Y12810D01*
X12783Y12794D01*
D02*
G37*
G36*
X16104Y11240D02*
X16101Y11264D01*
X16094Y11285D01*
X16081Y11304D01*
X16063Y11320D01*
X16041Y11334D01*
X16013Y11345D01*
X15980Y11354D01*
X15942Y11360D01*
X15899Y11364D01*
X15851Y11365D01*
Y11615D01*
X15899Y11616D01*
X15942Y11620D01*
X15980Y11626D01*
X16013Y11635D01*
X16041Y11646D01*
X16063Y11660D01*
X16081Y11676D01*
X16094Y11695D01*
X16101Y11716D01*
X16104Y11740D01*
Y11240D01*
D02*
G37*
G36*
X11753Y38703D02*
X11748Y38731D01*
X11733Y38756D01*
X11708Y38778D01*
X11673Y38797D01*
X11628Y38813D01*
X11573Y38826D01*
X11508Y38837D01*
X11433Y38844D01*
X11253Y38850D01*
Y39350D01*
X11348Y39351D01*
X11508Y39363D01*
X11573Y39374D01*
X11628Y39387D01*
X11673Y39403D01*
X11708Y39422D01*
X11733Y39444D01*
X11748Y39469D01*
X11753Y39497D01*
Y38703D01*
D02*
G37*
G36*
X10877Y36555D02*
X10885Y36469D01*
X10898Y36394D01*
X10915Y36329D01*
X10938Y36273D01*
X10965Y36228D01*
X10998Y36193D01*
X11035Y36168D01*
X11078Y36153D01*
X11125Y36148D01*
X10125D01*
X10172Y36153D01*
X10215Y36168D01*
X10252Y36193D01*
X10285Y36228D01*
X10312Y36273D01*
X10335Y36329D01*
X10352Y36394D01*
X10365Y36469D01*
X10373Y36555D01*
X10375Y36651D01*
X10875D01*
X10877Y36555D01*
D02*
G37*
G36*
X31126Y37368D02*
X31139Y37205D01*
X31146Y37161D01*
X31156Y37121D01*
X31167Y37087D01*
X31179Y37058D01*
X31194Y37033D01*
X31210Y37014D01*
X30790D01*
X30806Y37033D01*
X30821Y37058D01*
X30833Y37087D01*
X30844Y37121D01*
X30854Y37161D01*
X30861Y37205D01*
X30872Y37309D01*
X30874Y37368D01*
X30875Y37433D01*
X31125D01*
X31126Y37368D01*
D02*
G37*
G36*
X6953Y22103D02*
X6948Y22131D01*
X6933Y22156D01*
X6908Y22178D01*
X6873Y22197D01*
X6828Y22213D01*
X6773Y22226D01*
X6708Y22237D01*
X6633Y22244D01*
X6453Y22250D01*
Y22750D01*
X6548Y22751D01*
X6708Y22763D01*
X6773Y22774D01*
X6828Y22787D01*
X6873Y22803D01*
X6908Y22822D01*
X6933Y22844D01*
X6948Y22869D01*
X6953Y22897D01*
Y22103D01*
D02*
G37*
G36*
X5150Y19697D02*
X5051Y19594D01*
X4895Y19410D01*
X4838Y19329D01*
X4795Y19254D01*
X4767Y19187D01*
X4752Y19127D01*
X4752Y19074D01*
X4766Y19028D01*
X4794Y18990D01*
X4090Y19694D01*
X4128Y19666D01*
X4174Y19652D01*
X4227Y19652D01*
X4287Y19667D01*
X4354Y19695D01*
X4429Y19738D01*
X4510Y19795D01*
X4598Y19866D01*
X4797Y20051D01*
X5150Y19697D01*
D02*
G37*
G36*
X25194Y27767D02*
X25179Y27742D01*
X25167Y27713D01*
X25156Y27679D01*
X25146Y27639D01*
X25139Y27595D01*
X25128Y27491D01*
X25126Y27432D01*
X25125Y27367D01*
X24875D01*
X24874Y27432D01*
X24861Y27595D01*
X24854Y27639D01*
X24844Y27679D01*
X24833Y27713D01*
X24821Y27742D01*
X24806Y27767D01*
X24790Y27786D01*
X25210D01*
X25194Y27767D01*
D02*
G37*
G36*
X35087Y16891D02*
X35212Y16784D01*
X35248Y16758D01*
X35283Y16737D01*
X35315Y16721D01*
X35345Y16709D01*
X35372Y16702D01*
X35397Y16700D01*
X35100Y16403D01*
X35098Y16428D01*
X35091Y16455D01*
X35079Y16485D01*
X35063Y16517D01*
X35042Y16552D01*
X35016Y16588D01*
X34949Y16669D01*
X34909Y16713D01*
X34864Y16759D01*
X35041Y16936D01*
X35087Y16891D01*
D02*
G37*
G36*
X34302Y15222D02*
X34309Y15195D01*
X34321Y15165D01*
X34337Y15133D01*
X34358Y15098D01*
X34384Y15062D01*
X34451Y14981D01*
X34491Y14937D01*
X34536Y14891D01*
X34359Y14714D01*
X34313Y14759D01*
X34188Y14866D01*
X34152Y14892D01*
X34117Y14913D01*
X34085Y14929D01*
X34055Y14941D01*
X34028Y14948D01*
X34003Y14950D01*
X34300Y15247D01*
X34302Y15222D01*
D02*
G37*
G36*
X33052D02*
X33059Y15195D01*
X33071Y15165D01*
X33087Y15133D01*
X33108Y15098D01*
X33134Y15062D01*
X33201Y14981D01*
X33241Y14937D01*
X33286Y14891D01*
X33109Y14714D01*
X33063Y14759D01*
X32938Y14866D01*
X32902Y14892D01*
X32867Y14913D01*
X32835Y14929D01*
X32805Y14941D01*
X32778Y14948D01*
X32753Y14950D01*
X33050Y15247D01*
X33052Y15222D01*
D02*
G37*
G36*
X64437Y7741D02*
X64562Y7634D01*
X64598Y7608D01*
X64633Y7587D01*
X64665Y7571D01*
X64695Y7559D01*
X64722Y7552D01*
X64747Y7550D01*
X64450Y7253D01*
X64448Y7278D01*
X64441Y7305D01*
X64429Y7335D01*
X64413Y7367D01*
X64392Y7402D01*
X64366Y7438D01*
X64299Y7519D01*
X64259Y7563D01*
X64214Y7609D01*
X64391Y7786D01*
X64437Y7741D01*
D02*
G37*
G36*
X78087Y7491D02*
X78212Y7384D01*
X78248Y7358D01*
X78283Y7337D01*
X78315Y7321D01*
X78345Y7309D01*
X78372Y7302D01*
X78397Y7300D01*
X78100Y7003D01*
X78098Y7028D01*
X78091Y7055D01*
X78079Y7085D01*
X78063Y7117D01*
X78042Y7152D01*
X78016Y7188D01*
X77949Y7269D01*
X77909Y7313D01*
X77864Y7359D01*
X78041Y7536D01*
X78087Y7491D01*
D02*
G37*
G36*
X8176Y18561D02*
X8155Y18554D01*
X8136Y18541D01*
X8120Y18523D01*
X8106Y18500D01*
X8095Y18473D01*
X8086Y18440D01*
X8080Y18402D01*
X8076Y18359D01*
X8075Y18311D01*
X7825D01*
X7824Y18359D01*
X7820Y18402D01*
X7814Y18440D01*
X7805Y18473D01*
X7794Y18500D01*
X7780Y18523D01*
X7764Y18541D01*
X7745Y18554D01*
X7724Y18561D01*
X7700Y18564D01*
X8200D01*
X8176Y18561D01*
D02*
G37*
G36*
X8076Y17321D02*
X8080Y17278D01*
X8086Y17240D01*
X8095Y17207D01*
X8106Y17180D01*
X8120Y17157D01*
X8136Y17139D01*
X8155Y17126D01*
X8176Y17119D01*
X8200Y17116D01*
X7700D01*
X7724Y17119D01*
X7745Y17126D01*
X7764Y17139D01*
X7780Y17157D01*
X7794Y17180D01*
X7805Y17207D01*
X7814Y17240D01*
X7820Y17278D01*
X7824Y17321D01*
X7825Y17369D01*
X8075D01*
X8076Y17321D01*
D02*
G37*
G36*
X8176Y16021D02*
X8155Y16014D01*
X8136Y16001D01*
X8120Y15983D01*
X8106Y15960D01*
X8095Y15933D01*
X8086Y15900D01*
X8080Y15862D01*
X8076Y15819D01*
X8075Y15771D01*
X7825D01*
X7824Y15819D01*
X7820Y15862D01*
X7814Y15900D01*
X7805Y15933D01*
X7794Y15960D01*
X7780Y15983D01*
X7764Y16001D01*
X7745Y16014D01*
X7724Y16021D01*
X7700Y16024D01*
X8200D01*
X8176Y16021D01*
D02*
G37*
G36*
X8076Y14781D02*
X8080Y14738D01*
X8086Y14700D01*
X8095Y14667D01*
X8106Y14640D01*
X8120Y14617D01*
X8136Y14599D01*
X8155Y14586D01*
X8176Y14579D01*
X8200Y14576D01*
X7700D01*
X7724Y14579D01*
X7745Y14586D01*
X7764Y14599D01*
X7780Y14617D01*
X7794Y14640D01*
X7805Y14667D01*
X7814Y14700D01*
X7820Y14738D01*
X7824Y14781D01*
X7825Y14829D01*
X8075D01*
X8076Y14781D01*
D02*
G37*
G36*
X8176Y13481D02*
X8155Y13474D01*
X8136Y13461D01*
X8120Y13443D01*
X8106Y13420D01*
X8095Y13393D01*
X8086Y13360D01*
X8080Y13322D01*
X8076Y13279D01*
X8075Y13231D01*
X7825D01*
X7824Y13279D01*
X7820Y13322D01*
X7814Y13360D01*
X7805Y13393D01*
X7794Y13420D01*
X7780Y13443D01*
X7764Y13461D01*
X7745Y13474D01*
X7724Y13481D01*
X7700Y13484D01*
X8200D01*
X8176Y13481D01*
D02*
G37*
G36*
X8076Y12241D02*
X8080Y12198D01*
X8086Y12160D01*
X8095Y12127D01*
X8106Y12100D01*
X8120Y12077D01*
X8136Y12059D01*
X8155Y12046D01*
X8176Y12039D01*
X8200Y12036D01*
X8076D01*
X8092Y11830D01*
X8099Y11789D01*
X8108Y11754D01*
X8118Y11723D01*
X8130Y11697D01*
X8143Y11676D01*
X7729Y11746D01*
X7747Y11762D01*
X7763Y11784D01*
X7778Y11811D01*
X7790Y11843D01*
X7801Y11881D01*
X7810Y11924D01*
X7816Y11972D01*
X7821Y12036D01*
X7700D01*
X7724Y12039D01*
X7745Y12046D01*
X7764Y12059D01*
X7780Y12077D01*
X7794Y12100D01*
X7805Y12127D01*
X7814Y12160D01*
X7820Y12198D01*
X7824Y12241D01*
X7825Y12289D01*
X8075D01*
X8076Y12241D01*
D02*
G37*
G36*
X30944Y14017D02*
X30929Y13992D01*
X30917Y13963D01*
X30906Y13929D01*
X30896Y13889D01*
X30889Y13845D01*
X30878Y13741D01*
X30876Y13682D01*
X30875Y13617D01*
X30625D01*
X30624Y13682D01*
X30611Y13845D01*
X30604Y13889D01*
X30594Y13929D01*
X30583Y13963D01*
X30571Y13992D01*
X30556Y14017D01*
X30540Y14036D01*
X30960D01*
X30944Y14017D01*
D02*
G37*
G36*
X26444D02*
X26429Y13992D01*
X26417Y13963D01*
X26406Y13929D01*
X26396Y13889D01*
X26389Y13845D01*
X26378Y13741D01*
X26376Y13682D01*
X26375Y13617D01*
X26125D01*
X26124Y13682D01*
X26111Y13845D01*
X26104Y13889D01*
X26094Y13929D01*
X26083Y13963D01*
X26071Y13992D01*
X26056Y14017D01*
X26040Y14036D01*
X26460D01*
X26444Y14017D01*
D02*
G37*
G36*
X15355Y5199D02*
X15359Y5156D01*
X15365Y5118D01*
X15374Y5085D01*
X15385Y5057D01*
X15399Y5034D01*
X15415Y5017D01*
X15434Y5004D01*
X15455Y4996D01*
X15479Y4994D01*
X14979D01*
X15002Y4996D01*
X15024Y5004D01*
X15042Y5017D01*
X15059Y5034D01*
X15072Y5057D01*
X15084Y5085D01*
X15092Y5118D01*
X15099Y5156D01*
X15102Y5199D01*
X15104Y5247D01*
X15354D01*
X15355Y5199D01*
D02*
G37*
G36*
X13105Y5184D02*
X13108Y5144D01*
X13113Y5109D01*
X13121Y5078D01*
X13130Y5053D01*
X13142Y5031D01*
X13156Y5015D01*
X13172Y5003D01*
X13190Y4996D01*
X13210Y4994D01*
X12747D01*
X12767Y4996D01*
X12785Y5003D01*
X12801Y5015D01*
X12815Y5031D01*
X12827Y5053D01*
X12837Y5078D01*
X12844Y5109D01*
X12849Y5144D01*
X12852Y5184D01*
X12854Y5229D01*
X13104D01*
X13105Y5184D01*
D02*
G37*
G36*
X11194Y8967D02*
X11179Y8942D01*
X11167Y8913D01*
X11156Y8879D01*
X11146Y8839D01*
X11139Y8795D01*
X11128Y8691D01*
X11126Y8632D01*
X11125Y8567D01*
X10875D01*
X10874Y8632D01*
X10861Y8795D01*
X10854Y8839D01*
X10844Y8879D01*
X10833Y8913D01*
X10821Y8942D01*
X10806Y8967D01*
X10790Y8986D01*
X11210D01*
X11194Y8967D01*
D02*
G37*
G36*
X9726Y5199D02*
X9730Y5156D01*
X9736Y5118D01*
X9745Y5085D01*
X9756Y5057D01*
X9770Y5034D01*
X9786Y5017D01*
X9805Y5004D01*
X9826Y4996D01*
X9850Y4994D01*
X9350D01*
X9374Y4996D01*
X9395Y5004D01*
X9414Y5017D01*
X9430Y5034D01*
X9444Y5057D01*
X9455Y5085D01*
X9464Y5118D01*
X9470Y5156D01*
X9474Y5199D01*
X9475Y5247D01*
X9725D01*
X9726Y5199D01*
D02*
G37*
D10*
X25000Y26800D02*
Y28000D01*
Y26800D02*
X35400Y16400D01*
X85540Y19500D02*
X88000Y21960D01*
X54750Y14250D02*
X60000Y19500D01*
X85540D01*
X48000Y14250D02*
X54750D01*
X43500Y18750D02*
X48000Y14250D01*
X41750Y18750D02*
X43500D01*
X14850Y46200D02*
X16750Y44300D01*
Y41750D02*
X25300Y33200D01*
X16750Y41750D02*
Y44300D01*
X25300Y33200D02*
X40400D01*
X62750Y9250D02*
X64750Y7250D01*
X38750Y9250D02*
X62750D01*
X75150Y10250D02*
X78400Y7000D01*
X39000Y10250D02*
X75150D01*
X32750Y15250D02*
X38750Y9250D01*
X34000Y15250D02*
X39000Y10250D01*
X12550Y12600D02*
X18100D01*
X20000Y14500D02*
Y17500D01*
X18100Y12600D02*
X20000Y14500D01*
X11200Y12550D02*
Y19825D01*
Y12550D02*
X12260Y11490D01*
X16850D01*
X17500Y8750D02*
X29000D01*
X15229Y4829D02*
Y6479D01*
X17500Y8750D01*
X12900Y4650D02*
X12979Y4729D01*
Y5229D02*
X17075Y9325D01*
X23575D01*
X12979Y4729D02*
Y5229D01*
X15100Y4700D02*
X15229Y4829D01*
X23575Y9325D02*
X26250Y12000D01*
Y14250D01*
X30750Y10500D02*
Y14250D01*
X29000Y8750D02*
X30750Y10500D01*
X40467Y33267D02*
X41067D01*
X40400Y33200D02*
X40467Y33267D01*
X41067D02*
X43700Y35900D01*
Y42200D01*
X46140Y44640D02*
X50660D01*
X43700Y42200D02*
X46140Y44640D01*
X9500Y3150D02*
X15100D01*
X8100Y3150D02*
X8100Y3150D01*
X9500D01*
X15100D02*
X15100Y3150D01*
X9600Y4750D02*
Y7000D01*
X9500Y4650D02*
X9600Y4750D01*
Y7000D02*
X11000Y8400D01*
Y9200D01*
X31000Y36800D02*
Y38105D01*
X30700Y38405D02*
X31000Y38105D01*
X30700Y38405D02*
Y38500D01*
X7950Y16570D02*
Y19110D01*
Y14030D02*
Y16570D01*
Y11550D02*
Y14030D01*
X7900Y11500D02*
X7950Y11550D01*
X12900Y17300D02*
X13630Y16570D01*
X12900Y17300D02*
Y18115D01*
X13630Y16570D02*
X16850D01*
X12100Y14800D02*
X12870Y14030D01*
X16850D01*
X12100Y14800D02*
Y19100D01*
X11200Y19825D02*
X14275Y22900D01*
X12100Y19100D02*
X14275Y21275D01*
X12900Y18115D02*
X14275Y19490D01*
X15315Y17775D02*
X16650Y19110D01*
X16850D01*
X14275Y17775D02*
X15315D01*
X9050Y46200D02*
X14850D01*
Y40800D02*
Y42300D01*
X9050Y40800D02*
Y42300D01*
D30*
X15100Y3150D02*
D03*
Y4650D02*
D03*
X12900Y3150D02*
D03*
Y4650D02*
D03*
X9500Y3150D02*
D03*
Y4650D02*
D03*
D31*
X9600Y22500D02*
D03*
X7250D02*
D03*
X14400Y39100D02*
D03*
X12050D02*
D03*
D32*
X7950Y19110D02*
D03*
Y16570D02*
D03*
Y14030D02*
D03*
Y11490D02*
D03*
X16850Y19110D02*
D03*
Y16570D02*
D03*
Y14030D02*
D03*
Y11490D02*
D03*
D33*
X16200Y29525D02*
D03*
Y26475D02*
D03*
D34*
X14850Y46200D02*
D03*
X9050D02*
D03*
X14850Y42300D02*
D03*
X9050D02*
D03*
D35*
X27675Y29325D02*
X33825D01*
X22546Y30019D02*
X26981D01*
X27675Y29325D01*
X11100Y39100D02*
X12050D01*
X10625Y35300D02*
Y38625D01*
X11100Y39100D01*
X15100Y34500D02*
X17000D01*
X17750Y35250D01*
Y37500D01*
X16150Y39100D02*
X17750Y37500D01*
X14400Y39100D02*
X16150D01*
X53200Y34200D02*
Y39560D01*
X48325Y29325D02*
X53200Y34200D01*
X44500Y29325D02*
X48325D01*
X33825D02*
X35281Y30781D01*
Y32081D01*
X33825Y29325D02*
X42425D01*
X35281Y32081D02*
X35300Y32100D01*
X50200Y15600D02*
Y23400D01*
X49250Y26250D02*
X65500D01*
X45500D02*
X49250D01*
X50200Y25300D01*
Y23400D02*
Y25300D01*
X14200Y29500D02*
X16200D01*
X77750Y29750D02*
X79000Y31000D01*
X65500Y26250D02*
X69000Y29750D01*
X77750D01*
X42425Y29325D02*
X44500D01*
X42425D02*
X45500Y26250D01*
X16200Y29525D02*
X18375D01*
X14200Y29500D02*
Y33489D01*
Y25900D02*
Y29500D01*
Y33489D02*
X15100Y34389D01*
X10800Y22500D02*
X14200Y25900D01*
X15100Y34389D02*
Y34500D01*
X9600Y22500D02*
X10800D01*
X5200Y21700D02*
X6000Y22500D01*
X7250D01*
X5200Y20100D02*
Y21700D01*
X4000Y18900D02*
X5200Y20100D01*
D36*
X50660Y42100D02*
D03*
Y39560D02*
D03*
X53200Y42100D02*
D03*
Y39560D02*
D03*
X50660Y44640D02*
D03*
X4000Y16400D02*
D03*
Y13900D02*
D03*
Y11400D02*
D03*
D37*
X53200Y44640D02*
D03*
X4000Y18900D02*
D03*
D38*
X10625Y28300D02*
D03*
Y30800D02*
D03*
Y32800D02*
D03*
Y35300D02*
D03*
D39*
X3575Y38150D02*
D03*
Y25450D02*
D03*
D40*
X15100Y36500D02*
D03*
Y34500D02*
D03*
D41*
X20500Y5200D02*
D03*
Y44000D02*
D03*
X88500Y5200D02*
D03*
Y44000D02*
D03*
X4000Y5200D02*
D03*
X4000Y44000D02*
D03*
D42*
X88000Y27040D02*
D03*
X88000Y29580D02*
D03*
Y24500D02*
D03*
Y21960D02*
D03*
Y19420D02*
D03*
Y16880D02*
D03*
D43*
Y32120D02*
D03*
D44*
X62000Y17750D02*
D03*
X62000Y21300D02*
D03*
X29500Y36400D02*
D03*
X34000Y36400D02*
D03*
X23700Y13700D02*
D03*
X26700Y10200D02*
D03*
D45*
X33930Y45455D02*
D03*
Y41275D02*
D03*
X42570Y45455D02*
D03*
Y41275D02*
D03*
D46*
X26219Y28109D02*
D03*
X25000Y28000D02*
D03*
X9000Y9000D02*
D03*
X8000Y8000D02*
D03*
X13000Y27000D02*
D03*
X12000Y26000D02*
D03*
X48000Y24000D02*
D03*
Y18000D02*
D03*
X44000Y14000D02*
D03*
X46000D02*
D03*
X45000Y13000D02*
D03*
X44000Y12000D02*
D03*
X46000D02*
D03*
X47000Y13000D02*
D03*
X48000Y12000D02*
D03*
X22000Y10000D02*
D03*
X19000Y11000D02*
D03*
X14000Y9000D02*
D03*
X20000Y11000D02*
D03*
X13000Y8000D02*
D03*
X19000Y38000D02*
D03*
X18000Y39000D02*
D03*
X17000Y40000D02*
D03*
X31000Y46000D02*
D03*
X29000D02*
D03*
X27000D02*
D03*
X25000D02*
D03*
X11000Y41000D02*
D03*
Y43000D02*
D03*
X12000Y42000D02*
D03*
X13000Y41000D02*
D03*
Y43000D02*
D03*
X12000Y44000D02*
D03*
X11000Y45000D02*
D03*
X13000D02*
D03*
X69000D02*
D03*
X71000D02*
D03*
X70000Y44000D02*
D03*
X69000Y43000D02*
D03*
X71000D02*
D03*
X72000Y44000D02*
D03*
X73000Y45000D02*
D03*
Y43000D02*
D03*
X33000Y5000D02*
D03*
X35000D02*
D03*
X34000Y4000D02*
D03*
X33000Y3000D02*
D03*
X35000D02*
D03*
X36000Y4000D02*
D03*
X37000Y5000D02*
D03*
Y3000D02*
D03*
X27000Y5000D02*
D03*
X29000D02*
D03*
X28000Y4000D02*
D03*
X27000Y3000D02*
D03*
X29000D02*
D03*
X30000Y4000D02*
D03*
X31000Y5000D02*
D03*
Y3000D02*
D03*
X63000Y45000D02*
D03*
X65000D02*
D03*
X64000Y44000D02*
D03*
X63000Y43000D02*
D03*
X65000D02*
D03*
X66000Y44000D02*
D03*
X67000Y45000D02*
D03*
Y43000D02*
D03*
X57000Y45000D02*
D03*
X59000D02*
D03*
X58000Y44000D02*
D03*
X57000Y43000D02*
D03*
X59000D02*
D03*
X60000Y44000D02*
D03*
X61000Y45000D02*
D03*
Y43000D02*
D03*
X52000Y30000D02*
D03*
X54000D02*
D03*
X53000Y29000D02*
D03*
X52000Y28000D02*
D03*
X54000D02*
D03*
X55000Y29000D02*
D03*
X56000Y30000D02*
D03*
Y28000D02*
D03*
X74000Y6000D02*
D03*
Y8000D02*
D03*
X73000Y7000D02*
D03*
X72000Y6000D02*
D03*
X70000D02*
D03*
X71000Y7000D02*
D03*
X72000Y8000D02*
D03*
X70000D02*
D03*
X25800Y34200D02*
D03*
X41750Y18750D02*
D03*
X25850Y17650D02*
D03*
X81900Y8500D02*
D03*
X78400Y7000D02*
D03*
X64750Y7250D02*
D03*
X34000Y15250D02*
D03*
X32750D02*
D03*
X24500Y31250D02*
D03*
X12550Y12600D02*
D03*
X79000Y28500D02*
D03*
Y31000D02*
D03*
X81000Y28500D02*
D03*
Y31000D02*
D03*
X44500Y29325D02*
D03*
X26250Y14250D02*
D03*
X30750D02*
D03*
X22500Y17500D02*
D03*
X20000D02*
D03*
Y20000D02*
D03*
Y27500D02*
D03*
X22500Y30000D02*
D03*
X20000D02*
D03*
X35400Y16400D02*
D03*
X15600Y25100D02*
D03*
X14700D02*
D03*
X41450Y40700D02*
D03*
X35050D02*
D03*
X42400Y37000D02*
D03*
X27450Y39700D02*
D03*
X23500Y26700D02*
D03*
X28538Y35263D02*
D03*
X36700Y35025D02*
D03*
X40400Y33200D02*
D03*
X35300Y32100D02*
D03*
X8100Y3150D02*
D03*
X11000Y9200D02*
D03*
X24450Y20250D02*
D03*
X25925Y32500D02*
D03*
X39675Y14425D02*
D03*
X32769Y25650D02*
D03*
X34969Y23550D02*
D03*
Y25650D02*
D03*
X32769Y23550D02*
D03*
X33869Y24600D02*
D03*
X31000Y36800D02*
D03*
X30700Y38500D02*
D03*
X50200Y15600D02*
D03*
Y23400D02*
D03*
X7900Y11500D02*
D03*
X14275Y22900D02*
D03*
Y21275D02*
D03*
Y19490D02*
D03*
Y17775D02*
D03*
X25750Y21500D02*
D03*
X14850Y40800D02*
D03*
X9050D02*
D03*
X44500Y30675D02*
D03*
X39750Y16325D02*
D03*
X39525Y17700D02*
D03*
X32998Y31985D02*
D03*
X41506Y26730D02*
D03*
X45787Y27649D02*
D03*
X46989Y21780D02*
D03*
M02*
