M48
;Layer_Color=9474304
;FILE_FORMAT=4:4
METRIC,LZ
;TYPE=PLATED
T01F00S00C0.3000
T02F00S00C0.6000
T04F00S00C0.7620
T05F00S00C0.9000
T06F00S00C1.0000
T08F00S00C3.2000
;TYPE=NON_PLATED
T09F00S00C0.6500
T10F00S00C0.7000
%
T01
X007Y0006
Y0008
X0071Y0007
X0073
X0072Y0008
X0074
Y0006
X0072
X00784Y0007
X00819Y00085
X0081Y00285
X0079
X0056Y0028
X0054
X0055Y0029
X0053
X0052Y0028
X00502Y00234
X0048Y0024
X00469892Y00217801
X0048Y0018
X00502Y00156
X0046Y0014
X0047Y0013
X0045
X0044Y0014
Y0012
X0046
X0048
X0039675Y0014425
X003975Y0016325
X0039525Y00177
X004175Y001875
X00415059Y00267299
X00457871Y00276491
X00445Y0029325
X00349691Y002565
Y002355
X00338691Y00246
X00327691Y002565
Y002355
X003275Y001525
X0034
X00354Y00164
X003075Y001425
X0031Y0005
X003Y0004
X0031Y0003
X0033
Y0005
X0034Y0004
X0035Y0005
X0036Y0004
X0035Y0003
X0037
Y0005
X006475Y000725
X0029Y0005
X0028Y0004
X0027Y0005
Y0003
X0029
X002625Y001425
X002585Y001765
X00225Y00175
X002
Y002
X002445Y002025
X002575Y00215
X00262191Y00281086
X0025Y0028
X00235Y00267
X002Y00275
X00156Y00251
X00147
X0014275Y00229
Y0021275
Y001949
Y0017775
X001255Y00126
X0011Y00092
X0009Y0009
X0008Y0008
X00079Y00115
X00081Y000315
X0013Y0008
X0014Y0009
X0019Y0011
X002
X0022Y001
X0013Y0027
X0012Y0026
X002Y003
X00225
X00245Y003125
X0025925Y00325
X00258Y00342
X00285375Y00352625
X002745Y00397
X0027Y0046
X0025
X0029
X0013Y0045
Y0043
X0011
X0012Y0042
X0011Y0041
X0013
X001485Y00408
X0017Y004
X0018Y0039
X0019Y0038
X000905Y00408
X0012Y0044
X0011Y0045
X0031Y0046
X00307Y00385
X0031Y00368
X00329984Y00319849
X00353Y00321
X00367Y0035025
X00404Y00332
X00424Y0037
X004145Y00407
X003505
X00445Y0030675
X0052Y003
X0054
X0056
X0057Y0043
Y0045
X0058Y0044
X0059Y0045
X006Y0044
X0059Y0043
X0061
X0063
Y0045
X0064Y0044
X0065Y0045
X0066Y0044
X0065Y0043
X0067
Y0045
X0069
Y0043
X0061Y0045
X007Y0044
X0071Y0045
X0072Y0044
X0071Y0043
X0073
Y0045
X0079Y0031
X0081
T02
X0062Y001775
X0062Y00213
X00237Y00137
X00267Y00102
X00295Y00364
X0034Y00364
T04
X00151Y00345
Y00365
T05
X005066Y003956
Y00421
X00532
Y004464
X005066
X00532Y003956
T06
X0088Y001688
Y001942
Y002196
Y00245
X0088Y002704
X0010625Y00283
X0004Y00189
Y00164
Y00139
Y00114
X0010625Y00308
Y00328
Y00353
X0088Y003212
Y002958
T08
X00885Y00052
X00205Y00052
X0004Y00052
X0004Y0044
X00205
X00885
T09
X003536Y0041775
X004114
T10
X00778Y000325
X00795
X006565Y00033
X006395
M30
