G04*
G04 #@! TF.GenerationSoftware,Altium Limited,Altium Designer,24.2.2 (26)*
G04*
G04 Layer_Color=8388736*
%FSLAX43Y43*%
%MOMM*%
G71*
G04*
G04 #@! TF.SameCoordinates,8CC7AA04-EDAA-4120-BC56-05CF8BE8917F*
G04*
G04*
G04 #@! TF.FilePolarity,Negative*
G04*
G01*
G75*
%ADD14R,1.100X0.800*%
%ADD15R,0.700X0.900*%
G04:AMPARAMS|DCode=16|XSize=1.6mm|YSize=1.2mm|CornerRadius=0.325mm|HoleSize=0mm|Usage=FLASHONLY|Rotation=180.000|XOffset=0mm|YOffset=0mm|HoleType=Round|Shape=RoundedRectangle|*
%AMROUNDEDRECTD16*
21,1,1.600,0.550,0,0,180.0*
21,1,0.950,1.200,0,0,180.0*
1,1,0.650,-0.475,0.275*
1,1,0.650,0.475,0.275*
1,1,0.650,0.475,-0.275*
1,1,0.650,-0.475,-0.275*
%
%ADD16ROUNDEDRECTD16*%
G04:AMPARAMS|DCode=17|XSize=1.9mm|YSize=1.15mm|CornerRadius=0.313mm|HoleSize=0mm|Usage=FLASHONLY|Rotation=180.000|XOffset=0mm|YOffset=0mm|HoleType=Round|Shape=RoundedRectangle|*
%AMROUNDEDRECTD17*
21,1,1.900,0.525,0,0,180.0*
21,1,1.275,1.150,0,0,180.0*
1,1,0.625,-0.638,0.263*
1,1,0.625,0.638,0.263*
1,1,0.625,0.638,-0.263*
1,1,0.625,-0.638,-0.263*
%
%ADD17ROUNDEDRECTD17*%
%ADD18R,1.500X1.500*%
%ADD19C,1.700*%
%ADD20R,1.700X1.700*%
G04:AMPARAMS|DCode=21|XSize=1.8mm|YSize=4.1mm|CornerRadius=0.475mm|HoleSize=0mm|Usage=FLASHONLY|Rotation=270.000|XOffset=0mm|YOffset=0mm|HoleType=Round|Shape=RoundedRectangle|*
%AMROUNDEDRECTD21*
21,1,1.800,3.150,0,0,270.0*
21,1,0.850,4.100,0,0,270.0*
1,1,0.950,-1.575,-0.425*
1,1,0.950,-1.575,0.425*
1,1,0.950,1.575,0.425*
1,1,0.950,1.575,-0.425*
%
%ADD21ROUNDEDRECTD21*%
G04:AMPARAMS|DCode=22|XSize=4.1mm|YSize=3.1mm|CornerRadius=0.8mm|HoleSize=0mm|Usage=FLASHONLY|Rotation=0.000|XOffset=0mm|YOffset=0mm|HoleType=Round|Shape=RoundedRectangle|*
%AMROUNDEDRECTD22*
21,1,4.100,1.500,0,0,0.0*
21,1,2.500,3.100,0,0,0.0*
1,1,1.600,1.250,-0.750*
1,1,1.600,-1.250,-0.750*
1,1,1.600,-1.250,0.750*
1,1,1.600,1.250,0.750*
%
%ADD22ROUNDEDRECTD22*%
%ADD23C,1.624*%
%ADD24C,6.100*%
%ADD25C,2.000*%
%ADD26R,2.000X2.000*%
%ADD27C,0.100*%
%ADD28C,1.100*%
%ADD29O,1.100X1.900*%
D14*
X15100Y3150D02*
D03*
Y4650D02*
D03*
X12900Y3150D02*
D03*
Y4650D02*
D03*
X9500Y3150D02*
D03*
Y4650D02*
D03*
D15*
X9600Y22500D02*
D03*
X7250D02*
D03*
X14400Y39100D02*
D03*
X12050D02*
D03*
D16*
X7950Y19110D02*
D03*
Y16570D02*
D03*
Y14030D02*
D03*
Y11490D02*
D03*
X16850Y19110D02*
D03*
Y16570D02*
D03*
Y14030D02*
D03*
Y11490D02*
D03*
D17*
X16200Y29525D02*
D03*
Y26475D02*
D03*
D18*
X14850Y46200D02*
D03*
X9050D02*
D03*
X14850Y42300D02*
D03*
X9050D02*
D03*
D19*
X50660Y42100D02*
D03*
Y39560D02*
D03*
X53200Y42100D02*
D03*
Y39560D02*
D03*
X50660Y44640D02*
D03*
X4000Y16400D02*
D03*
Y13900D02*
D03*
Y11400D02*
D03*
D20*
X53200Y44640D02*
D03*
X4000Y18900D02*
D03*
D21*
X10625Y28300D02*
D03*
Y30800D02*
D03*
Y32800D02*
D03*
Y35300D02*
D03*
D22*
X3575Y38150D02*
D03*
Y25450D02*
D03*
D23*
X15100Y36500D02*
D03*
Y34500D02*
D03*
D24*
X20500Y5200D02*
D03*
Y44000D02*
D03*
X88500Y5200D02*
D03*
Y44000D02*
D03*
X4000Y5200D02*
D03*
X4000Y44000D02*
D03*
D25*
X88000Y27040D02*
D03*
X88000Y29580D02*
D03*
Y24500D02*
D03*
Y21960D02*
D03*
Y19420D02*
D03*
Y16880D02*
D03*
D26*
Y32120D02*
D03*
D27*
X77800Y3250D02*
D03*
X79500D02*
D03*
X63950Y3300D02*
D03*
X65650D02*
D03*
X35360Y41775D02*
D03*
X41140D02*
D03*
D28*
X62000Y17750D02*
D03*
X62000Y21300D02*
D03*
X29500Y36400D02*
D03*
X34000Y36400D02*
D03*
X23700Y13700D02*
D03*
X26700Y10200D02*
D03*
D29*
X33930Y45455D02*
D03*
Y41275D02*
D03*
X42570Y45455D02*
D03*
Y41275D02*
D03*
M02*
